G04*
G04 #@! TF.GenerationSoftware,Altium Limited,Altium Designer,21.9.2 (33)*
G04*
G04 Layer_Color=255*
%FSLAX25Y25*%
%MOIN*%
G70*
G04*
G04 #@! TF.SameCoordinates,6D25873D-4EA7-46F0-BCAE-82CFCE844350*
G04*
G04*
G04 #@! TF.FilePolarity,Positive*
G04*
G01*
G75*
%ADD20R,0.03150X0.03543*%
%ADD66C,0.05118*%
%ADD67O,0.03543X0.07087*%
%ADD71R,0.04331X0.06693*%
D20*
X147244Y26378D02*
D03*
X141732D02*
D03*
X147244Y79921D02*
D03*
X141732D02*
D03*
X148031Y136614D02*
D03*
X142520D02*
D03*
D66*
X18898Y119528D02*
D03*
Y129528D02*
D03*
X8898Y124528D02*
D03*
Y134528D02*
D03*
X18661Y83976D02*
D03*
X8661Y98976D02*
D03*
X18661Y93976D02*
D03*
X8661Y88976D02*
D03*
X123779Y190157D02*
D03*
X118780Y180157D02*
D03*
X113779Y190157D02*
D03*
X108780Y180157D02*
D03*
X18504Y47874D02*
D03*
X8504Y62874D02*
D03*
X18504Y57874D02*
D03*
X8504Y52874D02*
D03*
D67*
X71260Y6004D02*
D03*
X45276D02*
D03*
D71*
X151772Y121653D02*
D03*
X141142D02*
D03*
X153347Y32677D02*
D03*
X142717D02*
D03*
X151969Y87008D02*
D03*
X141339D02*
D03*
X151772Y129921D02*
D03*
X141142D02*
D03*
X153347Y11811D02*
D03*
X142717D02*
D03*
X152165Y142913D02*
D03*
X141535D02*
D03*
X152165Y73622D02*
D03*
X141535D02*
D03*
X152165Y65354D02*
D03*
X141535D02*
D03*
X153347Y19685D02*
D03*
X142717D02*
D03*
M02*
