G04*
G04 #@! TF.GenerationSoftware,Altium Limited,Altium Designer,21.9.2 (33)*
G04*
G04 Layer_Color=2752767*
%FSLAX25Y25*%
%MOIN*%
G70*
G04*
G04 #@! TF.SameCoordinates,51F14C3D-0984-4349-87D4-3E8860FF880C*
G04*
G04*
G04 #@! TF.FilePolarity,Positive*
G04*
G01*
G75*
%ADD77C,0.00200*%
%ADD78C,0.00267*%
D77*
X18098Y118728D02*
Y120328D01*
X19698D01*
Y118728D01*
X18098D01*
Y128728D02*
Y130328D01*
X19698D01*
Y128728D01*
X18098D01*
X8098Y123728D02*
Y125328D01*
X9698D01*
Y123728D01*
X8098D01*
Y133728D02*
Y135328D01*
X9698D01*
Y133728D01*
X8098D01*
X17861Y83176D02*
Y84776D01*
X19461D01*
Y83176D01*
X17861D01*
X7861Y98176D02*
Y99776D01*
X9461D01*
Y98176D01*
X7861D01*
X17861Y93176D02*
Y94776D01*
X19461D01*
Y93176D01*
X17861D01*
X7861Y88176D02*
Y89776D01*
X9461D01*
Y88176D01*
X7861D01*
X122979Y189357D02*
Y190957D01*
X124580D01*
Y189357D01*
X122979D01*
X117980Y179358D02*
Y180957D01*
X119580D01*
Y179358D01*
X117980D01*
X112979Y189357D02*
Y190957D01*
X114579D01*
Y189357D01*
X112979D01*
X107980Y179358D02*
Y180957D01*
X109580D01*
Y179358D01*
X107980D01*
X17704Y47074D02*
Y48674D01*
X19304D01*
Y47074D01*
X17704D01*
X7704Y62074D02*
Y63674D01*
X9304D01*
Y62074D01*
X7704D01*
X17704Y57074D02*
Y58674D01*
X19304D01*
Y57074D01*
X17704D01*
X7704Y52074D02*
Y53674D01*
X9304D01*
Y52074D01*
X7704D01*
X71260Y5204D02*
X70460Y6804D01*
X72060D01*
X71260Y5204D01*
X45276D02*
X44476Y6804D01*
X46076D01*
X45276Y5204D01*
X141339Y20066D02*
X141739Y20466D01*
X142139D01*
X141739Y20866D01*
X142139Y21266D01*
X141739D01*
X141339Y21666D01*
X140939Y21266D01*
X140539D01*
X140939Y20866D01*
X140539Y20466D01*
X140939D01*
X141339Y20066D01*
X142126Y154712D02*
X142526Y155112D01*
X142926D01*
X142526Y155512D01*
X142926Y155912D01*
X142526D01*
X142126Y156312D01*
X141726Y155912D01*
X141326D01*
X141726Y155512D01*
X141326Y155112D01*
X141726D01*
X142126Y154712D01*
X136221D02*
X136620Y155112D01*
X137021D01*
X136620Y155512D01*
X137021Y155912D01*
X136620D01*
X136221Y156312D01*
X135820Y155912D01*
X135421D01*
X135820Y155512D01*
X135421Y155112D01*
X135820D01*
X136221Y154712D01*
X142520Y164948D02*
X142920Y165348D01*
X143320D01*
X142920Y165748D01*
X143320Y166148D01*
X142920D01*
X142520Y166548D01*
X142120Y166148D01*
X141720D01*
X142120Y165748D01*
X141720Y165348D01*
X142120D01*
X142520Y164948D01*
X136221D02*
X136620Y165348D01*
X137021D01*
X136620Y165748D01*
X137021Y166148D01*
X136620D01*
X136221Y166548D01*
X135820Y166148D01*
X135421D01*
X135820Y165748D01*
X135421Y165348D01*
X135820D01*
X136221Y164948D01*
X142520Y159830D02*
X142920Y160230D01*
X143320D01*
X142920Y160630D01*
X143320Y161030D01*
X142920D01*
X142520Y161430D01*
X142120Y161030D01*
X141720D01*
X142120Y160630D01*
X141720Y160230D01*
X142120D01*
X142520Y159830D01*
X136221D02*
X136620Y160230D01*
X137021D01*
X136620Y160630D01*
X137021Y161030D01*
X136620D01*
X136221Y161430D01*
X135820Y161030D01*
X135421D01*
X135820Y160630D01*
X135421Y160230D01*
X135820D01*
X136221Y159830D01*
X139173Y155086D02*
X139573Y155486D01*
X139973D01*
X139573Y155886D01*
X139973Y156286D01*
X139573D01*
X139173Y156686D01*
X138773Y156286D01*
X138373D01*
X138773Y155886D01*
X138373Y155486D01*
X138773D01*
X139173Y155086D01*
Y160086D02*
X139573Y160486D01*
X139973D01*
X139573Y160886D01*
X139973Y161286D01*
X139573D01*
X139173Y161686D01*
X138773Y161286D01*
X138373D01*
X138773Y160886D01*
X138373Y160486D01*
X138773D01*
X139173Y160086D01*
Y165086D02*
X139573Y165486D01*
X139973D01*
X139573Y165886D01*
X139973Y166286D01*
X139573D01*
X139173Y166686D01*
X138773Y166286D01*
X138373D01*
X138773Y165886D01*
X138373Y165486D01*
X138773D01*
X139173Y165086D01*
X112382Y33452D02*
X112782Y33852D01*
X113182D01*
X112782Y34252D01*
X113182Y34652D01*
X112782D01*
X112382Y35052D01*
X111982Y34652D01*
X111582D01*
X111982Y34252D01*
X111582Y33852D01*
X111982D01*
X112382Y33452D01*
X126759Y45657D02*
X127159Y46457D01*
X126759Y47257D01*
X127559Y46857D01*
X128359Y47257D01*
X127959Y46457D01*
X128359Y45657D01*
X127559Y46057D01*
X126759Y45657D01*
X121247Y66523D02*
X121647Y67323D01*
X121247Y68123D01*
X122047Y67723D01*
X122847Y68123D01*
X122447Y67323D01*
X122847Y66523D01*
X122047Y66923D01*
X121247Y66523D01*
X122822Y61405D02*
X123222Y62205D01*
X122822Y63005D01*
X123622Y62605D01*
X124422Y63005D01*
X124022Y62205D01*
X124422Y61405D01*
X123622Y61805D01*
X122822Y61405D01*
X120853Y31090D02*
X121254Y31890D01*
X120853Y32690D01*
X121653Y32290D01*
X122453Y32690D01*
X122054Y31890D01*
X122453Y31090D01*
X121653Y31490D01*
X120853Y31090D01*
X115735D02*
X116135Y31890D01*
X115735Y32690D01*
X116535Y32290D01*
X117335Y32690D01*
X116935Y31890D01*
X117335Y31090D01*
X116535Y31490D01*
X115735Y31090D01*
X102350Y24003D02*
X102750Y24803D01*
X102350Y25603D01*
X103150Y25203D01*
X103950Y25603D01*
X103550Y24803D01*
X103950Y24003D01*
X103150Y24403D01*
X102350Y24003D01*
X103150Y18491D02*
X103550Y18891D01*
X103950D01*
X103550Y19291D01*
X103950Y19691D01*
X103550D01*
X103150Y20091D01*
X102750Y19691D01*
X102350D01*
X102750Y19291D01*
X102350Y18891D01*
X102750D01*
X103150Y18491D01*
X102350Y13767D02*
X102750Y14567D01*
X102350Y15367D01*
X103150Y14967D01*
X103950Y15367D01*
X103550Y14567D01*
X103950Y13767D01*
X103150Y14167D01*
X102350Y13767D01*
X127153Y109043D02*
X127553Y109843D01*
X127153Y110643D01*
X127953Y110242D01*
X128753Y110643D01*
X128353Y109843D01*
X128753Y109043D01*
X127953Y109442D01*
X127153Y109043D01*
X123609Y113767D02*
X124009Y114567D01*
X123609Y115367D01*
X124409Y114967D01*
X125209Y115367D01*
X124809Y114567D01*
X125209Y113767D01*
X124409Y114167D01*
X123609Y113767D01*
X128085Y126725D02*
X128485Y127126D01*
X128885D01*
X128485Y127525D01*
X128885Y127926D01*
X128485D01*
X128085Y128325D01*
X127685Y127926D01*
X127285D01*
X127685Y127525D01*
X127285Y127126D01*
X127685D01*
X128085Y126725D01*
X80991Y29121D02*
X81391Y29921D01*
X80991Y30721D01*
X81791Y30321D01*
X82591Y30721D01*
X82191Y29921D01*
X82591Y29121D01*
X81791Y29521D01*
X80991Y29121D01*
X76759Y40539D02*
X77159Y41339D01*
X76759Y42139D01*
X77559Y41739D01*
X78359Y42139D01*
X77959Y41339D01*
X78359Y40539D01*
X77559Y40939D01*
X76759Y40539D01*
X63767Y46444D02*
X64167Y47244D01*
X63767Y48044D01*
X64567Y47644D01*
X65367Y48044D01*
X64967Y47244D01*
X65367Y46444D01*
X64567Y46844D01*
X63767Y46444D01*
X67704Y49594D02*
X68104Y50394D01*
X67704Y51194D01*
X68504Y50794D01*
X69304Y51194D01*
X68904Y50394D01*
X69304Y49594D01*
X68504Y49994D01*
X67704Y49594D01*
X56249Y81915D02*
X56649Y82715D01*
X56249Y83515D01*
X57049Y83115D01*
X57849Y83515D01*
X57449Y82715D01*
X57849Y81915D01*
X57049Y82315D01*
X56249Y81915D01*
X53137Y61405D02*
X53537Y62205D01*
X53137Y63005D01*
X53937Y62605D01*
X54737Y63005D01*
X54337Y62205D01*
X54737Y61405D01*
X53937Y61805D01*
X53137Y61405D01*
X59436Y97625D02*
X59836Y98425D01*
X59436Y99225D01*
X60236Y98825D01*
X61036Y99225D01*
X60636Y98425D01*
X61036Y97625D01*
X60236Y98025D01*
X59436Y97625D01*
X60935Y50972D02*
X61335Y51772D01*
X60935Y52572D01*
X61735Y52172D01*
X62535Y52572D01*
X62135Y51772D01*
X62535Y50972D01*
X61735Y51372D01*
X60935Y50972D01*
X53569Y49632D02*
X53969Y50432D01*
X53569Y51232D01*
X54369Y50832D01*
X55169Y51232D01*
X54769Y50432D01*
X55169Y49632D01*
X54369Y50032D01*
X53569Y49632D01*
X49949D02*
X50349Y50432D01*
X49949Y51232D01*
X50749Y50832D01*
X51550Y51232D01*
X51149Y50432D01*
X51550Y49632D01*
X50749Y50032D01*
X49949Y49632D01*
X72146Y83058D02*
X72546Y83458D01*
X72946D01*
X72546Y83858D01*
X72946Y84258D01*
X72546D01*
X72146Y84658D01*
X71746Y84258D01*
X71346D01*
X71746Y83858D01*
X71346Y83458D01*
X71746D01*
X72146Y83058D01*
X75540Y61049D02*
X75940Y61849D01*
X75540Y62649D01*
X76340Y62249D01*
X77140Y62649D01*
X76740Y61849D01*
X77140Y61049D01*
X76340Y61449D01*
X75540Y61049D01*
X81299Y34633D02*
X81699Y35033D01*
X82099D01*
X81699Y35433D01*
X82099Y35833D01*
X81699D01*
X81299Y36233D01*
X80899Y35833D01*
X80499D01*
X80899Y35433D01*
X80499Y35033D01*
X80899D01*
X81299Y34633D01*
X11411Y184639D02*
Y184239D01*
X12211D01*
Y184639D01*
X12611D01*
Y185439D01*
X12211D01*
Y185839D01*
X11411D01*
Y185439D01*
X11011D01*
Y184639D01*
X11411D01*
X122047Y57861D02*
X122447Y58261D01*
X122847D01*
X122447Y58661D01*
X122847Y59061D01*
X122447D01*
X122047Y59461D01*
X121647Y59061D01*
X121247D01*
X121647Y58661D01*
X121247Y58261D01*
X121647D01*
X122047Y57861D01*
X115748Y50381D02*
X116148Y50781D01*
X116548D01*
X116148Y51181D01*
X116548Y51581D01*
X116148D01*
X115748Y51981D01*
X115348Y51581D01*
X114948D01*
X115348Y51181D01*
X114948Y50781D01*
X115348D01*
X115748Y50381D01*
X116129Y63767D02*
X116529Y64567D01*
X116129Y65367D01*
X116929Y64967D01*
X117729Y65367D01*
X117329Y64567D01*
X117729Y63767D01*
X116929Y64167D01*
X116129Y63767D01*
X113767Y112192D02*
X114167Y112992D01*
X113767Y113792D01*
X114567Y113392D01*
X115367Y113792D01*
X114967Y112992D01*
X115367Y112192D01*
X114567Y112592D01*
X113767Y112192D01*
X112992Y107074D02*
X113392Y107474D01*
X113792D01*
X113392Y107874D01*
X113792Y108274D01*
X113392D01*
X112992Y108674D01*
X112592Y108274D01*
X112192D01*
X112592Y107874D01*
X112192Y107474D01*
X112592D01*
X112992Y107074D01*
X108649Y98019D02*
X109049Y98819D01*
X108649Y99619D01*
X109449Y99219D01*
X110249Y99619D01*
X109849Y98819D01*
X110249Y98019D01*
X109449Y98419D01*
X108649Y98019D01*
X44476Y22822D02*
X44876Y23622D01*
X44476Y24422D01*
X45276Y24022D01*
X46076Y24422D01*
X45676Y23622D01*
X46076Y22822D01*
X45276Y23222D01*
X44476Y22822D01*
X39665D02*
X40065Y23222D01*
X40465D01*
X40065Y23622D01*
X40465Y24022D01*
X40065D01*
X39665Y24422D01*
X39265Y24022D01*
X38865D01*
X39265Y23622D01*
X38865Y23222D01*
X39265D01*
X39665Y22822D01*
X131496Y9830D02*
X131896Y10230D01*
X132296D01*
X131896Y10630D01*
X132296Y11030D01*
X131896D01*
X131496Y11430D01*
X131096Y11030D01*
X130696D01*
X131096Y10630D01*
X130696Y10230D01*
X131096D01*
X131496Y9830D01*
X112598Y18491D02*
X112998Y18891D01*
X113398D01*
X112998Y19291D01*
X113398Y19691D01*
X112998D01*
X112598Y20091D01*
X112198Y19691D01*
X111798D01*
X112198Y19291D01*
X111798Y18891D01*
X112198D01*
X112598Y18491D01*
X125591Y16129D02*
X125991Y16529D01*
X126391D01*
X125991Y16929D01*
X126391Y17329D01*
X125991D01*
X125591Y17729D01*
X125191Y17329D01*
X124791D01*
X125191Y16929D01*
X124791Y16529D01*
X125191D01*
X125591Y16129D01*
X61417Y26365D02*
X61817Y26765D01*
X62217D01*
X61817Y27165D01*
X62217Y27565D01*
X61817D01*
X61417Y27965D01*
X61017Y27565D01*
X60617D01*
X61017Y27165D01*
X60617Y26765D01*
X61017D01*
X61417Y26365D01*
X63287Y15735D02*
X63687Y16135D01*
X64087D01*
X63687Y16535D01*
X64087Y16935D01*
X63687D01*
X63287Y17335D01*
X62887Y16935D01*
X62487D01*
X62887Y16535D01*
X62487Y16135D01*
X62887D01*
X63287Y15735D01*
X111798Y24003D02*
X112198Y24803D01*
X111798Y25603D01*
X112598Y25203D01*
X113398Y25603D01*
X112998Y24803D01*
X113398Y24003D01*
X112598Y24403D01*
X111798Y24003D01*
X148031Y130302D02*
X148432Y130702D01*
X148831D01*
X148432Y131102D01*
X148831Y131502D01*
X148432D01*
X148031Y131902D01*
X147632Y131502D01*
X147231D01*
X147632Y131102D01*
X147231Y130702D01*
X147632D01*
X148031Y130302D01*
X110224Y132271D02*
X110624Y133071D01*
X110224Y133871D01*
X111024Y133471D01*
X111824Y133871D01*
X111424Y133071D01*
X111824Y132271D01*
X111024Y132671D01*
X110224Y132271D01*
X112106Y126759D02*
X112506Y127159D01*
X112906D01*
X112506Y127559D01*
X112906Y127959D01*
X112506D01*
X112106Y128359D01*
X111706Y127959D01*
X111306D01*
X111706Y127559D01*
X111306Y127159D01*
X111706D01*
X112106Y126759D01*
X88570Y84239D02*
X88970Y85039D01*
X88570Y85839D01*
X89370Y85439D01*
X90170Y85839D01*
X89770Y85039D01*
X90170Y84239D01*
X89370Y84639D01*
X88570Y84239D01*
X69672Y91720D02*
X70072Y92520D01*
X69672Y93320D01*
X70472Y92920D01*
X71272Y93320D01*
X70872Y92520D01*
X71272Y91720D01*
X70472Y92120D01*
X69672Y91720D01*
X62586Y137586D02*
X62986Y138386D01*
X62586Y139186D01*
X63386Y138786D01*
X64186Y139186D01*
X63786Y138386D01*
X64186Y137586D01*
X63386Y137986D01*
X62586Y137586D01*
X72047Y96838D02*
X72447Y97238D01*
X72847D01*
X72447Y97638D01*
X72847Y98038D01*
X72447D01*
X72047Y98438D01*
X71647Y98038D01*
X71247D01*
X71647Y97638D01*
X71247Y97238D01*
X71647D01*
X72047Y96838D01*
X83740Y97098D02*
X84140Y97498D01*
X84540D01*
X84140Y97898D01*
X84540Y98298D01*
X84140D01*
X83740Y98698D01*
X83340Y98298D01*
X82940D01*
X83340Y97898D01*
X82940Y97498D01*
X83340D01*
X83740Y97098D01*
X74003Y107074D02*
X74403Y107874D01*
X74003Y108674D01*
X74803Y108274D01*
X75603Y108674D01*
X75203Y107874D01*
X75603Y107074D01*
X74803Y107474D01*
X74003Y107074D01*
X18491Y15735D02*
X18891Y16535D01*
X18491Y17335D01*
X19291Y16935D01*
X20091Y17335D01*
X19691Y16535D01*
X20091Y15735D01*
X19291Y16135D01*
X18491Y15735D01*
X25393Y9141D02*
X25793Y9541D01*
X26193D01*
X25793Y9941D01*
X26193Y10341D01*
X25793D01*
X25393Y10741D01*
X24993Y10341D01*
X24593D01*
X24993Y9941D01*
X24593Y9541D01*
X24993D01*
X25393Y9141D01*
X31877Y11798D02*
X32277Y12598D01*
X31877Y13398D01*
X32677Y12998D01*
X33477Y13398D01*
X33077Y12598D01*
X33477Y11798D01*
X32677Y12198D01*
X31877Y11798D01*
X45669Y14850D02*
X46069Y15250D01*
X46469D01*
X46069Y15650D01*
X46469Y16050D01*
X46069D01*
X45669Y16450D01*
X45269Y16050D01*
X44869D01*
X45269Y15650D01*
X44869Y15250D01*
X45269D01*
X45669Y14850D01*
X42901Y40145D02*
X43301Y40945D01*
X42901Y41745D01*
X43701Y41345D01*
X44501Y41745D01*
X44101Y40945D01*
X44501Y40145D01*
X43701Y40545D01*
X42901Y40145D01*
X27153Y137783D02*
X27553Y138583D01*
X27153Y139383D01*
X27953Y138983D01*
X28753Y139383D01*
X28353Y138583D01*
X28753Y137783D01*
X27953Y138183D01*
X27153Y137783D01*
X38878Y61011D02*
X39278Y61411D01*
X39678D01*
X39278Y61811D01*
X39678Y62211D01*
X39278D01*
X38878Y62611D01*
X38478Y62211D01*
X38078D01*
X38478Y61811D01*
X38078Y61411D01*
X38478D01*
X38878Y61011D01*
X43688Y65735D02*
X44088Y66535D01*
X43688Y67335D01*
X44488Y66935D01*
X45288Y67335D01*
X44888Y66535D01*
X45288Y65735D01*
X44488Y66135D01*
X43688Y65735D01*
X50616Y69044D02*
X51016Y69844D01*
X50616Y70644D01*
X51416Y70244D01*
X52216Y70644D01*
X51816Y69844D01*
X52216Y69044D01*
X51416Y69444D01*
X50616Y69044D01*
X45263Y70066D02*
X45663Y70866D01*
X45263Y71666D01*
X46063Y71266D01*
X46863Y71666D01*
X46463Y70866D01*
X46863Y70066D01*
X46063Y70466D01*
X45263Y70066D01*
X46838Y81090D02*
X47238Y81890D01*
X46838Y82690D01*
X47638Y82290D01*
X48438Y82690D01*
X48038Y81890D01*
X48438Y81090D01*
X47638Y81490D01*
X46838Y81090D01*
X48019Y105105D02*
X48419Y105905D01*
X48019Y106705D01*
X48819Y106306D01*
X49619Y106705D01*
X49219Y105905D01*
X49619Y105105D01*
X48819Y105506D01*
X48019Y105105D01*
X82665Y107074D02*
X83065Y107874D01*
X82665Y108674D01*
X83465Y108274D01*
X84265Y108674D01*
X83865Y107874D01*
X84265Y107074D01*
X83465Y107474D01*
X82665Y107074D01*
X49987Y96444D02*
X50387Y97244D01*
X49987Y98044D01*
X50787Y97644D01*
X51587Y98044D01*
X51187Y97244D01*
X51587Y96444D01*
X50787Y96844D01*
X49987Y96444D01*
X53137Y95263D02*
X53537Y96063D01*
X53137Y96863D01*
X53937Y96463D01*
X54737Y96863D01*
X54337Y96063D01*
X54737Y95263D01*
X53937Y95663D01*
X53137Y95263D01*
X82940Y112098D02*
X83340Y112898D01*
X82940Y113698D01*
X83740Y113298D01*
X84540Y113698D01*
X84140Y112898D01*
X84540Y112098D01*
X83740Y112498D01*
X82940Y112098D01*
X74003Y111798D02*
X74403Y112598D01*
X74003Y113398D01*
X74803Y112998D01*
X75603Y113398D01*
X75203Y112598D01*
X75603Y111798D01*
X74803Y112198D01*
X74003Y111798D01*
X65735Y133058D02*
X66135Y133858D01*
X65735Y134658D01*
X66535Y134258D01*
X67335Y134658D01*
X66935Y133858D01*
X67335Y133058D01*
X66535Y133458D01*
X65735Y133058D01*
Y63373D02*
X66135Y64173D01*
X65735Y64973D01*
X66535Y64573D01*
X67335Y64973D01*
X66935Y64173D01*
X67335Y63373D01*
X66535Y63773D01*
X65735Y63373D01*
X62586Y61798D02*
X62986Y62598D01*
X62586Y63398D01*
X63386Y62998D01*
X64186Y63398D01*
X63786Y62598D01*
X64186Y61798D01*
X63386Y62198D01*
X62586Y61798D01*
X77153Y67310D02*
X77553Y68110D01*
X77153Y68910D01*
X77953Y68510D01*
X78753Y68910D01*
X78353Y68110D01*
X78753Y67310D01*
X77953Y67710D01*
X77153Y67310D01*
X88964Y59043D02*
X89364Y59842D01*
X88964Y60642D01*
X89764Y60242D01*
X90564Y60642D01*
X90164Y59842D01*
X90564Y59043D01*
X89764Y59443D01*
X88964Y59043D01*
X83096Y64986D02*
X83496Y65786D01*
X83096Y66586D01*
X83896Y66186D01*
X84696Y66586D01*
X84296Y65786D01*
X84696Y64986D01*
X83896Y65386D01*
X83096Y64986D01*
X88964Y74239D02*
X89364Y75039D01*
X88964Y75839D01*
X89764Y75439D01*
X90564Y75839D01*
X90164Y75039D01*
X90564Y74239D01*
X89764Y74639D01*
X88964Y74239D01*
X46838Y46838D02*
X47238Y47638D01*
X46838Y48438D01*
X47638Y48038D01*
X48438Y48438D01*
X48038Y47638D01*
X48438Y46838D01*
X47638Y47238D01*
X46838Y46838D01*
X26378Y27153D02*
X26778Y27553D01*
X27178D01*
X26778Y27953D01*
X27178Y28353D01*
X26778D01*
X26378Y28753D01*
X25978Y28353D01*
X25578D01*
X25978Y27953D01*
X25578Y27553D01*
X25978D01*
X26378Y27153D01*
Y5105D02*
X26778Y5505D01*
X27178D01*
X26778Y5906D01*
X27178Y6306D01*
X26778D01*
X26378Y6706D01*
X25978Y6306D01*
X25578D01*
X25978Y5906D01*
X25578Y5505D01*
X25978D01*
X26378Y5105D01*
X154331Y165735D02*
X154731Y166135D01*
X155131D01*
X154731Y166535D01*
X155131Y166935D01*
X154731D01*
X154331Y167335D01*
X153931Y166935D01*
X153531D01*
X153931Y166535D01*
X153531Y166135D01*
X153931D01*
X154331Y165735D01*
X146457D02*
X146857Y166135D01*
X147257D01*
X146857Y166535D01*
X147257Y166935D01*
X146857D01*
X146457Y167335D01*
X146057Y166935D01*
X145657D01*
X146057Y166535D01*
X145657Y166135D01*
X146057D01*
X146457Y165735D01*
Y161798D02*
X146857Y162198D01*
X147257D01*
X146857Y162598D01*
X147257Y162998D01*
X146857D01*
X146457Y163398D01*
X146057Y162998D01*
X145657D01*
X146057Y162598D01*
X145657Y162198D01*
X146057D01*
X146457Y161798D01*
X150394D02*
X150794Y162198D01*
X151194D01*
X150794Y162598D01*
X151194Y162998D01*
X150794D01*
X150394Y163398D01*
X149994Y162998D01*
X149594D01*
X149994Y162598D01*
X149594Y162198D01*
X149994D01*
X150394Y161798D01*
X154331D02*
X154731Y162198D01*
X155131D01*
X154731Y162598D01*
X155131Y162998D01*
X154731D01*
X154331Y163398D01*
X153931Y162998D01*
X153531D01*
X153931Y162598D01*
X153531Y162198D01*
X153931D01*
X154331Y161798D01*
Y169672D02*
X154731Y170072D01*
X155131D01*
X154731Y170472D01*
X155131Y170872D01*
X154731D01*
X154331Y171272D01*
X153931Y170872D01*
X153531D01*
X153931Y170472D01*
X153531Y170072D01*
X153931D01*
X154331Y169672D01*
X146457D02*
X146857Y170072D01*
X147257D01*
X146857Y170472D01*
X147257Y170872D01*
X146857D01*
X146457Y171272D01*
X146057Y170872D01*
X145657D01*
X146057Y170472D01*
X145657Y170072D01*
X146057D01*
X146457Y169672D01*
X150394Y169672D02*
X150794Y170072D01*
X151194D01*
X150794Y170472D01*
X151194Y170872D01*
X150794D01*
X150394Y171272D01*
X149994Y170872D01*
X149594D01*
X149994Y170472D01*
X149594Y170072D01*
X149994D01*
X150394Y169672D01*
Y165735D02*
X150794Y166135D01*
X151194D01*
X150794Y166535D01*
X151194Y166935D01*
X150794D01*
X150394Y167335D01*
X149994Y166935D01*
X149594D01*
X149994Y166535D01*
X149594Y166135D01*
X149994D01*
X150394Y165735D01*
X82284Y78728D02*
X82683Y79128D01*
X83083D01*
X82683Y79528D01*
X83083Y79928D01*
X82683D01*
X82284Y80328D01*
X81884Y79928D01*
X81484D01*
X81884Y79528D01*
X81484Y79128D01*
X81884D01*
X82284Y78728D01*
X103228Y127098D02*
X103628Y127498D01*
X104028D01*
X103628Y127898D01*
X104028Y128298D01*
X103628D01*
X103228Y128698D01*
X102828Y128298D01*
X102428D01*
X102828Y127898D01*
X102428Y127498D01*
X102828D01*
X103228Y127098D01*
X75984Y126759D02*
X76384Y127159D01*
X76784D01*
X76384Y127559D01*
X76784Y127959D01*
X76384D01*
X75984Y128359D01*
X75584Y127959D01*
X75184D01*
X75584Y127559D01*
X75184Y127159D01*
X75584D01*
X75984Y126759D01*
X89764Y79239D02*
X90164Y79639D01*
X90564D01*
X90164Y80039D01*
X90564Y80439D01*
X90164D01*
X89764Y80839D01*
X89364Y80439D01*
X88964D01*
X89364Y80039D01*
X88964Y79639D01*
X89364D01*
X89764Y79239D01*
X120472Y132665D02*
X120872Y133065D01*
X121272D01*
X120872Y133465D01*
X121272Y133865D01*
X120872D01*
X120472Y134265D01*
X120072Y133865D01*
X119672D01*
X120072Y133465D01*
X119672Y133065D01*
X120072D01*
X120472Y132665D01*
Y138570D02*
X120872Y138970D01*
X121272D01*
X120872Y139370D01*
X121272Y139770D01*
X120872D01*
X120472Y140170D01*
X120072Y139770D01*
X119672D01*
X120072Y139370D01*
X119672Y138970D01*
X120072D01*
X120472Y138570D01*
X83740Y127098D02*
X84140Y127498D01*
X84540D01*
X84140Y127898D01*
X84540Y128298D01*
X84140D01*
X83740Y128698D01*
X83340Y128298D01*
X82940D01*
X83340Y127898D01*
X82940Y127498D01*
X83340D01*
X83740Y127098D01*
X43307Y109436D02*
X43707Y109836D01*
X44107D01*
X43707Y110236D01*
X44107Y110636D01*
X43707D01*
X43307Y111036D01*
X42907Y110636D01*
X42507D01*
X42907Y110236D01*
X42507Y109836D01*
X42907D01*
X43307Y109436D01*
X38063Y132940D02*
X38463Y133340D01*
X38863D01*
X38463Y133740D01*
X38863Y134140D01*
X38463D01*
X38063Y134540D01*
X37663Y134140D01*
X37263D01*
X37663Y133740D01*
X37263Y133340D01*
X37663D01*
X38063Y132940D01*
Y127940D02*
X38463Y128340D01*
X38863D01*
X38463Y128740D01*
X38863Y129140D01*
X38463D01*
X38063Y129540D01*
X37663Y129140D01*
X37263D01*
X37663Y128740D01*
X37263Y128340D01*
X37663D01*
X38063Y127940D01*
Y117940D02*
X38463Y118340D01*
X38863D01*
X38463Y118740D01*
X38863Y119140D01*
X38463D01*
X38063Y119540D01*
X37663Y119140D01*
X37263D01*
X37663Y118740D01*
X37263Y118340D01*
X37663D01*
X38063Y117940D01*
X38878Y67310D02*
X39278Y67710D01*
X39678D01*
X39278Y68110D01*
X39678Y68510D01*
X39278D01*
X38878Y68910D01*
X38478Y68510D01*
X38078D01*
X38478Y68110D01*
X38078Y67710D01*
X38478D01*
X38878Y67310D01*
X38189Y43688D02*
X38589Y44088D01*
X38989D01*
X38589Y44488D01*
X38989Y44888D01*
X38589D01*
X38189Y45288D01*
X37789Y44888D01*
X37389D01*
X37789Y44488D01*
X37389Y44088D01*
X37789D01*
X38189Y43688D01*
Y48806D02*
X38589Y49206D01*
X38989D01*
X38589Y49606D01*
X38989Y50006D01*
X38589D01*
X38189Y50406D01*
X37789Y50006D01*
X37389D01*
X37789Y49606D01*
X37389Y49206D01*
X37789D01*
X38189Y48806D01*
X32283Y58649D02*
X32684Y59049D01*
X33084D01*
X32684Y59449D01*
X33084Y59849D01*
X32684D01*
X32283Y60249D01*
X31883Y59849D01*
X31484D01*
X31883Y59449D01*
X31484Y59049D01*
X31883D01*
X32283Y58649D01*
X29133Y20640D02*
X29533Y21040D01*
X29933D01*
X29533Y21440D01*
X29933Y21840D01*
X29533D01*
X29133Y22240D01*
X28733Y21840D01*
X28333D01*
X28733Y21440D01*
X28333Y21040D01*
X28733D01*
X29133Y20640D01*
X62992Y5204D02*
X63392Y5604D01*
X63792D01*
X63392Y6004D01*
X63792Y6404D01*
X63392D01*
X62992Y6804D01*
X62592Y6404D01*
X62192D01*
X62592Y6004D01*
X62192Y5604D01*
X62592D01*
X62992Y5204D01*
X53543D02*
X53943Y5604D01*
X54343D01*
X53943Y6004D01*
X54343Y6404D01*
X53943D01*
X53543Y6804D01*
X53143Y6404D01*
X52743D01*
X53143Y6004D01*
X52743Y5604D01*
X53143D01*
X53543Y5204D01*
X70866Y14850D02*
X71266Y15250D01*
X71666D01*
X71266Y15650D01*
X71666Y16050D01*
X71266D01*
X70866Y16450D01*
X70466Y16050D01*
X70066D01*
X70466Y15650D01*
X70066Y15250D01*
X70466D01*
X70866Y14850D01*
X89764Y49239D02*
X90164Y49639D01*
X90564D01*
X90164Y50039D01*
X90564Y50439D01*
X90164D01*
X89764Y50839D01*
X89364Y50439D01*
X88964D01*
X89364Y50039D01*
X88964Y49639D01*
X89364D01*
X89764Y49239D01*
X141401Y31472D02*
X141800Y31872D01*
X142201D01*
X141800Y32272D01*
X142201Y32672D01*
X141800D01*
X141401Y33072D01*
X141000Y32672D01*
X140601D01*
X141000Y32272D01*
X140601Y31872D01*
X141000D01*
X141401Y31472D01*
X146850Y25578D02*
X147250Y25978D01*
X147650D01*
X147250Y26378D01*
X147650Y26778D01*
X147250D01*
X146850Y27178D01*
X146450Y26778D01*
X146050D01*
X146450Y26378D01*
X146050Y25978D01*
X146450D01*
X146850Y25578D01*
X141339D02*
X141739Y25978D01*
X142139D01*
X141739Y26378D01*
X142139Y26778D01*
X141739D01*
X141339Y27178D01*
X140939Y26778D01*
X140539D01*
X140939Y26378D01*
X140539Y25978D01*
X140939D01*
X141339Y25578D01*
X125591Y35224D02*
X125991Y35624D01*
X126391D01*
X125991Y36024D01*
X126391Y36424D01*
X125991D01*
X125591Y36824D01*
X125191Y36424D01*
X124791D01*
X125191Y36024D01*
X124791Y35624D01*
X125191D01*
X125591Y35224D01*
X109252Y49239D02*
X109652Y49639D01*
X110052D01*
X109652Y50039D01*
X110052Y50439D01*
X109652D01*
X109252Y50839D01*
X108852Y50439D01*
X108452D01*
X108852Y50039D01*
X108452Y49639D01*
X108852D01*
X109252Y49239D01*
X103937Y89751D02*
X104337Y90151D01*
X104737D01*
X104337Y90551D01*
X104737Y90951D01*
X104337D01*
X103937Y91351D01*
X103537Y90951D01*
X103137D01*
X103537Y90551D01*
X103137Y90151D01*
X103537D01*
X103937Y89751D01*
X103228Y97098D02*
X103628Y97498D01*
X104028D01*
X103628Y97898D01*
X104028Y98298D01*
X103628D01*
X103228Y98698D01*
X102828Y98298D01*
X102428D01*
X102828Y97898D01*
X102428Y97498D01*
X102828D01*
X103228Y97098D01*
X109193Y79180D02*
X109593Y79580D01*
X109993D01*
X109593Y79980D01*
X109993Y80380D01*
X109593D01*
X109193Y80780D01*
X108793Y80380D01*
X108393D01*
X108793Y79980D01*
X108393Y79580D01*
X108793D01*
X109193Y79180D01*
X120669Y81877D02*
X121069Y82277D01*
X121469D01*
X121069Y82677D01*
X121469Y83077D01*
X121069D01*
X120669Y83477D01*
X120269Y83077D01*
X119869D01*
X120269Y82677D01*
X119869Y82277D01*
X120269D01*
X120669Y81877D01*
Y75578D02*
X121069Y75978D01*
X121469D01*
X121069Y76378D01*
X121469Y76778D01*
X121069D01*
X120669Y77178D01*
X120269Y76778D01*
X119869D01*
X120269Y76378D01*
X119869Y75978D01*
X120269D01*
X120669Y75578D01*
X128543Y69279D02*
X128943Y69679D01*
X129343D01*
X128943Y70079D01*
X129343Y70479D01*
X128943D01*
X128543Y70879D01*
X128143Y70479D01*
X127743D01*
X128143Y70079D01*
X127743Y69679D01*
X128143D01*
X128543Y69279D01*
X147244Y85027D02*
X147644Y85427D01*
X148044D01*
X147644Y85827D01*
X148044Y86227D01*
X147644D01*
X147244Y86627D01*
X146844Y86227D01*
X146444D01*
X146844Y85827D01*
X146444Y85427D01*
X146844D01*
X147244Y85027D01*
X145269Y184639D02*
Y184239D01*
X146069D01*
Y184639D01*
X146469D01*
Y185439D01*
X146069D01*
Y185839D01*
X145269D01*
Y185439D01*
X144869D01*
Y184639D01*
X145269D01*
X146850Y20066D02*
X147250Y20466D01*
X147650D01*
X147250Y20866D01*
X147650Y21266D01*
X147250D01*
X146850Y21666D01*
X146450Y21266D01*
X146050D01*
X146450Y20866D01*
X146050Y20466D01*
X146450D01*
X146850Y20066D01*
X150394D02*
X150794Y20466D01*
X151194D01*
X150794Y20866D01*
X151194Y21266D01*
X150794D01*
X150394Y21666D01*
X149994Y21266D01*
X149594D01*
X149994Y20866D01*
X149594Y20466D01*
X149994D01*
X150394Y20066D01*
Y25578D02*
X150794Y25978D01*
X151194D01*
X150794Y26378D01*
X151194Y26778D01*
X150794D01*
X150394Y27178D01*
X149994Y26778D01*
X149594D01*
X149994Y26378D01*
X149594Y25978D01*
X149994D01*
X150394Y25578D01*
Y31090D02*
X150794Y31490D01*
X151194D01*
X150794Y31890D01*
X151194Y32290D01*
X150794D01*
X150394Y32690D01*
X149994Y32290D01*
X149594D01*
X149994Y31890D01*
X149594Y31490D01*
X149994D01*
X150394Y31090D01*
X146850D02*
X147250Y31490D01*
X147650D01*
X147250Y31890D01*
X147650Y32290D01*
X147250D01*
X146850Y32690D01*
X146450Y32290D01*
X146050D01*
X146450Y31890D01*
X146050Y31490D01*
X146450D01*
X146850Y31090D01*
X150787Y73610D02*
X151187Y74010D01*
X151587D01*
X151187Y74410D01*
X151587Y74809D01*
X151187D01*
X150787Y75209D01*
X150387Y74809D01*
X149987D01*
X150387Y74410D01*
X149987Y74010D01*
X150387D01*
X150787Y73610D01*
Y85027D02*
X151187Y85427D01*
X151587D01*
X151187Y85827D01*
X151587Y86227D01*
X151187D01*
X150787Y86627D01*
X150387Y86227D01*
X149987D01*
X150387Y85827D01*
X149987Y85427D01*
X150387D01*
X150787Y85027D01*
Y79121D02*
X151187Y79521D01*
X151587D01*
X151187Y79921D01*
X151587Y80321D01*
X151187D01*
X150787Y80721D01*
X150387Y80321D01*
X149987D01*
X150387Y79921D01*
X149987Y79521D01*
X150387D01*
X150787Y79121D01*
X147244D02*
X147644Y79521D01*
X148044D01*
X147644Y79921D01*
X148044Y80321D01*
X147644D01*
X147244Y80721D01*
X146844Y80321D01*
X146444D01*
X146844Y79921D01*
X146444Y79521D01*
X146844D01*
X147244Y79121D01*
Y73610D02*
X147644Y74010D01*
X148044D01*
X147644Y74410D01*
X148044Y74809D01*
X147644D01*
X147244Y75209D01*
X146844Y74809D01*
X146444D01*
X146844Y74410D01*
X146444Y74010D01*
X146844D01*
X147244Y73610D01*
X151181Y130302D02*
X151581Y130702D01*
X151981D01*
X151581Y131102D01*
X151981Y131502D01*
X151581D01*
X151181Y131902D01*
X150781Y131502D01*
X150381D01*
X150781Y131102D01*
X150381Y130702D01*
X150781D01*
X151181Y130302D01*
Y141326D02*
X151581Y141726D01*
X151981D01*
X151581Y142126D01*
X151981Y142526D01*
X151581D01*
X151181Y142926D01*
X150781Y142526D01*
X150381D01*
X150781Y142126D01*
X150381Y141726D01*
X150781D01*
X151181Y141326D01*
X148031D02*
X148432Y141726D01*
X148831D01*
X148432Y142126D01*
X148831Y142526D01*
X148432D01*
X148031Y142926D01*
X147632Y142526D01*
X147231D01*
X147632Y142126D01*
X147231Y141726D01*
X147632D01*
X148031Y141326D01*
X141732Y79121D02*
X142132Y79521D01*
X142532D01*
X142132Y79921D01*
X142532Y80321D01*
X142132D01*
X141732Y80721D01*
X141332Y80321D01*
X140932D01*
X141332Y79921D01*
X140932Y79521D01*
X141332D01*
X141732Y79121D01*
Y84239D02*
X142132Y84639D01*
X142532D01*
X142132Y85039D01*
X142532Y85439D01*
X142132D01*
X141732Y85839D01*
X141332Y85439D01*
X140932D01*
X141332Y85039D01*
X140932Y84639D01*
X141332D01*
X141732Y84239D01*
Y74003D02*
X142132Y74403D01*
X142532D01*
X142132Y74803D01*
X142532Y75203D01*
X142132D01*
X141732Y75603D01*
X141332Y75203D01*
X140932D01*
X141332Y74803D01*
X140932Y74403D01*
X141332D01*
X141732Y74003D01*
X142520Y139751D02*
X142920Y140151D01*
X143320D01*
X142920Y140551D01*
X143320Y140951D01*
X142920D01*
X142520Y141351D01*
X142120Y140951D01*
X141720D01*
X142120Y140551D01*
X141720Y140151D01*
X142120D01*
X142520Y139751D01*
Y135814D02*
X142920Y136214D01*
X143320D01*
X142920Y136614D01*
X143320Y137014D01*
X142920D01*
X142520Y137414D01*
X142120Y137014D01*
X141720D01*
X142120Y136614D01*
X141720Y136214D01*
X142120D01*
X142520Y135814D01*
Y131483D02*
X142920Y131884D01*
X143320D01*
X142920Y132283D01*
X143320Y132684D01*
X142920D01*
X142520Y133083D01*
X142120Y132684D01*
X141720D01*
X142120Y132283D01*
X141720Y131884D01*
X142120D01*
X142520Y131483D01*
X151181Y135814D02*
X151581Y136214D01*
X151981D01*
X151581Y136614D01*
X151981Y137014D01*
X151581D01*
X151181Y137414D01*
X150781Y137014D01*
X150381D01*
X150781Y136614D01*
X150381Y136214D01*
X150781D01*
X151181Y135814D01*
X148031D02*
X148432Y136214D01*
X148831D01*
X148432Y136614D01*
X148831Y137014D01*
X148432D01*
X148031Y137414D01*
X147632Y137014D01*
X147231D01*
X147632Y136614D01*
X147231Y136214D01*
X147632D01*
X148031Y135814D01*
D78*
X12611Y114016D02*
X12058Y114777D01*
X11164Y114486D01*
Y113546D01*
X12058Y113255D01*
X12611Y114016D01*
X12375Y78465D02*
X11822Y79225D01*
X10928Y78935D01*
Y77994D01*
X11822Y77704D01*
X12375Y78465D01*
X104068Y187244D02*
X103515Y188005D01*
X102620Y187714D01*
Y186774D01*
X103515Y186483D01*
X104068Y187244D01*
X12217Y42362D02*
X11665Y43123D01*
X10770Y42832D01*
Y41892D01*
X11665Y41601D01*
X12217Y42362D01*
M02*
