G04*
G04 #@! TF.GenerationSoftware,Altium Limited,Altium Designer,21.9.2 (33)*
G04*
G04 Layer_Color=8388736*
%FSLAX25Y25*%
%MOIN*%
G70*
G04*
G04 #@! TF.SameCoordinates,51F14C3D-0984-4349-87D4-3E8860FF880C*
G04*
G04*
G04 #@! TF.FilePolarity,Negative*
G04*
G01*
G75*
G04:AMPARAMS|DCode=36|XSize=81.5mil|YSize=27.17mil|CornerRadius=4.87mil|HoleSize=0mil|Usage=FLASHONLY|Rotation=0.000|XOffset=0mil|YOffset=0mil|HoleType=Round|Shape=RoundedRectangle|*
%AMROUNDEDRECTD36*
21,1,0.08150,0.01742,0,0,0.0*
21,1,0.07175,0.02717,0,0,0.0*
1,1,0.00974,0.03588,-0.00871*
1,1,0.00974,-0.03588,-0.00871*
1,1,0.00974,-0.03588,0.00871*
1,1,0.00974,0.03588,0.00871*
%
%ADD36ROUNDEDRECTD36*%
%ADD37O,0.02559X0.06102*%
%ADD38O,0.06102X0.02559*%
%ADD39R,0.11400X0.03300*%
%ADD40R,0.03543X0.02756*%
%ADD41R,0.02756X0.03543*%
G04:AMPARAMS|DCode=42|XSize=43.31mil|YSize=39.37mil|CornerRadius=6.4mil|HoleSize=0mil|Usage=FLASHONLY|Rotation=90.000|XOffset=0mil|YOffset=0mil|HoleType=Round|Shape=RoundedRectangle|*
%AMROUNDEDRECTD42*
21,1,0.04331,0.02657,0,0,90.0*
21,1,0.03051,0.03937,0,0,90.0*
1,1,0.01280,0.01329,0.01526*
1,1,0.01280,0.01329,-0.01526*
1,1,0.01280,-0.01329,-0.01526*
1,1,0.01280,-0.01329,0.01526*
%
%ADD42ROUNDEDRECTD42*%
%ADD43R,0.03543X0.03937*%
G04:AMPARAMS|DCode=44|XSize=43.31mil|YSize=39.37mil|CornerRadius=6.4mil|HoleSize=0mil|Usage=FLASHONLY|Rotation=180.000|XOffset=0mil|YOffset=0mil|HoleType=Round|Shape=RoundedRectangle|*
%AMROUNDEDRECTD44*
21,1,0.04331,0.02657,0,0,180.0*
21,1,0.03051,0.03937,0,0,180.0*
1,1,0.01280,-0.01526,0.01329*
1,1,0.01280,0.01526,0.01329*
1,1,0.01280,0.01526,-0.01329*
1,1,0.01280,-0.01526,-0.01329*
%
%ADD44ROUNDEDRECTD44*%
G04:AMPARAMS|DCode=45|XSize=27.56mil|YSize=13.78mil|CornerRadius=3.94mil|HoleSize=0mil|Usage=FLASHONLY|Rotation=90.000|XOffset=0mil|YOffset=0mil|HoleType=Round|Shape=RoundedRectangle|*
%AMROUNDEDRECTD45*
21,1,0.02756,0.00591,0,0,90.0*
21,1,0.01968,0.01378,0,0,90.0*
1,1,0.00787,0.00295,0.00984*
1,1,0.00787,0.00295,-0.00984*
1,1,0.00787,-0.00295,-0.00984*
1,1,0.00787,-0.00295,0.00984*
%
%ADD45ROUNDEDRECTD45*%
G04:AMPARAMS|DCode=46|XSize=27.56mil|YSize=13.78mil|CornerRadius=3.94mil|HoleSize=0mil|Usage=FLASHONLY|Rotation=180.000|XOffset=0mil|YOffset=0mil|HoleType=Round|Shape=RoundedRectangle|*
%AMROUNDEDRECTD46*
21,1,0.02756,0.00591,0,0,180.0*
21,1,0.01968,0.01378,0,0,180.0*
1,1,0.00787,-0.00984,0.00295*
1,1,0.00787,0.00984,0.00295*
1,1,0.00787,0.00984,-0.00295*
1,1,0.00787,-0.00984,-0.00295*
%
%ADD46ROUNDEDRECTD46*%
%ADD47R,0.03937X0.03543*%
%ADD48R,0.12205X0.12205*%
%ADD49R,0.12205X0.12205*%
%ADD50R,0.06772X0.02756*%
%ADD51R,0.18425X0.19291*%
G04:AMPARAMS|DCode=52|XSize=43.31mil|YSize=23.62mil|CornerRadius=4.43mil|HoleSize=0mil|Usage=FLASHONLY|Rotation=180.000|XOffset=0mil|YOffset=0mil|HoleType=Round|Shape=RoundedRectangle|*
%AMROUNDEDRECTD52*
21,1,0.04331,0.01476,0,0,180.0*
21,1,0.03445,0.02362,0,0,180.0*
1,1,0.00886,-0.01722,0.00738*
1,1,0.00886,0.01722,0.00738*
1,1,0.00886,0.01722,-0.00738*
1,1,0.00886,-0.01722,-0.00738*
%
%ADD52ROUNDEDRECTD52*%
G04:AMPARAMS|DCode=53|XSize=43.31mil|YSize=23.62mil|CornerRadius=4.43mil|HoleSize=0mil|Usage=FLASHONLY|Rotation=270.000|XOffset=0mil|YOffset=0mil|HoleType=Round|Shape=RoundedRectangle|*
%AMROUNDEDRECTD53*
21,1,0.04331,0.01476,0,0,270.0*
21,1,0.03445,0.02362,0,0,270.0*
1,1,0.00886,-0.00738,-0.01722*
1,1,0.00886,-0.00738,0.01722*
1,1,0.00886,0.00738,0.01722*
1,1,0.00886,0.00738,-0.01722*
%
%ADD53ROUNDEDRECTD53*%
%ADD54R,0.07874X0.07874*%
%ADD55R,0.06693X0.05906*%
%ADD56R,0.01968X0.05709*%
%ADD57C,0.05512*%
%ADD58C,0.00394*%
%ADD59O,0.03937X0.07480*%
G36*
X145683Y143275D02*
X145738Y143221D01*
X145768Y143149D01*
X145768Y143110D01*
X145768Y143110D01*
Y141927D01*
X146063D01*
Y137303D01*
Y137264D01*
X146033Y137190D01*
X145977Y137135D01*
X145904Y137104D01*
X144648D01*
X144574Y137135D01*
X144518Y137190D01*
X144488Y137264D01*
X144488Y137303D01*
X144488Y137303D01*
X144488Y141927D01*
X144783D01*
X144783Y143110D01*
X144783Y143149D01*
X144813Y143221D01*
X144868Y143275D01*
X144940Y143305D01*
X144978Y143305D01*
X144978Y143305D01*
X145573Y143305D01*
X145612Y143305D01*
X145683Y143275D01*
D02*
G37*
G36*
X142815Y143307D02*
X142854D01*
X142927Y143277D01*
X142982Y143222D01*
X143012Y143149D01*
Y143110D01*
X143012Y141929D01*
X143307D01*
Y131299D01*
X143012D01*
Y130118D01*
X143012Y130118D01*
X143012Y130079D01*
X142982Y130007D01*
X142927Y129951D01*
X142854Y129921D01*
X142815Y129921D01*
X142225D01*
X142185Y129921D01*
X142113Y129951D01*
X142058Y130007D01*
X142027Y130079D01*
X142028Y130118D01*
X142027Y131299D01*
X141732D01*
Y141929D01*
X142027D01*
Y143110D01*
X142028Y143110D01*
X142028Y143149D01*
X142058Y143222D01*
X142113Y143277D01*
X142185Y143307D01*
X142224D01*
X142815Y143307D01*
X142815Y143307D01*
D02*
G37*
G36*
X148438Y143277D02*
X148494Y143222D01*
X148524Y143149D01*
Y143110D01*
Y141929D01*
X148819D01*
Y140059D01*
X152165D01*
X152165Y140059D01*
X152205D01*
X152277Y140029D01*
X152332Y139974D01*
X152362Y139901D01*
X152362Y139862D01*
X152362Y139272D01*
X152362D01*
X152362Y139233D01*
X152332Y139160D01*
X152277Y139105D01*
X152205Y139075D01*
X148819D01*
Y138091D01*
X152165D01*
Y138091D01*
X152205Y138091D01*
X152277Y138060D01*
X152332Y138005D01*
X152362Y137933D01*
Y137894D01*
X152362Y137303D01*
X152362Y137303D01*
X152362Y137264D01*
X152332Y137191D01*
X152277Y137136D01*
X152205Y137106D01*
X152165Y137106D01*
X148819Y137106D01*
Y136122D01*
X152165D01*
X152165Y136122D01*
X152205Y136122D01*
X152277Y136092D01*
X152332Y136037D01*
X152362Y135964D01*
Y135925D01*
Y135335D01*
X152362Y135335D01*
X152362Y135295D01*
X152332Y135223D01*
X152277Y135168D01*
X152205Y135138D01*
X152165Y135138D01*
X148819Y135138D01*
Y134153D01*
X152165Y134153D01*
X152166Y134153D01*
X152205Y134153D01*
X152277Y134123D01*
X152332Y134068D01*
X152362Y133996D01*
X152362Y133957D01*
Y133366D01*
X152362Y133366D01*
X152362Y133327D01*
X152332Y133255D01*
X152277Y133199D01*
X152205Y133169D01*
X152165Y133169D01*
X148819D01*
Y131299D01*
X148524D01*
Y130118D01*
Y130118D01*
Y130079D01*
X148494Y130007D01*
X148438Y129951D01*
X148366Y129921D01*
X148327Y129921D01*
X147736Y129921D01*
X147736Y129921D01*
X147697Y129921D01*
X147625Y129951D01*
X147569Y130007D01*
X147539Y130079D01*
X147539Y130118D01*
X147539Y131299D01*
X147244D01*
Y141929D01*
X147539D01*
Y143110D01*
X147539Y143149D01*
X147569Y143222D01*
X147625Y143277D01*
X147697Y143307D01*
X148366D01*
X148438Y143277D01*
D02*
G37*
G36*
X145864Y136124D02*
X145904D01*
X145977Y136094D01*
X146033Y136038D01*
X146063Y135965D01*
Y135925D01*
X146063Y131301D01*
X145768D01*
Y130118D01*
X145768D01*
X145768Y130079D01*
X145738Y130008D01*
X145683Y129953D01*
X145612Y129923D01*
X144978D01*
X144940Y129923D01*
X144868Y129953D01*
X144813Y130008D01*
X144783Y130079D01*
X144783Y130118D01*
X144783Y131301D01*
X144488D01*
X144488Y135925D01*
X144488Y135925D01*
X144488Y135965D01*
X144518Y136038D01*
X144574Y136094D01*
X144648Y136124D01*
X144687Y136124D01*
X145864Y136124D01*
X145864Y136124D01*
D02*
G37*
G36*
X144896Y86582D02*
X144951Y86528D01*
X144980Y86456D01*
X144980Y86417D01*
X144980Y86417D01*
Y85234D01*
X145276D01*
Y80610D01*
Y80571D01*
X145245Y80498D01*
X145189Y80442D01*
X145116Y80411D01*
X143860D01*
X143787Y80442D01*
X143731Y80498D01*
X143701Y80571D01*
X143701Y80610D01*
X143701Y80610D01*
X143701Y85234D01*
X143996D01*
X143996Y86417D01*
X143996Y86456D01*
X144026Y86528D01*
X144081Y86582D01*
X144152Y86612D01*
X144191Y86612D01*
X144191Y86612D01*
X144785Y86612D01*
X144824Y86612D01*
X144896Y86582D01*
D02*
G37*
G36*
X142028Y86614D02*
X142067D01*
X142139Y86584D01*
X142194Y86529D01*
X142224Y86457D01*
Y86417D01*
X142224Y85236D01*
X142520D01*
Y74606D01*
X142224D01*
Y73425D01*
X142224Y73425D01*
X142224Y73386D01*
X142194Y73314D01*
X142139Y73258D01*
X142067Y73228D01*
X142028Y73228D01*
X141437D01*
X141398Y73228D01*
X141325Y73258D01*
X141270Y73314D01*
X141240Y73386D01*
X141240Y73425D01*
X141240Y74606D01*
X140945D01*
Y85236D01*
X141240D01*
Y86417D01*
X141240Y86417D01*
X141240Y86456D01*
X141270Y86529D01*
X141325Y86584D01*
X141398Y86614D01*
X141437D01*
X142028Y86614D01*
X142028Y86614D01*
D02*
G37*
G36*
X147651Y86584D02*
X147706Y86529D01*
X147736Y86456D01*
Y86417D01*
Y85236D01*
X148031D01*
Y83366D01*
X151378D01*
X151378Y83366D01*
X151417D01*
X151489Y83336D01*
X151545Y83281D01*
X151575Y83208D01*
X151575Y83169D01*
X151575Y82579D01*
X151575D01*
X151575Y82540D01*
X151545Y82467D01*
X151489Y82412D01*
X151417Y82382D01*
X148031D01*
Y81398D01*
X151378D01*
Y81398D01*
X151417Y81398D01*
X151489Y81368D01*
X151545Y81312D01*
X151575Y81240D01*
Y81201D01*
X151575Y80610D01*
X151575Y80610D01*
X151575Y80571D01*
X151545Y80499D01*
X151489Y80443D01*
X151417Y80413D01*
X151378Y80413D01*
X148031Y80413D01*
Y79429D01*
X151378D01*
X151378Y79429D01*
X151417Y79429D01*
X151489Y79399D01*
X151545Y79344D01*
X151575Y79271D01*
Y79232D01*
Y78642D01*
X151575Y78641D01*
X151575Y78602D01*
X151545Y78530D01*
X151489Y78475D01*
X151417Y78445D01*
X151378Y78445D01*
X148031Y78445D01*
Y77461D01*
X151378Y77461D01*
X151378Y77460D01*
X151417Y77460D01*
X151490Y77430D01*
X151545Y77375D01*
X151575Y77303D01*
X151575Y77264D01*
Y76673D01*
X151575Y76673D01*
X151575Y76634D01*
X151545Y76561D01*
X151489Y76506D01*
X151417Y76476D01*
X151378Y76476D01*
X148031D01*
Y74606D01*
X147736D01*
Y73425D01*
Y73425D01*
Y73386D01*
X147706Y73314D01*
X147651Y73258D01*
X147579Y73228D01*
X147539Y73228D01*
X146949Y73228D01*
X146949Y73228D01*
X146910Y73228D01*
X146837Y73258D01*
X146782Y73314D01*
X146752Y73386D01*
X146752Y73425D01*
X146752Y74606D01*
X146457D01*
Y85236D01*
X146752D01*
Y86417D01*
X146752Y86457D01*
X146782Y86529D01*
X146837Y86584D01*
X146910Y86614D01*
X147579D01*
X147651Y86584D01*
D02*
G37*
G36*
X145077Y79431D02*
X145116D01*
X145189Y79401D01*
X145245Y79345D01*
X145276Y79272D01*
Y79232D01*
X145276Y74608D01*
X144980D01*
Y73425D01*
X144980D01*
X144980Y73386D01*
X144951Y73315D01*
X144896Y73260D01*
X144824Y73230D01*
X144191D01*
X144152Y73230D01*
X144081Y73260D01*
X144026Y73315D01*
X143996Y73386D01*
X143996Y73425D01*
X143996Y74608D01*
X143701D01*
X143701Y79232D01*
X143701Y79232D01*
X143701Y79272D01*
X143731Y79345D01*
X143787Y79401D01*
X143860Y79431D01*
X143900Y79431D01*
X145077Y79431D01*
X145077Y79431D01*
D02*
G37*
G36*
X144502Y33039D02*
X144557Y32984D01*
X144587Y32913D01*
X144587Y32874D01*
X144587Y32874D01*
Y31691D01*
X144882D01*
Y27067D01*
Y27027D01*
X144852Y26954D01*
X144796Y26898D01*
X144723Y26868D01*
X143466D01*
X143393Y26898D01*
X143337Y26954D01*
X143307Y27027D01*
X143307Y27067D01*
X143307Y27067D01*
X143307Y31691D01*
X143602D01*
X143602Y32874D01*
X143602Y32913D01*
X143632Y32984D01*
X143687Y33039D01*
X143758Y33069D01*
X143797Y33069D01*
X143797Y33069D01*
X144392Y33069D01*
X144430Y33069D01*
X144502Y33039D01*
D02*
G37*
G36*
X141634Y33071D02*
X141673D01*
X141745Y33041D01*
X141801Y32985D01*
X141831Y32913D01*
Y32874D01*
X141831Y31693D01*
X142126D01*
Y21063D01*
X141831D01*
Y19882D01*
X141831Y19882D01*
X141831Y19843D01*
X141801Y19770D01*
X141745Y19715D01*
X141673Y19685D01*
X141634Y19685D01*
X141043D01*
X141004Y19685D01*
X140932Y19715D01*
X140876Y19770D01*
X140847Y19843D01*
X140847Y19882D01*
X140847Y21063D01*
X140551D01*
Y31693D01*
X140847D01*
Y32874D01*
X140847Y32874D01*
X140847Y32913D01*
X140876Y32985D01*
X140932Y33041D01*
X141004Y33071D01*
X141043D01*
X141634Y33071D01*
X141634Y33071D01*
D02*
G37*
G36*
X147257Y33041D02*
X147313Y32985D01*
X147343Y32913D01*
Y32874D01*
Y31693D01*
X147638D01*
Y29823D01*
X150984D01*
X150984Y29823D01*
X151023D01*
X151096Y29793D01*
X151151Y29737D01*
X151181Y29665D01*
X151181Y29626D01*
X151181Y29035D01*
X151181D01*
X151181Y28996D01*
X151151Y28924D01*
X151096Y28868D01*
X151023Y28839D01*
X147638D01*
Y27854D01*
X150984D01*
Y27854D01*
X151023Y27854D01*
X151096Y27824D01*
X151151Y27769D01*
X151181Y27697D01*
Y27657D01*
X151181Y27067D01*
X151181Y27067D01*
X151181Y27028D01*
X151151Y26955D01*
X151096Y26900D01*
X151023Y26870D01*
X150984Y26870D01*
X147638Y26870D01*
Y25886D01*
X150984D01*
X150984Y25886D01*
X151023Y25886D01*
X151096Y25856D01*
X151151Y25800D01*
X151181Y25728D01*
Y25689D01*
Y25098D01*
X151181Y25098D01*
X151181Y25059D01*
X151151Y24987D01*
X151096Y24931D01*
X151023Y24902D01*
X150984Y24902D01*
X147638Y24902D01*
Y23917D01*
X150984Y23917D01*
X150985Y23917D01*
X151024Y23917D01*
X151096Y23887D01*
X151151Y23832D01*
X151181Y23760D01*
X151181Y23720D01*
Y23130D01*
X151181Y23130D01*
X151181Y23091D01*
X151151Y23018D01*
X151096Y22963D01*
X151023Y22933D01*
X150984Y22933D01*
X147638D01*
Y21063D01*
X147343D01*
Y19882D01*
Y19882D01*
Y19843D01*
X147313Y19770D01*
X147257Y19715D01*
X147185Y19685D01*
X147146Y19685D01*
X146555Y19685D01*
X146555Y19685D01*
X146516Y19685D01*
X146444Y19715D01*
X146388Y19770D01*
X146358Y19843D01*
X146358Y19882D01*
X146358Y21063D01*
X146063D01*
Y31693D01*
X146358D01*
Y32874D01*
X146358Y32913D01*
X146388Y32985D01*
X146444Y33041D01*
X146516Y33071D01*
X147185D01*
X147257Y33041D01*
D02*
G37*
G36*
X144683Y25888D02*
X144723D01*
X144796Y25857D01*
X144852Y25802D01*
X144882Y25728D01*
Y25689D01*
X144882Y21065D01*
X144587D01*
Y19882D01*
X144587D01*
X144587Y19843D01*
X144557Y19771D01*
X144502Y19717D01*
X144430Y19687D01*
X143797D01*
X143758Y19687D01*
X143687Y19717D01*
X143632Y19771D01*
X143602Y19843D01*
X143602Y19882D01*
X143602Y21065D01*
X143307D01*
X143307Y25689D01*
X143307Y25689D01*
X143307Y25728D01*
X143337Y25802D01*
X143393Y25857D01*
X143466Y25888D01*
X143506Y25888D01*
X144683Y25888D01*
X144683Y25888D01*
D02*
G37*
D36*
X103228Y132898D02*
D03*
Y127898D02*
D03*
Y122898D02*
D03*
Y117898D02*
D03*
Y112898D02*
D03*
Y107898D02*
D03*
Y102898D02*
D03*
Y97898D02*
D03*
X83740D02*
D03*
Y102898D02*
D03*
Y107898D02*
D03*
Y112898D02*
D03*
Y117898D02*
D03*
Y122898D02*
D03*
Y127898D02*
D03*
Y132898D02*
D03*
X109252Y85039D02*
D03*
Y80039D02*
D03*
Y75039D02*
D03*
Y70039D02*
D03*
Y65039D02*
D03*
Y60039D02*
D03*
Y55039D02*
D03*
Y50039D02*
D03*
X89764D02*
D03*
Y55039D02*
D03*
Y60039D02*
D03*
Y65039D02*
D03*
Y70039D02*
D03*
Y75039D02*
D03*
Y80039D02*
D03*
Y85039D02*
D03*
D37*
X66535Y89468D02*
D03*
X63386D02*
D03*
X60236D02*
D03*
X57087D02*
D03*
X53937D02*
D03*
X50787D02*
D03*
X47638D02*
D03*
X44488D02*
D03*
Y56201D02*
D03*
X47638D02*
D03*
X50787D02*
D03*
X53937D02*
D03*
X57087D02*
D03*
X60236D02*
D03*
X63386D02*
D03*
X66535D02*
D03*
D38*
X38878Y83858D02*
D03*
Y80709D02*
D03*
Y77559D02*
D03*
Y74410D02*
D03*
Y71260D02*
D03*
Y68110D02*
D03*
Y64961D02*
D03*
Y61811D02*
D03*
X72146D02*
D03*
Y64961D02*
D03*
Y68110D02*
D03*
Y71260D02*
D03*
Y74410D02*
D03*
Y77559D02*
D03*
Y80709D02*
D03*
Y83858D02*
D03*
D39*
X54063Y118740D02*
D03*
X38063D02*
D03*
X54063Y123740D02*
D03*
X38063D02*
D03*
X54063Y128740D02*
D03*
X38063D02*
D03*
X54063Y133740D02*
D03*
X38063D02*
D03*
X54063Y138740D02*
D03*
X38063D02*
D03*
D40*
X115354Y12303D02*
D03*
Y6594D02*
D03*
X134646Y108366D02*
D03*
Y102657D02*
D03*
D41*
X135531Y58661D02*
D03*
X129823D02*
D03*
X87500Y29921D02*
D03*
X81791D02*
D03*
D42*
X129724Y53543D02*
D03*
X136417D02*
D03*
X110039Y6693D02*
D03*
X103347D02*
D03*
X123425Y102362D02*
D03*
X116732D02*
D03*
X87992Y35433D02*
D03*
X81299D02*
D03*
X136221Y126772D02*
D03*
X129528D02*
D03*
X127165Y139370D02*
D03*
X120472D02*
D03*
X127165Y133465D02*
D03*
X120472D02*
D03*
X135236Y70079D02*
D03*
X128543D02*
D03*
X127362Y82677D02*
D03*
X120669D02*
D03*
Y76378D02*
D03*
X127362D02*
D03*
D43*
X72047Y97638D02*
D03*
X66535D02*
D03*
X43701Y44488D02*
D03*
X38189D02*
D03*
X45276Y23622D02*
D03*
X39764D02*
D03*
X48819Y110236D02*
D03*
X43307D02*
D03*
X31890Y5906D02*
D03*
X26378D02*
D03*
X31890Y27953D02*
D03*
X26378D02*
D03*
X109449Y90551D02*
D03*
X103937D02*
D03*
X43701Y49606D02*
D03*
X38189D02*
D03*
D44*
X125591Y23622D02*
D03*
Y16929D02*
D03*
Y36024D02*
D03*
Y29331D02*
D03*
X131496Y17323D02*
D03*
Y10630D02*
D03*
D45*
X140256Y142126D02*
D03*
X138287D02*
D03*
X136319D02*
D03*
Y131102D02*
D03*
X140256D02*
D03*
X138287D02*
D03*
X139469Y85433D02*
D03*
X137500D02*
D03*
X135531D02*
D03*
Y74410D02*
D03*
X139469D02*
D03*
X137500D02*
D03*
X139075Y31890D02*
D03*
X137106D02*
D03*
X135138D02*
D03*
Y20866D02*
D03*
X139075D02*
D03*
X137106D02*
D03*
D46*
X134252Y139567D02*
D03*
Y135630D02*
D03*
Y137598D02*
D03*
Y133661D02*
D03*
X133465Y82874D02*
D03*
Y78937D02*
D03*
Y80905D02*
D03*
Y76968D02*
D03*
X133071Y29331D02*
D03*
Y25394D02*
D03*
Y27362D02*
D03*
Y23425D02*
D03*
D47*
X75984Y133071D02*
D03*
Y127559D02*
D03*
X112598Y24803D02*
D03*
Y19291D02*
D03*
X103150Y24803D02*
D03*
Y19291D02*
D03*
X82284Y85039D02*
D03*
Y79528D02*
D03*
X32283Y64961D02*
D03*
Y59449D02*
D03*
X111024Y133071D02*
D03*
Y127559D02*
D03*
D48*
X148819Y12598D02*
D03*
Y66142D02*
D03*
X150394Y150787D02*
D03*
X144488Y93701D02*
D03*
X148425Y122441D02*
D03*
X144095Y40157D02*
D03*
D49*
X105905Y163386D02*
D03*
X150394Y166535D02*
D03*
D50*
X139173Y160886D02*
D03*
Y165886D02*
D03*
Y155886D02*
D03*
Y170886D02*
D03*
D51*
X124567Y163386D02*
D03*
D52*
X103366Y37992D02*
D03*
Y30512D02*
D03*
X112382Y37992D02*
D03*
Y34252D02*
D03*
Y30512D02*
D03*
X52579Y30906D02*
D03*
Y23425D02*
D03*
X61594Y30906D02*
D03*
Y27165D02*
D03*
Y23425D02*
D03*
D53*
X25393Y12424D02*
D03*
X32873D02*
D03*
X25393Y21440D02*
D03*
X29133D02*
D03*
X32873D02*
D03*
D54*
X62992Y6004D02*
D03*
X53543D02*
D03*
D55*
X70866Y15650D02*
D03*
X45669D02*
D03*
D56*
X63386Y16535D02*
D03*
X60827D02*
D03*
X58268D02*
D03*
X55709D02*
D03*
X53150D02*
D03*
D57*
X18898Y119528D02*
D03*
Y129528D02*
D03*
X8898Y124528D02*
D03*
Y134528D02*
D03*
X18661Y83976D02*
D03*
X8661Y98976D02*
D03*
X18661Y93976D02*
D03*
X8661Y88976D02*
D03*
X123779Y190157D02*
D03*
X118780Y180157D02*
D03*
X113779Y190157D02*
D03*
X108780Y180157D02*
D03*
X18504Y47874D02*
D03*
X8504Y62874D02*
D03*
X18504Y57874D02*
D03*
X8504Y52874D02*
D03*
D58*
X11811Y114016D02*
D03*
X11575Y78465D02*
D03*
X103268Y187244D02*
D03*
X11417Y42362D02*
D03*
D59*
X71260Y6004D02*
D03*
X45276D02*
D03*
M02*
