G04*
G04 #@! TF.GenerationSoftware,Altium Limited,Altium Designer,21.9.2 (33)*
G04*
G04 Layer_Color=128*
%FSLAX25Y25*%
%MOIN*%
G70*
G04*
G04 #@! TF.SameCoordinates,51F14C3D-0984-4349-87D4-3E8860FF880C*
G04*
G04*
G04 #@! TF.FilePolarity,Positive*
G04*
G01*
G75*
%ADD77C,0.00200*%
D77*
X17323Y119528D02*
X20472D01*
X18898Y117953D02*
Y121102D01*
X17323Y129528D02*
X20472D01*
X18898Y127953D02*
Y131102D01*
X7323Y124528D02*
X10472D01*
X8898Y122953D02*
Y126102D01*
X8858Y114016D02*
X14764D01*
X11811Y111063D02*
Y116969D01*
X7323Y134528D02*
X10472D01*
X8898Y132953D02*
Y136102D01*
X17087Y83976D02*
X20236D01*
X18661Y82402D02*
Y85551D01*
X7087Y98976D02*
X10236D01*
X8661Y97402D02*
Y100551D01*
X17087Y93976D02*
X20236D01*
X18661Y92402D02*
Y95551D01*
X8622Y78465D02*
X14528D01*
X11575Y75512D02*
Y81417D01*
X7087Y88976D02*
X10236D01*
X8661Y87402D02*
Y90551D01*
X100315Y187244D02*
X106220D01*
X103268Y184291D02*
Y190197D01*
X122205Y190157D02*
X125354D01*
X123779Y188583D02*
Y191732D01*
X117205Y180157D02*
X120354D01*
X118780Y178583D02*
Y181732D01*
X112205Y190157D02*
X115354D01*
X113779Y188583D02*
Y191732D01*
X107205Y180157D02*
X110354D01*
X108780Y178583D02*
Y181732D01*
X16929Y47874D02*
X20079D01*
X18504Y46299D02*
Y49449D01*
X6929Y62874D02*
X10079D01*
X8504Y61299D02*
Y64449D01*
X16929Y57874D02*
X20079D01*
X18504Y56299D02*
Y59449D01*
X8465Y42362D02*
X14370D01*
X11417Y39410D02*
Y45315D01*
X6929Y52874D02*
X10079D01*
X8504Y51299D02*
Y54449D01*
X70276Y6004D02*
X72244D01*
X71260Y5020D02*
Y6988D01*
X44291Y6004D02*
X46260D01*
X45276Y5020D02*
Y6988D01*
X140945Y20866D02*
X141732D01*
X141339Y20472D02*
Y21260D01*
X141732Y155512D02*
X142520D01*
X142126Y155118D02*
Y155905D01*
X135827Y155512D02*
X136614D01*
X136221Y155118D02*
Y155905D01*
X142126Y165748D02*
X142913D01*
X142520Y165354D02*
Y166142D01*
X135827Y165748D02*
X136614D01*
X136221Y165354D02*
Y166142D01*
X142126Y160630D02*
X142913D01*
X142520Y160236D02*
Y161024D01*
X135827Y160630D02*
X136614D01*
X136221Y160236D02*
Y161024D01*
X138779Y155886D02*
X139567D01*
X139173Y155492D02*
Y156280D01*
X138779Y160886D02*
X139567D01*
X139173Y160492D02*
Y161279D01*
X138779Y165886D02*
X139567D01*
X139173Y165492D02*
Y166279D01*
X111988Y34252D02*
X112776D01*
X112382Y33858D02*
Y34646D01*
X126969Y46457D02*
X128150D01*
X127559Y45866D02*
Y47047D01*
X121457Y67323D02*
X122638D01*
X122047Y66732D02*
Y67913D01*
X123031Y62205D02*
X124213D01*
X123622Y61614D02*
Y62795D01*
X121063Y31890D02*
X122244D01*
X121653Y31299D02*
Y32480D01*
X115945Y31890D02*
X117126D01*
X116535Y31299D02*
Y32480D01*
X102559Y24803D02*
X103740D01*
X103150Y24213D02*
Y25394D01*
X102756Y19291D02*
X103543D01*
X103150Y18898D02*
Y19685D01*
X102559Y14567D02*
X103740D01*
X103150Y13976D02*
Y15157D01*
X127362Y109843D02*
X128543D01*
X127953Y109252D02*
Y110433D01*
X123819Y114567D02*
X125000D01*
X124409Y113976D02*
Y115157D01*
X127691Y127525D02*
X128478D01*
X128085Y127132D02*
Y127919D01*
X81201Y29921D02*
X82382D01*
X81791Y29331D02*
Y30512D01*
X76968Y41339D02*
X78150D01*
X77559Y40748D02*
Y41929D01*
X63976Y47244D02*
X65158D01*
X64567Y46654D02*
Y47835D01*
X67913Y50394D02*
X69095D01*
X68504Y49803D02*
Y50984D01*
X56458Y82715D02*
X57639D01*
X57049Y82125D02*
Y83306D01*
X53347Y62205D02*
X54528D01*
X53937Y61614D02*
Y62795D01*
X59646Y98425D02*
X60827D01*
X60236Y97835D02*
Y99016D01*
X61145Y51772D02*
X62326D01*
X61735Y51181D02*
Y52362D01*
X53778Y50432D02*
X54959D01*
X54369Y49841D02*
Y51022D01*
X50159Y50432D02*
X51340D01*
X50749Y49841D02*
Y51022D01*
X71752Y83858D02*
X72539D01*
X72146Y83465D02*
Y84252D01*
X75749Y61849D02*
X76931D01*
X76340Y61258D02*
Y62439D01*
X80905Y35433D02*
X81693D01*
X81299Y35039D02*
Y35827D01*
X5906Y185039D02*
X17717D01*
X11811Y179134D02*
Y190945D01*
X121653Y58661D02*
X122441D01*
X122047Y58268D02*
Y59055D01*
X115354Y51181D02*
X116142D01*
X115748Y50787D02*
Y51575D01*
X116339Y64567D02*
X117520D01*
X116929Y63976D02*
Y65158D01*
X113976Y112992D02*
X115157D01*
X114567Y112402D02*
Y113583D01*
X112598Y107874D02*
X113386D01*
X112992Y107480D02*
Y108268D01*
X108858Y98819D02*
X110039D01*
X109449Y98228D02*
Y99410D01*
X44685Y23622D02*
X45866D01*
X45276Y23031D02*
Y24213D01*
X39272Y23622D02*
X40059D01*
X39665Y23228D02*
Y24016D01*
X131102Y10630D02*
X131890D01*
X131496Y10236D02*
Y11024D01*
X112205Y19291D02*
X112992D01*
X112598Y18898D02*
Y19685D01*
X125197Y16929D02*
X125984D01*
X125591Y16535D02*
Y17323D01*
X61024Y27165D02*
X61811D01*
X61417Y26772D02*
Y27559D01*
X62894Y16535D02*
X63681D01*
X63287Y16142D02*
Y16929D01*
X112008Y24803D02*
X113189D01*
X112598Y24213D02*
Y25394D01*
X147638Y131102D02*
X148425D01*
X148031Y130709D02*
Y131496D01*
X110433Y133071D02*
X111614D01*
X111024Y132480D02*
Y133661D01*
X111713Y127559D02*
X112500D01*
X112106Y127165D02*
Y127953D01*
X88779Y85039D02*
X89961D01*
X89370Y84449D02*
Y85630D01*
X69882Y92520D02*
X71063D01*
X70472Y91929D02*
Y93110D01*
X62795Y138386D02*
X63976D01*
X63386Y137795D02*
Y138976D01*
X71653Y97638D02*
X72441D01*
X72047Y97244D02*
Y98032D01*
X83346Y97898D02*
X84134D01*
X83740Y97504D02*
Y98291D01*
X74213Y107874D02*
X75394D01*
X74803Y107283D02*
Y108465D01*
X18701Y16535D02*
X19882D01*
X19291Y15945D02*
Y17126D01*
X24999Y9941D02*
X25787D01*
X25393Y9547D02*
Y10335D01*
X32087Y12598D02*
X33268D01*
X32677Y12008D02*
Y13189D01*
X45276Y15650D02*
X46063D01*
X45669Y15256D02*
Y16043D01*
X43110Y40945D02*
X44291D01*
X43701Y40354D02*
Y41535D01*
X27362Y138583D02*
X28543D01*
X27953Y137992D02*
Y139173D01*
X38484Y61811D02*
X39272D01*
X38878Y61417D02*
Y62205D01*
X43898Y66535D02*
X45079D01*
X44488Y65945D02*
Y67126D01*
X50825Y69844D02*
X52006D01*
X51416Y69253D02*
Y70435D01*
X45472Y70866D02*
X46654D01*
X46063Y70276D02*
Y71457D01*
X47047Y81890D02*
X48228D01*
X47638Y81299D02*
Y82480D01*
X48228Y105905D02*
X49409D01*
X48819Y105315D02*
Y106496D01*
X82874Y107874D02*
X84055D01*
X83465Y107283D02*
Y108465D01*
X50197Y97244D02*
X51378D01*
X50787Y96653D02*
Y97835D01*
X53347Y96063D02*
X54528D01*
X53937Y95472D02*
Y96653D01*
X83150Y112898D02*
X84331D01*
X83740Y112307D02*
Y113488D01*
X74213Y112598D02*
X75394D01*
X74803Y112008D02*
Y113189D01*
X65945Y133858D02*
X67126D01*
X66535Y133268D02*
Y134449D01*
X65945Y64173D02*
X67126D01*
X66535Y63583D02*
Y64764D01*
X62795Y62598D02*
X63976D01*
X63386Y62008D02*
Y63189D01*
X77362Y68110D02*
X78543D01*
X77953Y67520D02*
Y68701D01*
X89173Y59842D02*
X90354D01*
X89764Y59252D02*
Y60433D01*
X83306Y65786D02*
X84487D01*
X83896Y65195D02*
Y66376D01*
X89173Y75039D02*
X90354D01*
X89764Y74449D02*
Y75630D01*
X47047Y47638D02*
X48228D01*
X47638Y47047D02*
Y48228D01*
X25984Y27953D02*
X26772D01*
X26378Y27559D02*
Y28346D01*
X25984Y5906D02*
X26772D01*
X26378Y5512D02*
Y6299D01*
X153937Y166535D02*
X154724D01*
X154331Y166142D02*
Y166929D01*
X146063Y166535D02*
X146850D01*
X146457Y166142D02*
Y166929D01*
X146063Y162598D02*
X146850D01*
X146457Y162205D02*
Y162992D01*
X150000Y162598D02*
X150787D01*
X150394Y162205D02*
Y162992D01*
X153937Y162598D02*
X154724D01*
X154331Y162205D02*
Y162992D01*
X153937Y170472D02*
X154724D01*
X154331Y170079D02*
Y170866D01*
X146063Y170472D02*
X146850D01*
X146457Y170079D02*
Y170866D01*
X150000Y170472D02*
X150787D01*
X150394Y170079D02*
Y170866D01*
X150000Y166535D02*
X150787D01*
X150394Y166142D02*
Y166929D01*
X81890Y79528D02*
X82677D01*
X82284Y79134D02*
Y79921D01*
X102835Y127898D02*
X103622D01*
X103228Y127504D02*
Y128291D01*
X75591Y127559D02*
X76378D01*
X75984Y127165D02*
Y127953D01*
X89370Y80039D02*
X90158D01*
X89764Y79646D02*
Y80433D01*
X120079Y133465D02*
X120866D01*
X120472Y133071D02*
Y133858D01*
X120079Y139370D02*
X120866D01*
X120472Y138976D02*
Y139764D01*
X83346Y127898D02*
X84134D01*
X83740Y127504D02*
Y128291D01*
X42913Y110236D02*
X43701D01*
X43307Y109843D02*
Y110630D01*
X37669Y133740D02*
X38457D01*
X38063Y133346D02*
Y134134D01*
X37669Y128740D02*
X38457D01*
X38063Y128347D02*
Y129134D01*
X37669Y118740D02*
X38457D01*
X38063Y118347D02*
Y119134D01*
X38484Y68110D02*
X39272D01*
X38878Y67716D02*
Y68504D01*
X37795Y44488D02*
X38583D01*
X38189Y44094D02*
Y44882D01*
X37795Y49606D02*
X38583D01*
X38189Y49213D02*
Y50000D01*
X31890Y59449D02*
X32677D01*
X32283Y59055D02*
Y59842D01*
X28740Y21440D02*
X29527D01*
X29133Y21046D02*
Y21834D01*
X62598Y6004D02*
X63386D01*
X62992Y5610D02*
Y6398D01*
X53150Y6004D02*
X53937D01*
X53543Y5610D02*
Y6398D01*
X70473Y15650D02*
X71260D01*
X70866Y15256D02*
Y16043D01*
X89370Y50039D02*
X90158D01*
X89764Y49646D02*
Y50433D01*
X141007Y32272D02*
X141794D01*
X141401Y31879D02*
Y32666D01*
X146457Y26378D02*
X147244D01*
X146850Y25984D02*
Y26772D01*
X140945Y26378D02*
X141732D01*
X141339Y25984D02*
Y26772D01*
X125197Y36024D02*
X125984D01*
X125591Y35630D02*
Y36417D01*
X108858Y50039D02*
X109646D01*
X109252Y49646D02*
Y50433D01*
X103543Y90551D02*
X104331D01*
X103937Y90158D02*
Y90945D01*
X102835Y97898D02*
X103622D01*
X103228Y97504D02*
Y98291D01*
X108799Y79980D02*
X109587D01*
X109193Y79587D02*
Y80374D01*
X120276Y82677D02*
X121063D01*
X120669Y82284D02*
Y83071D01*
X120276Y76378D02*
X121063D01*
X120669Y75984D02*
Y76772D01*
X128150Y70079D02*
X128937D01*
X128543Y69685D02*
Y70472D01*
X146850Y85827D02*
X147638D01*
X147244Y85433D02*
Y86221D01*
X139764Y185039D02*
X151575D01*
X145669Y179134D02*
Y190945D01*
X146457Y20866D02*
X147244D01*
X146850Y20472D02*
Y21260D01*
X150000Y20866D02*
X150787D01*
X150394Y20472D02*
Y21260D01*
X150000Y26378D02*
X150787D01*
X150394Y25984D02*
Y26772D01*
X150000Y31890D02*
X150787D01*
X150394Y31496D02*
Y32283D01*
X146457Y31890D02*
X147244D01*
X146850Y31496D02*
Y32283D01*
X150394Y74410D02*
X151181D01*
X150787Y74016D02*
Y74803D01*
X150394Y85827D02*
X151181D01*
X150787Y85433D02*
Y86221D01*
X150394Y79921D02*
X151181D01*
X150787Y79528D02*
Y80315D01*
X146850Y79921D02*
X147638D01*
X147244Y79528D02*
Y80315D01*
X146850Y74410D02*
X147638D01*
X147244Y74016D02*
Y74803D01*
X150787Y131102D02*
X151575D01*
X151181Y130709D02*
Y131496D01*
X150787Y142126D02*
X151575D01*
X151181Y141732D02*
Y142520D01*
X147638Y142126D02*
X148425D01*
X148031Y141732D02*
Y142520D01*
X141339Y79921D02*
X142126D01*
X141732Y79528D02*
Y80315D01*
X141339Y85039D02*
X142126D01*
X141732Y84646D02*
Y85433D01*
X141339Y74803D02*
X142126D01*
X141732Y74410D02*
Y75197D01*
X142126Y140551D02*
X142913D01*
X142520Y140157D02*
Y140945D01*
X142126Y136614D02*
X142913D01*
X142520Y136221D02*
Y137008D01*
X142126Y132283D02*
X142913D01*
X142520Y131890D02*
Y132677D01*
X150787Y136614D02*
X151575D01*
X151181Y136221D02*
Y137008D01*
X147638Y136614D02*
X148425D01*
X148031Y136221D02*
Y137008D01*
M02*
