G04*
G04 #@! TF.GenerationSoftware,Altium Limited,Altium Designer,21.9.2 (33)*
G04*
G04 Layer_Physical_Order=4*
G04 Layer_Color=16711680*
%FSLAX25Y25*%
%MOIN*%
G70*
G04*
G04 #@! TF.SameCoordinates,6D25873D-4EA7-46F0-BCAE-82CFCE844350*
G04*
G04*
G04 #@! TF.FilePolarity,Positive*
G04*
G01*
G75*
%ADD10C,0.00787*%
%ADD12C,0.02362*%
%ADD20R,0.03150X0.03543*%
%ADD62C,0.01181*%
%ADD63C,0.03543*%
%ADD64C,0.01968*%
%ADD66C,0.05118*%
%ADD67O,0.03543X0.07087*%
%ADD68C,0.01772*%
%ADD69C,0.02362*%
%ADD70C,0.21654*%
%ADD71R,0.04331X0.06693*%
G36*
X156677Y803D02*
X145669D01*
Y7677D01*
Y15945D01*
Y23819D01*
Y28543D01*
Y36811D01*
Y146063D01*
Y146457D01*
X156677D01*
Y803D01*
D02*
G37*
G36*
X144882Y171043D02*
X144783Y170805D01*
Y170140D01*
X144882Y169902D01*
Y167106D01*
X144783Y166868D01*
Y166203D01*
X144882Y165965D01*
Y163169D01*
X144783Y162931D01*
Y162266D01*
X144882Y162028D01*
Y82480D01*
Y77362D01*
Y28937D01*
Y23819D01*
Y1969D01*
X110630D01*
Y18365D01*
X111130Y18464D01*
X111180Y18343D01*
X111651Y17873D01*
X112266Y17618D01*
X112931D01*
X113546Y17873D01*
X114017Y18343D01*
X114272Y18959D01*
Y19624D01*
X114017Y20239D01*
X113546Y20710D01*
X112931Y20965D01*
X112266D01*
X111651Y20710D01*
X111180Y20239D01*
X111130Y20118D01*
X110630Y20218D01*
Y27165D01*
X129921D01*
Y69090D01*
X129962Y69131D01*
X130217Y69746D01*
Y70412D01*
X129962Y71026D01*
X129921Y71067D01*
Y172835D01*
X144882D01*
Y171043D01*
D02*
G37*
%LPC*%
G36*
X125923Y18602D02*
X125258D01*
X124643Y18348D01*
X124172Y17877D01*
X123917Y17262D01*
Y16596D01*
X124172Y15981D01*
X124643Y15511D01*
X125258Y15256D01*
X125923D01*
X126538Y15511D01*
X127009Y15981D01*
X127264Y16596D01*
Y17262D01*
X127009Y17877D01*
X126538Y18348D01*
X125923Y18602D01*
D02*
G37*
G36*
X131829Y12303D02*
X131163D01*
X130548Y12048D01*
X130078Y11578D01*
X129823Y10963D01*
Y10297D01*
X130078Y9682D01*
X130548Y9211D01*
X131163Y8957D01*
X131829D01*
X132444Y9211D01*
X132915Y9682D01*
X133169Y10297D01*
Y10963D01*
X132915Y11578D01*
X132444Y12048D01*
X131829Y12303D01*
D02*
G37*
%LPD*%
D10*
X122047Y67132D02*
Y67323D01*
X123622Y62205D02*
Y65557D01*
X122047Y67132D02*
X123622Y65557D01*
X116535Y31890D02*
X121653D01*
X124409Y114557D02*
Y114567D01*
Y114557D02*
X126075Y112891D01*
Y111721D02*
Y112891D01*
Y111721D02*
X127953Y109843D01*
X122047Y57480D02*
Y58661D01*
X115748Y51181D02*
X122047Y57480D01*
X112992Y68504D02*
X116929Y64567D01*
X112992Y68504D02*
Y107874D01*
D12*
X151772Y121653D02*
Y129921D01*
X153347Y11811D02*
Y19685D01*
X152165Y65354D02*
Y73622D01*
D20*
X147244Y26378D02*
D03*
X141732D02*
D03*
X147244Y79921D02*
D03*
X141732D02*
D03*
X148031Y136614D02*
D03*
X142520D02*
D03*
D62*
X77559Y34154D02*
Y41339D01*
Y34154D02*
X81791Y29921D01*
X53937Y47244D02*
X64567D01*
X62795Y49213D02*
X63583Y50000D01*
X65627Y44685D02*
X68383Y47441D01*
X64491Y50000D02*
X76340Y61849D01*
X53712Y44685D02*
X65627D01*
X68383Y50273D02*
X68504Y50394D01*
X63583Y50000D02*
X64491D01*
X68383Y47441D02*
Y50273D01*
X58193Y50432D02*
X59412Y49213D01*
X57049Y56458D02*
X61735Y51772D01*
X57049Y56458D02*
Y82715D01*
X53975Y66846D02*
Y81163D01*
X53937Y66808D02*
X53975Y66846D01*
X53937Y62205D02*
Y66808D01*
X52485Y98622D02*
X60039D01*
X60236Y98425D01*
X59412Y49213D02*
X62795D01*
X54369Y50432D02*
X58193D01*
X50749D02*
X53937Y47244D01*
X47638Y47638D02*
X50759D01*
X53712Y44685D01*
X50749Y50432D02*
X50749D01*
X114567Y112992D02*
Y150446D01*
X113779Y151233D02*
X114567Y150446D01*
X113779Y151233D02*
Y190157D01*
X8661Y98976D02*
X22284D01*
X51416Y69844D01*
X18661Y93976D02*
X32022Y80615D01*
Y80615D02*
Y80615D01*
Y80615D02*
X41772Y70866D01*
X46063D01*
X8814Y62564D02*
X36430D01*
X8504Y62874D02*
X8814Y62564D01*
X36430D02*
X39163Y65298D01*
X63386Y62598D02*
Y138386D01*
X66535Y64173D02*
Y133858D01*
X74803Y107874D02*
X83465D01*
X44169Y66535D02*
X44488D01*
X42931Y65298D02*
X44169Y66535D01*
X39163Y65298D02*
X42931D01*
X53937Y81201D02*
X53975Y81163D01*
X53937Y81201D02*
Y96063D01*
X47638Y97714D02*
X48819Y98895D01*
Y105905D01*
X47638Y81890D02*
Y97714D01*
X50787Y97244D02*
X51107D01*
X52485Y98622D01*
X83591Y112748D02*
X83740Y112898D01*
X74803Y112598D02*
X74953Y112748D01*
X83591D01*
X77953Y68110D02*
X86221Y59842D01*
X89764D01*
X83896Y65786D02*
X89764Y71653D01*
Y75039D01*
D63*
X141240Y87106D02*
X141339Y87008D01*
X141240Y87106D02*
Y121555D01*
X141142Y121653D02*
X141240Y121555D01*
X142717Y32677D02*
Y33858D01*
X141535Y35039D02*
Y65354D01*
Y73622D01*
Y35039D02*
X142717Y33858D01*
X118110Y7981D02*
X120186Y5906D01*
X136811D01*
X118110Y7981D02*
Y21260D01*
X114567Y24803D02*
X118110Y21260D01*
X112598Y24803D02*
X114567D01*
X141142Y10236D02*
X142323D01*
X142717Y10630D02*
Y11811D01*
X142323Y10236D02*
X142717Y10630D01*
X136811Y5906D02*
X141142Y10236D01*
X142717Y11811D02*
Y19685D01*
X141142Y121653D02*
Y129921D01*
D64*
X103150Y24803D02*
Y42126D01*
X107480Y46457D01*
X127559D01*
X106693Y18110D02*
Y21260D01*
X103150Y24803D02*
X106693Y21260D01*
X103150Y14567D02*
X106693Y18110D01*
X109449Y131389D02*
X111024Y132964D01*
X109449Y98819D02*
Y131389D01*
X111024Y132964D02*
Y133071D01*
X43701Y32283D02*
Y40945D01*
X42323Y30906D02*
X43701Y32283D01*
X42323Y22244D02*
Y30906D01*
X32677Y12598D02*
X42323Y22244D01*
X14567Y131321D02*
X17104Y133858D01*
X22953Y138583D02*
X27953D01*
X8898Y124528D02*
X14567Y130197D01*
X18228Y133858D02*
X22953Y138583D01*
X17104Y133858D02*
X18228D01*
X14567Y130197D02*
Y131321D01*
X81890Y92520D02*
X89370Y85039D01*
X70472Y92520D02*
X81890D01*
X19291Y16535D02*
X23228Y12598D01*
X32677D01*
D66*
X18898Y119528D02*
D03*
Y129528D02*
D03*
X8898Y124528D02*
D03*
Y134528D02*
D03*
X18661Y83976D02*
D03*
X8661Y98976D02*
D03*
X18661Y93976D02*
D03*
X8661Y88976D02*
D03*
X123779Y190157D02*
D03*
X118780Y180157D02*
D03*
X113779Y190157D02*
D03*
X108780Y180157D02*
D03*
X18504Y47874D02*
D03*
X8504Y62874D02*
D03*
X18504Y57874D02*
D03*
X8504Y52874D02*
D03*
D67*
X71260Y6004D02*
D03*
X45276D02*
D03*
D68*
X141339Y20866D02*
D03*
X142126Y155512D02*
D03*
X136221D02*
D03*
X142520Y165748D02*
D03*
X136221D02*
D03*
X142520Y160630D02*
D03*
X136221D02*
D03*
X139173Y155886D02*
D03*
Y160886D02*
D03*
Y165886D02*
D03*
X112382Y34252D02*
D03*
X103150Y19291D02*
D03*
X128085Y127525D02*
D03*
X72146Y83858D02*
D03*
X81299Y35433D02*
D03*
X122047Y58661D02*
D03*
X115748Y51181D02*
D03*
X112992Y107874D02*
D03*
X39665Y23622D02*
D03*
X131496Y10630D02*
D03*
X112598Y19291D02*
D03*
X125591Y16929D02*
D03*
X61417Y27165D02*
D03*
X63287Y16535D02*
D03*
X148031Y131102D02*
D03*
X112106Y127559D02*
D03*
X72047Y97638D02*
D03*
X83740Y97898D02*
D03*
X25393Y9941D02*
D03*
X45669Y15650D02*
D03*
X38878Y61811D02*
D03*
X26378Y27953D02*
D03*
Y5906D02*
D03*
X154331Y166535D02*
D03*
X146457D02*
D03*
Y162598D02*
D03*
X150394D02*
D03*
X154331D02*
D03*
Y170472D02*
D03*
X146457D02*
D03*
X150394Y170472D02*
D03*
Y166535D02*
D03*
X82284Y79528D02*
D03*
X103228Y127898D02*
D03*
X75984Y127559D02*
D03*
X89764Y80039D02*
D03*
X120472Y133465D02*
D03*
Y139370D02*
D03*
X83740Y127898D02*
D03*
X43307Y110236D02*
D03*
X38063Y133740D02*
D03*
Y128740D02*
D03*
Y118740D02*
D03*
X38878Y68110D02*
D03*
X38189Y44488D02*
D03*
Y49606D02*
D03*
X32283Y59449D02*
D03*
X29133Y21440D02*
D03*
X62992Y6004D02*
D03*
X53543D02*
D03*
X70866Y15650D02*
D03*
X89764Y50039D02*
D03*
X141401Y32272D02*
D03*
X146850Y26378D02*
D03*
X141339D02*
D03*
X125591Y36024D02*
D03*
X109252Y50039D02*
D03*
X103937Y90551D02*
D03*
X103228Y97898D02*
D03*
X109193Y79980D02*
D03*
X120669Y82677D02*
D03*
Y76378D02*
D03*
X128543Y70079D02*
D03*
X147244Y85827D02*
D03*
X146850Y20866D02*
D03*
X150394D02*
D03*
Y26378D02*
D03*
Y31890D02*
D03*
X146850D02*
D03*
X150787Y74410D02*
D03*
Y85827D02*
D03*
Y79921D02*
D03*
X147244D02*
D03*
Y74410D02*
D03*
X151181Y131102D02*
D03*
Y142126D02*
D03*
X148031D02*
D03*
X141732Y79921D02*
D03*
Y85039D02*
D03*
Y74803D02*
D03*
X142520Y140551D02*
D03*
Y136614D02*
D03*
Y132283D02*
D03*
X151181Y136614D02*
D03*
X148031D02*
D03*
D69*
X127559Y46457D02*
D03*
X122047Y67323D02*
D03*
X123622Y62205D02*
D03*
X121653Y31890D02*
D03*
X116535D02*
D03*
X103150Y24803D02*
D03*
Y14567D02*
D03*
X127953Y109843D02*
D03*
X124409Y114567D02*
D03*
X81791Y29921D02*
D03*
X77559Y41339D02*
D03*
X64567Y47244D02*
D03*
X68504Y50394D02*
D03*
X57049Y82715D02*
D03*
X53937Y62205D02*
D03*
X60236Y98425D02*
D03*
X61735Y51772D02*
D03*
X54369Y50432D02*
D03*
X50749D02*
D03*
X76340Y61849D02*
D03*
X116929Y64567D02*
D03*
X114567Y112992D02*
D03*
X109449Y98819D02*
D03*
X45276Y23622D02*
D03*
X112598Y24803D02*
D03*
X111024Y133071D02*
D03*
X89370Y85039D02*
D03*
X70472Y92520D02*
D03*
X63386Y138386D02*
D03*
X74803Y107874D02*
D03*
X19291Y16535D02*
D03*
X32677Y12598D02*
D03*
X43701Y40945D02*
D03*
X27953Y138583D02*
D03*
X44488Y66535D02*
D03*
X51416Y69844D02*
D03*
X46063Y70866D02*
D03*
X47638Y81890D02*
D03*
X48819Y105905D02*
D03*
X83465Y107874D02*
D03*
X50787Y97244D02*
D03*
X53937Y96063D02*
D03*
X83740Y112898D02*
D03*
X74803Y112598D02*
D03*
X66535Y133858D02*
D03*
Y64173D02*
D03*
X63386Y62598D02*
D03*
X77953Y68110D02*
D03*
X89764Y59842D02*
D03*
X83896Y65786D02*
D03*
X89764Y75039D02*
D03*
X47638Y47638D02*
D03*
D70*
X11811Y185039D02*
D03*
X145669D02*
D03*
D71*
X151772Y121653D02*
D03*
X141142D02*
D03*
X153347Y32677D02*
D03*
X142717D02*
D03*
X151969Y87008D02*
D03*
X141339D02*
D03*
X151772Y129921D02*
D03*
X141142D02*
D03*
X153347Y11811D02*
D03*
X142717D02*
D03*
X152165Y142913D02*
D03*
X141535D02*
D03*
X152165Y73622D02*
D03*
X141535D02*
D03*
X152165Y65354D02*
D03*
X141535D02*
D03*
X153347Y19685D02*
D03*
X142717D02*
D03*
M02*
