G04*
G04 #@! TF.GenerationSoftware,Altium Limited,Altium Designer,21.9.2 (33)*
G04*
G04 Layer_Physical_Order=3*
G04 Layer_Color=16440176*
%FSLAX25Y25*%
%MOIN*%
G70*
G04*
G04 #@! TF.SameCoordinates,6D25873D-4EA7-46F0-BCAE-82CFCE844350*
G04*
G04*
G04 #@! TF.FilePolarity,Positive*
G04*
G01*
G75*
%ADD66C,0.05118*%
%ADD67O,0.03543X0.07087*%
%ADD68C,0.01772*%
G36*
X94488Y803D02*
X803D01*
Y179961D01*
X1303Y180080D01*
X1878Y178952D01*
X2952Y177473D01*
X4245Y176181D01*
X5724Y175106D01*
X7353Y174276D01*
X9091Y173711D01*
X10897Y173425D01*
X12725D01*
X14531Y173711D01*
X16269Y174276D01*
X17898Y175106D01*
X19377Y176181D01*
X20670Y177473D01*
X21744Y178952D01*
X22574Y180581D01*
X23139Y182320D01*
X23425Y184125D01*
Y185953D01*
X23139Y187759D01*
X22574Y189498D01*
X21744Y191127D01*
X20670Y192605D01*
X19377Y193898D01*
X17898Y194973D01*
X16770Y195548D01*
X16890Y196048D01*
X94488D01*
Y803D01*
D02*
G37*
G36*
X140710Y195548D02*
X139582Y194973D01*
X138103Y193898D01*
X136811Y192605D01*
X135736Y191127D01*
X134906Y189498D01*
X134341Y187759D01*
X134055Y185953D01*
Y184125D01*
X134341Y182320D01*
X134906Y180581D01*
X135736Y178952D01*
X136811Y177473D01*
X138103Y176181D01*
X139582Y175106D01*
X141211Y174276D01*
X142950Y173711D01*
X144755Y173425D01*
X146583D01*
X148389Y173711D01*
X150128Y174276D01*
X151756Y175106D01*
X153235Y176181D01*
X154528Y177473D01*
X155603Y178952D01*
X156177Y180080D01*
X156677Y179961D01*
Y803D01*
X98819D01*
Y196048D01*
X140590D01*
X140710Y195548D01*
D02*
G37*
%LPC*%
G36*
X28344Y140551D02*
X27561D01*
X26838Y140252D01*
X26284Y139698D01*
X25984Y138974D01*
Y138191D01*
X26284Y137468D01*
X26838Y136914D01*
X27561Y136614D01*
X28344D01*
X29068Y136914D01*
X29622Y137468D01*
X29921Y138191D01*
Y138974D01*
X29622Y139698D01*
X29068Y140252D01*
X28344Y140551D01*
D02*
G37*
G36*
X63777Y140354D02*
X62994D01*
X62271Y140055D01*
X61717Y139501D01*
X61417Y138777D01*
Y137994D01*
X61717Y137271D01*
X62271Y136717D01*
X62994Y136417D01*
X63777D01*
X64501Y136717D01*
X65055Y137271D01*
X65354Y137994D01*
Y138777D01*
X65055Y139501D01*
X64501Y140055D01*
X63777Y140354D01*
D02*
G37*
G36*
X66927Y135827D02*
X66144D01*
X65420Y135527D01*
X64867Y134973D01*
X64567Y134250D01*
Y133467D01*
X64867Y132743D01*
X65420Y132190D01*
X66144Y131890D01*
X66927D01*
X67651Y132190D01*
X68204Y132743D01*
X68504Y133467D01*
Y134250D01*
X68204Y134973D01*
X67651Y135527D01*
X66927Y135827D01*
D02*
G37*
G36*
X9338Y137874D02*
X8457D01*
X7606Y137646D01*
X6843Y137205D01*
X6220Y136582D01*
X5779Y135819D01*
X5551Y134968D01*
Y134087D01*
X5779Y133236D01*
X6220Y132473D01*
X6843Y131850D01*
X7606Y131409D01*
X8457Y131181D01*
X9338D01*
X10189Y131409D01*
X10952Y131850D01*
X11575Y132473D01*
X12016Y133236D01*
X12244Y134087D01*
Y134968D01*
X12016Y135819D01*
X11575Y136582D01*
X10952Y137205D01*
X10189Y137646D01*
X9338Y137874D01*
D02*
G37*
G36*
X19338Y132874D02*
X18457D01*
X17606Y132646D01*
X16843Y132205D01*
X16220Y131582D01*
X15779Y130819D01*
X15551Y129968D01*
Y129087D01*
X15779Y128236D01*
X16220Y127473D01*
X16843Y126850D01*
X17606Y126409D01*
X18457Y126181D01*
X19338D01*
X20189Y126409D01*
X20952Y126850D01*
X21576Y127473D01*
X22016Y128236D01*
X22244Y129087D01*
Y129968D01*
X22016Y130819D01*
X21576Y131582D01*
X20952Y132205D01*
X20189Y132646D01*
X19338Y132874D01*
D02*
G37*
G36*
X9338Y127874D02*
X8457D01*
X7606Y127646D01*
X6843Y127205D01*
X6220Y126582D01*
X5779Y125819D01*
X5551Y124968D01*
Y124087D01*
X5779Y123236D01*
X6220Y122473D01*
X6843Y121850D01*
X7606Y121409D01*
X8457Y121181D01*
X9338D01*
X10189Y121409D01*
X10952Y121850D01*
X11575Y122473D01*
X12016Y123236D01*
X12244Y124087D01*
Y124968D01*
X12016Y125819D01*
X11575Y126582D01*
X10952Y127205D01*
X10189Y127646D01*
X9338Y127874D01*
D02*
G37*
G36*
X84132Y114866D02*
X83349D01*
X82625Y114566D01*
X82071Y114013D01*
X81772Y113289D01*
Y112506D01*
X82071Y111783D01*
X82625Y111229D01*
X83349Y110929D01*
X84132D01*
X84855Y111229D01*
X85409Y111783D01*
X85709Y112506D01*
Y113289D01*
X85409Y114013D01*
X84855Y114566D01*
X84132Y114866D01*
D02*
G37*
G36*
X75195Y114567D02*
X74412D01*
X73688Y114267D01*
X73134Y113714D01*
X72835Y112990D01*
Y112207D01*
X73134Y111483D01*
X73688Y110930D01*
X74412Y110630D01*
X75195D01*
X75918Y110930D01*
X76472Y111483D01*
X76772Y112207D01*
Y112990D01*
X76472Y113714D01*
X75918Y114267D01*
X75195Y114567D01*
D02*
G37*
G36*
X12303Y117756D02*
X11319D01*
X10367Y117501D01*
X9515Y117009D01*
X8818Y116312D01*
X8326Y115459D01*
X8071Y114508D01*
Y113523D01*
X8326Y112572D01*
X8818Y111719D01*
X9515Y111023D01*
X10367Y110530D01*
X11319Y110276D01*
X12303D01*
X13255Y110530D01*
X14108Y111023D01*
X14804Y111719D01*
X15296Y112572D01*
X15551Y113523D01*
Y114508D01*
X15296Y115459D01*
X14804Y116312D01*
X14108Y117009D01*
X13255Y117501D01*
X12303Y117756D01*
D02*
G37*
G36*
X83856Y109843D02*
X83073D01*
X82349Y109543D01*
X81796Y108989D01*
X81496Y108266D01*
Y107483D01*
X81796Y106759D01*
X82349Y106205D01*
X83073Y105905D01*
X83856D01*
X84580Y106205D01*
X85133Y106759D01*
X85433Y107483D01*
Y108266D01*
X85133Y108989D01*
X84580Y109543D01*
X83856Y109843D01*
D02*
G37*
G36*
X75195D02*
X74412D01*
X73688Y109543D01*
X73134Y108989D01*
X72835Y108266D01*
Y107483D01*
X73134Y106759D01*
X73688Y106205D01*
X74412Y105905D01*
X75195D01*
X75918Y106205D01*
X76472Y106759D01*
X76772Y107483D01*
Y108266D01*
X76472Y108989D01*
X75918Y109543D01*
X75195Y109843D01*
D02*
G37*
G36*
X49211Y107874D02*
X48427D01*
X47704Y107574D01*
X47150Y107021D01*
X46850Y106297D01*
Y105514D01*
X47150Y104790D01*
X47704Y104237D01*
X48427Y103937D01*
X49211D01*
X49934Y104237D01*
X50488Y104790D01*
X50787Y105514D01*
Y106297D01*
X50488Y107021D01*
X49934Y107574D01*
X49211Y107874D01*
D02*
G37*
G36*
X60628Y100394D02*
X59845D01*
X59121Y100094D01*
X58567Y99540D01*
X58268Y98817D01*
Y98034D01*
X58567Y97310D01*
X59121Y96756D01*
X59845Y96457D01*
X60628D01*
X61351Y96756D01*
X61905Y97310D01*
X62205Y98034D01*
Y98817D01*
X61905Y99540D01*
X61351Y100094D01*
X60628Y100394D01*
D02*
G37*
G36*
X9102Y102323D02*
X8221D01*
X7370Y102095D01*
X6607Y101654D01*
X5984Y101031D01*
X5543Y100268D01*
X5315Y99417D01*
Y98536D01*
X5543Y97685D01*
X5984Y96922D01*
X6607Y96299D01*
X7370Y95858D01*
X8221Y95630D01*
X9102D01*
X9953Y95858D01*
X10716Y96299D01*
X11339Y96922D01*
X11780Y97685D01*
X12008Y98536D01*
Y99417D01*
X11780Y100268D01*
X11339Y101031D01*
X10716Y101654D01*
X9953Y102095D01*
X9102Y102323D01*
D02*
G37*
G36*
X51179Y99213D02*
X50396D01*
X49672Y98913D01*
X49119Y98359D01*
X48819Y97636D01*
Y96852D01*
X49119Y96129D01*
X49672Y95575D01*
X50396Y95276D01*
X51179D01*
X51903Y95575D01*
X52018Y95552D01*
X52268Y94948D01*
X52822Y94394D01*
X53545Y94095D01*
X54329D01*
X55052Y94394D01*
X55606Y94948D01*
X55905Y95671D01*
Y96455D01*
X55606Y97178D01*
X55052Y97732D01*
X54329Y98032D01*
X53545D01*
X52822Y97732D01*
X52707Y97755D01*
X52456Y98359D01*
X51903Y98913D01*
X51179Y99213D01*
D02*
G37*
G36*
X19102Y97323D02*
X18221D01*
X17370Y97095D01*
X16607Y96654D01*
X15984Y96031D01*
X15543Y95268D01*
X15315Y94417D01*
Y93536D01*
X15543Y92685D01*
X15984Y91922D01*
X16607Y91299D01*
X17370Y90858D01*
X18221Y90630D01*
X19102D01*
X19953Y90858D01*
X20716Y91299D01*
X21339Y91922D01*
X21780Y92685D01*
X22008Y93536D01*
Y94417D01*
X21780Y95268D01*
X21339Y96031D01*
X20716Y96654D01*
X19953Y97095D01*
X19102Y97323D01*
D02*
G37*
G36*
X70864Y94488D02*
X70081D01*
X69357Y94188D01*
X68804Y93635D01*
X68504Y92911D01*
Y92128D01*
X68804Y91405D01*
X69357Y90851D01*
X70081Y90551D01*
X70864D01*
X71588Y90851D01*
X72141Y91405D01*
X72441Y92128D01*
Y92911D01*
X72141Y93635D01*
X71588Y94188D01*
X70864Y94488D01*
D02*
G37*
G36*
X9102Y92323D02*
X8221D01*
X7370Y92095D01*
X6607Y91654D01*
X5984Y91031D01*
X5543Y90268D01*
X5315Y89417D01*
Y88536D01*
X5543Y87685D01*
X5984Y86922D01*
X6607Y86299D01*
X7370Y85858D01*
X8221Y85630D01*
X9102D01*
X9953Y85858D01*
X10716Y86299D01*
X11339Y86922D01*
X11780Y87685D01*
X12008Y88536D01*
Y89417D01*
X11780Y90268D01*
X11339Y91031D01*
X10716Y91654D01*
X9953Y92095D01*
X9102Y92323D01*
D02*
G37*
G36*
X89762Y87008D02*
X88978D01*
X88255Y86708D01*
X87701Y86154D01*
X87402Y85431D01*
Y84648D01*
X87701Y83924D01*
X88255Y83371D01*
X88978Y83071D01*
X89762D01*
X90485Y83371D01*
X91039Y83924D01*
X91339Y84648D01*
Y85431D01*
X91039Y86154D01*
X90485Y86708D01*
X89762Y87008D01*
D02*
G37*
G36*
X57440Y84684D02*
X56657D01*
X55934Y84384D01*
X55380Y83830D01*
X55080Y83107D01*
Y82323D01*
X55380Y81600D01*
X55934Y81046D01*
X56657Y80747D01*
X57440D01*
X58164Y81046D01*
X58718Y81600D01*
X59017Y82323D01*
Y83107D01*
X58718Y83830D01*
X58164Y84384D01*
X57440Y84684D01*
D02*
G37*
G36*
X48029Y83858D02*
X47246D01*
X46523Y83559D01*
X45969Y83005D01*
X45669Y82281D01*
Y81498D01*
X45969Y80775D01*
X46523Y80221D01*
X47246Y79921D01*
X48029D01*
X48753Y80221D01*
X49307Y80775D01*
X49606Y81498D01*
Y82281D01*
X49307Y83005D01*
X48753Y83559D01*
X48029Y83858D01*
D02*
G37*
G36*
X12067Y82205D02*
X11082D01*
X10131Y81950D01*
X9278Y81457D01*
X8582Y80761D01*
X8089Y79908D01*
X7835Y78957D01*
Y77972D01*
X8089Y77021D01*
X8582Y76168D01*
X9278Y75472D01*
X10131Y74979D01*
X11082Y74724D01*
X12067D01*
X13018Y74979D01*
X13871Y75472D01*
X14568Y76168D01*
X15060Y77021D01*
X15315Y77972D01*
Y78957D01*
X15060Y79908D01*
X14568Y80761D01*
X13871Y81457D01*
X13018Y81950D01*
X12067Y82205D01*
D02*
G37*
G36*
X90155Y77008D02*
X89372D01*
X88649Y76708D01*
X88095Y76154D01*
X87795Y75431D01*
Y74648D01*
X88095Y73924D01*
X88649Y73371D01*
X89372Y73071D01*
X90155D01*
X90879Y73371D01*
X91433Y73924D01*
X91732Y74648D01*
Y75431D01*
X91433Y76154D01*
X90879Y76708D01*
X90155Y77008D01*
D02*
G37*
G36*
X46455Y72835D02*
X45671D01*
X44948Y72535D01*
X44394Y71981D01*
X44094Y71258D01*
Y70475D01*
X44394Y69751D01*
X44948Y69197D01*
X45671Y68898D01*
X46455D01*
X47178Y69197D01*
X47732Y69751D01*
X48031Y70475D01*
Y71258D01*
X47732Y71981D01*
X47178Y72535D01*
X46455Y72835D01*
D02*
G37*
G36*
X51807Y71812D02*
X51024D01*
X50301Y71513D01*
X49747Y70959D01*
X49447Y70236D01*
Y69453D01*
X49747Y68729D01*
X50301Y68175D01*
X51024Y67875D01*
X51807D01*
X52531Y68175D01*
X53085Y68729D01*
X53384Y69453D01*
Y70236D01*
X53085Y70959D01*
X52531Y71513D01*
X51807Y71812D01*
D02*
G37*
G36*
X78344Y70079D02*
X77561D01*
X76838Y69779D01*
X76284Y69225D01*
X75984Y68502D01*
Y67719D01*
X76284Y66995D01*
X76838Y66441D01*
X77561Y66142D01*
X78344D01*
X79068Y66441D01*
X79622Y66995D01*
X79921Y67719D01*
Y68502D01*
X79622Y69225D01*
X79068Y69779D01*
X78344Y70079D01*
D02*
G37*
G36*
X44880Y68504D02*
X44097D01*
X43373Y68204D01*
X42819Y67651D01*
X42520Y66927D01*
Y66144D01*
X42819Y65420D01*
X43373Y64867D01*
X44097Y64567D01*
X44880D01*
X45603Y64867D01*
X46157Y65420D01*
X46457Y66144D01*
Y66927D01*
X46157Y67651D01*
X45603Y68204D01*
X44880Y68504D01*
D02*
G37*
G36*
X66927Y66142D02*
X66144D01*
X65420Y65842D01*
X64867Y65288D01*
X64567Y64565D01*
X64067Y64447D01*
X63777Y64567D01*
X62994D01*
X62271Y64267D01*
X61717Y63714D01*
X61417Y62990D01*
Y62207D01*
X61717Y61483D01*
X62271Y60930D01*
X62994Y60630D01*
X63777D01*
X64501Y60930D01*
X65055Y61483D01*
X65354Y62207D01*
X65854Y62325D01*
X66144Y62205D01*
X66927D01*
X67651Y62504D01*
X68204Y63058D01*
X68504Y63782D01*
Y64565D01*
X68204Y65288D01*
X67651Y65842D01*
X66927Y66142D01*
D02*
G37*
G36*
X84288Y67754D02*
X83505D01*
X82781Y67455D01*
X82227Y66901D01*
X81928Y66177D01*
Y65394D01*
X82227Y64671D01*
X82781Y64117D01*
X83505Y63817D01*
X84288D01*
X85011Y64117D01*
X85565Y64671D01*
X85865Y65394D01*
Y66177D01*
X85565Y66901D01*
X85011Y67455D01*
X84288Y67754D01*
D02*
G37*
G36*
X54329Y64173D02*
X53545D01*
X52822Y63873D01*
X52268Y63320D01*
X51968Y62596D01*
Y61813D01*
X52268Y61090D01*
X52822Y60536D01*
X53545Y60236D01*
X54329D01*
X55052Y60536D01*
X55606Y61090D01*
X55905Y61813D01*
Y62596D01*
X55606Y63320D01*
X55052Y63873D01*
X54329Y64173D01*
D02*
G37*
G36*
X76732Y63817D02*
X75949D01*
X75225Y63518D01*
X74671Y62964D01*
X74372Y62240D01*
Y61457D01*
X74671Y60734D01*
X75225Y60180D01*
X75949Y59880D01*
X76732D01*
X77455Y60180D01*
X78009Y60734D01*
X78309Y61457D01*
Y62240D01*
X78009Y62964D01*
X77455Y63518D01*
X76732Y63817D01*
D02*
G37*
G36*
X8945Y66220D02*
X8063D01*
X7212Y65992D01*
X6449Y65552D01*
X5826Y64929D01*
X5385Y64166D01*
X5158Y63315D01*
Y62433D01*
X5385Y61582D01*
X5826Y60819D01*
X6449Y60196D01*
X7212Y59756D01*
X8063Y59528D01*
X8945D01*
X9796Y59756D01*
X10559Y60196D01*
X11182Y60819D01*
X11622Y61582D01*
X11850Y62433D01*
Y63315D01*
X11622Y64166D01*
X11182Y64929D01*
X10559Y65552D01*
X9796Y65992D01*
X8945Y66220D01*
D02*
G37*
G36*
X90155Y61811D02*
X89372D01*
X88649Y61511D01*
X88095Y60958D01*
X87795Y60234D01*
Y59451D01*
X88095Y58727D01*
X88649Y58174D01*
X89372Y57874D01*
X90155D01*
X90879Y58174D01*
X91433Y58727D01*
X91732Y59451D01*
Y60234D01*
X91433Y60958D01*
X90879Y61511D01*
X90155Y61811D01*
D02*
G37*
G36*
X18945Y61221D02*
X18063D01*
X17212Y60992D01*
X16449Y60552D01*
X15826Y59929D01*
X15385Y59166D01*
X15157Y58315D01*
Y57433D01*
X15385Y56582D01*
X15826Y55819D01*
X16449Y55196D01*
X17212Y54756D01*
X18063Y54528D01*
X18945D01*
X19796Y54756D01*
X20559Y55196D01*
X21182Y55819D01*
X21622Y56582D01*
X21850Y57433D01*
Y58315D01*
X21622Y59166D01*
X21182Y59929D01*
X20559Y60552D01*
X19796Y60992D01*
X18945Y61221D01*
D02*
G37*
G36*
X54760Y52400D02*
X53977D01*
X53254Y52100D01*
X52883Y51730D01*
X52559Y51602D01*
X52235Y51730D01*
X51865Y52100D01*
X51141Y52400D01*
X50358D01*
X49635Y52100D01*
X49081Y51547D01*
X48781Y50823D01*
Y50040D01*
X48883Y49794D01*
X48500Y49411D01*
X48029Y49606D01*
X47246D01*
X46523Y49307D01*
X45969Y48753D01*
X45669Y48029D01*
Y47246D01*
X45969Y46523D01*
X46523Y45969D01*
X47246Y45669D01*
X48029D01*
X48753Y45969D01*
X49307Y46523D01*
X49606Y47246D01*
Y48029D01*
X49504Y48275D01*
X49887Y48658D01*
X50358Y48463D01*
X51141D01*
X51865Y48763D01*
X52235Y49133D01*
X52559Y49261D01*
X52883Y49133D01*
X53254Y48763D01*
X53977Y48463D01*
X54760D01*
X55484Y48763D01*
X56037Y49316D01*
X56337Y50040D01*
Y50823D01*
X56037Y51547D01*
X55484Y52100D01*
X54760Y52400D01*
D02*
G37*
G36*
X62127Y53740D02*
X61344D01*
X60620Y53440D01*
X60066Y52887D01*
X59767Y52163D01*
Y51380D01*
X60066Y50657D01*
X60620Y50103D01*
X61344Y49803D01*
X62127D01*
X62850Y50103D01*
X63404Y50657D01*
X63704Y51380D01*
Y52163D01*
X63404Y52887D01*
X62850Y53440D01*
X62127Y53740D01*
D02*
G37*
G36*
X8945Y56221D02*
X8063D01*
X7212Y55992D01*
X6449Y55552D01*
X5826Y54929D01*
X5385Y54166D01*
X5158Y53315D01*
Y52434D01*
X5385Y51582D01*
X5826Y50819D01*
X6449Y50196D01*
X7212Y49756D01*
X8063Y49528D01*
X8945D01*
X9796Y49756D01*
X10559Y50196D01*
X11182Y50819D01*
X11622Y51582D01*
X11850Y52434D01*
Y53315D01*
X11622Y54166D01*
X11182Y54929D01*
X10559Y55552D01*
X9796Y55992D01*
X8945Y56221D01*
D02*
G37*
G36*
X68896Y52362D02*
X68112D01*
X67389Y52062D01*
X66835Y51509D01*
X66535Y50785D01*
Y50002D01*
X66835Y49279D01*
X67389Y48725D01*
X68112Y48425D01*
X68896D01*
X69619Y48725D01*
X70173Y49279D01*
X70472Y50002D01*
Y50785D01*
X70173Y51509D01*
X69619Y52062D01*
X68896Y52362D01*
D02*
G37*
G36*
X64959Y49213D02*
X64175D01*
X63452Y48913D01*
X62898Y48359D01*
X62598Y47636D01*
Y46852D01*
X62898Y46129D01*
X63452Y45575D01*
X64175Y45276D01*
X64959D01*
X65682Y45575D01*
X66236Y46129D01*
X66535Y46852D01*
Y47636D01*
X66236Y48359D01*
X65682Y48913D01*
X64959Y49213D01*
D02*
G37*
G36*
X77951Y43307D02*
X77167D01*
X76444Y43007D01*
X75890Y42454D01*
X75591Y41730D01*
Y40947D01*
X75890Y40224D01*
X76444Y39670D01*
X77167Y39370D01*
X77951D01*
X78674Y39670D01*
X79228Y40224D01*
X79528Y40947D01*
Y41730D01*
X79228Y42454D01*
X78674Y43007D01*
X77951Y43307D01*
D02*
G37*
G36*
X44092Y42913D02*
X43309D01*
X42586Y42614D01*
X42032Y42060D01*
X41732Y41336D01*
Y40553D01*
X42032Y39830D01*
X42586Y39276D01*
X43309Y38976D01*
X44092D01*
X44816Y39276D01*
X45370Y39830D01*
X45669Y40553D01*
Y41336D01*
X45370Y42060D01*
X44816Y42614D01*
X44092Y42913D01*
D02*
G37*
G36*
X11910Y46102D02*
X10925D01*
X9974Y45847D01*
X9121Y45355D01*
X8424Y44659D01*
X7932Y43806D01*
X7677Y42855D01*
Y41870D01*
X7932Y40919D01*
X8424Y40066D01*
X9121Y39369D01*
X9974Y38877D01*
X10925Y38622D01*
X11910D01*
X12861Y38877D01*
X13714Y39369D01*
X14410Y40066D01*
X14903Y40919D01*
X15157Y41870D01*
Y42855D01*
X14903Y43806D01*
X14410Y44659D01*
X13714Y45355D01*
X12861Y45847D01*
X11910Y46102D01*
D02*
G37*
G36*
X82183Y31890D02*
X81400D01*
X80676Y31590D01*
X80123Y31036D01*
X79823Y30313D01*
Y29530D01*
X80123Y28806D01*
X80676Y28252D01*
X81400Y27953D01*
X82183D01*
X82906Y28252D01*
X83460Y28806D01*
X83760Y29530D01*
Y30313D01*
X83460Y31036D01*
X82906Y31590D01*
X82183Y31890D01*
D02*
G37*
G36*
X45667Y25591D02*
X44884D01*
X44161Y25291D01*
X43607Y24737D01*
X43307Y24014D01*
Y23231D01*
X43607Y22507D01*
X44161Y21953D01*
X44884Y21654D01*
X45667D01*
X46391Y21953D01*
X46944Y22507D01*
X47244Y23231D01*
Y24014D01*
X46944Y24737D01*
X46391Y25291D01*
X45667Y25591D01*
D02*
G37*
G36*
X19683Y18504D02*
X18900D01*
X18176Y18204D01*
X17623Y17650D01*
X17323Y16927D01*
Y16144D01*
X17623Y15420D01*
X18176Y14867D01*
X18900Y14567D01*
X19683D01*
X20406Y14867D01*
X20960Y15420D01*
X21260Y16144D01*
Y16927D01*
X20960Y17650D01*
X20406Y18204D01*
X19683Y18504D01*
D02*
G37*
G36*
X33069Y14567D02*
X32286D01*
X31562Y14267D01*
X31008Y13713D01*
X30709Y12990D01*
Y12207D01*
X31008Y11483D01*
X31562Y10930D01*
X32286Y10630D01*
X33069D01*
X33792Y10930D01*
X34346Y11483D01*
X34646Y12207D01*
Y12990D01*
X34346Y13713D01*
X33792Y14267D01*
X33069Y14567D01*
D02*
G37*
G36*
X124220Y193504D02*
X123339D01*
X122488Y193276D01*
X121725Y192835D01*
X121102Y192212D01*
X120661Y191449D01*
X120433Y190598D01*
Y189717D01*
X120661Y188866D01*
X121102Y188103D01*
X121725Y187480D01*
X122488Y187039D01*
X123339Y186811D01*
X124220D01*
X125071Y187039D01*
X125834Y187480D01*
X126457Y188103D01*
X126898Y188866D01*
X127126Y189717D01*
Y190598D01*
X126898Y191449D01*
X126457Y192212D01*
X125834Y192835D01*
X125071Y193276D01*
X124220Y193504D01*
D02*
G37*
G36*
X114220D02*
X113339D01*
X112488Y193276D01*
X111725Y192835D01*
X111102Y192212D01*
X110661Y191449D01*
X110433Y190598D01*
Y189717D01*
X110661Y188866D01*
X111102Y188103D01*
X111725Y187480D01*
X112488Y187039D01*
X113339Y186811D01*
X114220D01*
X115071Y187039D01*
X115834Y187480D01*
X116457Y188103D01*
X116898Y188866D01*
X117126Y189717D01*
Y190598D01*
X116898Y191449D01*
X116457Y192212D01*
X115834Y192835D01*
X115071Y193276D01*
X114220Y193504D01*
D02*
G37*
G36*
X103760Y190984D02*
X102775D01*
X101824Y190729D01*
X100971Y190237D01*
X100275Y189541D01*
X99783Y188688D01*
X99528Y187736D01*
Y186752D01*
X99783Y185801D01*
X100275Y184948D01*
X100971Y184251D01*
X101824Y183759D01*
X102775Y183504D01*
X103760D01*
X104711Y183759D01*
X105564Y184251D01*
X106261Y184948D01*
X106753Y185801D01*
X107008Y186752D01*
Y187736D01*
X106753Y188688D01*
X106261Y189541D01*
X105564Y190237D01*
X104711Y190729D01*
X103760Y190984D01*
D02*
G37*
G36*
X119220Y183504D02*
X118339D01*
X117488Y183276D01*
X116725Y182835D01*
X116102Y182212D01*
X115661Y181449D01*
X115433Y180598D01*
Y179717D01*
X115661Y178866D01*
X116102Y178103D01*
X116725Y177480D01*
X117488Y177039D01*
X118339Y176811D01*
X119220D01*
X120071Y177039D01*
X120834Y177480D01*
X121457Y178103D01*
X121898Y178866D01*
X122126Y179717D01*
Y180598D01*
X121898Y181449D01*
X121457Y182212D01*
X120834Y182835D01*
X120071Y183276D01*
X119220Y183504D01*
D02*
G37*
G36*
X139506Y167559D02*
X138840D01*
X138225Y167304D01*
X137755Y166834D01*
X137301Y167034D01*
X137168Y167166D01*
X136553Y167421D01*
X135888D01*
X135273Y167166D01*
X134802Y166696D01*
X134547Y166081D01*
Y165415D01*
X134802Y164800D01*
X135273Y164330D01*
X135888Y164075D01*
X136553D01*
X137168Y164330D01*
X137639Y164800D01*
X138092Y164600D01*
X138225Y164467D01*
X138840Y164213D01*
X139506D01*
X140121Y164467D01*
X140529Y164875D01*
X140867Y164879D01*
X141088Y164831D01*
X141101Y164800D01*
X141572Y164330D01*
X142187Y164075D01*
X142852D01*
X143467Y164330D01*
X143938Y164800D01*
X144193Y165415D01*
Y166081D01*
X143938Y166696D01*
X143467Y167166D01*
X142852Y167421D01*
X142187D01*
X141572Y167166D01*
X141164Y166759D01*
X140826Y166755D01*
X140604Y166803D01*
X140592Y166834D01*
X140121Y167304D01*
X139506Y167559D01*
D02*
G37*
G36*
Y162559D02*
X138840D01*
X138225Y162304D01*
X137896Y161974D01*
X137755Y161834D01*
X137263Y161953D01*
X137168Y162048D01*
X136553Y162303D01*
X135888D01*
X135273Y162048D01*
X134802Y161578D01*
X134547Y160963D01*
Y160297D01*
X134802Y159682D01*
X135273Y159211D01*
X135888Y158957D01*
X136553D01*
X137168Y159211D01*
X137498Y159541D01*
X137639Y159682D01*
X138130Y159562D01*
X138225Y159467D01*
X138840Y159213D01*
X139506D01*
X140121Y159467D01*
X140494Y159841D01*
X140910Y159826D01*
X141064Y159772D01*
X141101Y159682D01*
X141572Y159211D01*
X142187Y158957D01*
X142852D01*
X143467Y159211D01*
X143938Y159682D01*
X144193Y160297D01*
Y160963D01*
X143938Y161578D01*
X143467Y162048D01*
X142852Y162303D01*
X142187D01*
X141572Y162048D01*
X141199Y161675D01*
X140783Y161690D01*
X140629Y161744D01*
X140592Y161834D01*
X140121Y162304D01*
X139506Y162559D01*
D02*
G37*
G36*
Y157559D02*
X138840D01*
X138225Y157304D01*
X137755Y156834D01*
X137346Y156752D01*
X137168Y156930D01*
X136553Y157185D01*
X135888D01*
X135273Y156930D01*
X134802Y156460D01*
X134547Y155845D01*
Y155179D01*
X134802Y154564D01*
X135273Y154093D01*
X135888Y153839D01*
X136553D01*
X137168Y154093D01*
X137639Y154564D01*
X138048Y154645D01*
X138225Y154467D01*
X138840Y154213D01*
X139506D01*
X140121Y154467D01*
X140299Y154645D01*
X140708Y154564D01*
X141178Y154093D01*
X141793Y153839D01*
X142459D01*
X143074Y154093D01*
X143544Y154564D01*
X143799Y155179D01*
Y155845D01*
X143544Y156460D01*
X143074Y156930D01*
X142459Y157185D01*
X141793D01*
X141178Y156930D01*
X141000Y156752D01*
X140592Y156834D01*
X140121Y157304D01*
X139506Y157559D01*
D02*
G37*
G36*
X142852Y142224D02*
X142187D01*
X141572Y141970D01*
X141101Y141499D01*
X140847Y140884D01*
Y140218D01*
X141101Y139603D01*
X141572Y139133D01*
X142187Y138878D01*
X142852D01*
X143467Y139133D01*
X143938Y139603D01*
X144193Y140218D01*
Y140884D01*
X143938Y141499D01*
X143467Y141970D01*
X142852Y142224D01*
D02*
G37*
G36*
Y138287D02*
X142187D01*
X141572Y138033D01*
X141101Y137562D01*
X140847Y136947D01*
Y136281D01*
X141101Y135666D01*
X141572Y135196D01*
X142187Y134941D01*
X142852D01*
X143467Y135196D01*
X143938Y135666D01*
X144193Y136281D01*
Y136947D01*
X143938Y137562D01*
X143467Y138033D01*
X142852Y138287D01*
D02*
G37*
G36*
X111415Y135039D02*
X110632D01*
X109908Y134740D01*
X109355Y134186D01*
X109055Y133462D01*
Y132679D01*
X109355Y131956D01*
X109908Y131402D01*
X110632Y131102D01*
X111415D01*
X112139Y131402D01*
X112692Y131956D01*
X112992Y132679D01*
Y133462D01*
X112692Y134186D01*
X112139Y134740D01*
X111415Y135039D01*
D02*
G37*
G36*
X142852Y133957D02*
X142187D01*
X141572Y133702D01*
X141101Y133231D01*
X140847Y132616D01*
Y131951D01*
X141101Y131336D01*
X141572Y130865D01*
X142187Y130610D01*
X142852D01*
X143467Y130865D01*
X143938Y131336D01*
X144193Y131951D01*
Y132616D01*
X143938Y133231D01*
X143467Y133702D01*
X142852Y133957D01*
D02*
G37*
G36*
X124801Y116535D02*
X124018D01*
X123294Y116236D01*
X122741Y115682D01*
X122441Y114959D01*
Y114175D01*
X122741Y113452D01*
X123294Y112898D01*
X124018Y112598D01*
X124801D01*
X125524Y112898D01*
X126078Y113452D01*
X126378Y114175D01*
Y114959D01*
X126078Y115682D01*
X125524Y116236D01*
X124801Y116535D01*
D02*
G37*
G36*
X114959Y114961D02*
X114175D01*
X113452Y114661D01*
X112898Y114107D01*
X112598Y113384D01*
Y112601D01*
X112898Y111877D01*
X113452Y111323D01*
X114175Y111024D01*
X114959D01*
X115682Y111323D01*
X116236Y111877D01*
X116535Y112601D01*
Y113384D01*
X116236Y114107D01*
X115682Y114661D01*
X114959Y114961D01*
D02*
G37*
G36*
X128344Y111811D02*
X127561D01*
X126838Y111511D01*
X126284Y110958D01*
X125984Y110234D01*
Y109451D01*
X126284Y108727D01*
X126838Y108174D01*
X127561Y107874D01*
X128344D01*
X129068Y108174D01*
X129622Y108727D01*
X129921Y109451D01*
Y110234D01*
X129622Y110958D01*
X129068Y111511D01*
X128344Y111811D01*
D02*
G37*
G36*
X113325Y109547D02*
X112659D01*
X112044Y109292D01*
X111574Y108822D01*
X111319Y108207D01*
Y107541D01*
X111574Y106926D01*
X112044Y106456D01*
X112659Y106201D01*
X113325D01*
X113940Y106456D01*
X114411Y106926D01*
X114665Y107541D01*
Y108207D01*
X114411Y108822D01*
X113940Y109292D01*
X113325Y109547D01*
D02*
G37*
G36*
X109840Y100787D02*
X109057D01*
X108334Y100488D01*
X107780Y99934D01*
X107480Y99211D01*
Y98427D01*
X107780Y97704D01*
X108334Y97150D01*
X109057Y96850D01*
X109840D01*
X110564Y97150D01*
X111118Y97704D01*
X111417Y98427D01*
Y99211D01*
X111118Y99934D01*
X110564Y100488D01*
X109840Y100787D01*
D02*
G37*
G36*
X142065Y86713D02*
X141400D01*
X140785Y86458D01*
X140314Y85987D01*
X140059Y85372D01*
Y84707D01*
X140314Y84092D01*
X140785Y83621D01*
X141400Y83366D01*
X142065D01*
X142680Y83621D01*
X143151Y84092D01*
X143405Y84707D01*
Y85372D01*
X143151Y85987D01*
X142680Y86458D01*
X142065Y86713D01*
D02*
G37*
G36*
Y81595D02*
X141400D01*
X140785Y81340D01*
X140314Y80869D01*
X140059Y80254D01*
Y79588D01*
X140314Y78974D01*
X140785Y78503D01*
X141400Y78248D01*
X142065D01*
X142680Y78503D01*
X143151Y78974D01*
X143405Y79588D01*
Y80254D01*
X143151Y80869D01*
X142680Y81340D01*
X142065Y81595D01*
D02*
G37*
G36*
Y76476D02*
X141400D01*
X140785Y76222D01*
X140314Y75751D01*
X140059Y75136D01*
Y74470D01*
X140314Y73855D01*
X140785Y73385D01*
X141400Y73130D01*
X142065D01*
X142680Y73385D01*
X143151Y73855D01*
X143405Y74470D01*
Y75136D01*
X143151Y75751D01*
X142680Y76222D01*
X142065Y76476D01*
D02*
G37*
G36*
X122439Y69291D02*
X121656D01*
X120932Y68992D01*
X120378Y68438D01*
X120079Y67714D01*
Y66931D01*
X120378Y66208D01*
X120932Y65654D01*
X121656Y65354D01*
X122439D01*
X123162Y65654D01*
X123716Y66208D01*
X124016Y66931D01*
Y67714D01*
X123716Y68438D01*
X123162Y68992D01*
X122439Y69291D01*
D02*
G37*
G36*
X117321Y66535D02*
X116538D01*
X115814Y66236D01*
X115260Y65682D01*
X114961Y64959D01*
Y64175D01*
X115260Y63452D01*
X115814Y62898D01*
X116538Y62598D01*
X117321D01*
X118044Y62898D01*
X118598Y63452D01*
X118898Y64175D01*
Y64959D01*
X118598Y65682D01*
X118044Y66236D01*
X117321Y66535D01*
D02*
G37*
G36*
X124014Y64173D02*
X123231D01*
X122507Y63873D01*
X121953Y63320D01*
X121653Y62596D01*
Y61813D01*
X121953Y61090D01*
X122208Y60835D01*
X122001Y60335D01*
X121714D01*
X121099Y60080D01*
X120629Y59609D01*
X120374Y58994D01*
Y58329D01*
X120629Y57714D01*
X121099Y57243D01*
X121714Y56988D01*
X122380D01*
X122995Y57243D01*
X123466Y57714D01*
X123721Y58329D01*
Y58994D01*
X123466Y59609D01*
X123339Y59736D01*
X123546Y60236D01*
X124014D01*
X124737Y60536D01*
X125291Y61090D01*
X125591Y61813D01*
Y62596D01*
X125291Y63320D01*
X124737Y63873D01*
X124014Y64173D01*
D02*
G37*
G36*
X116081Y52854D02*
X115415D01*
X114800Y52600D01*
X114330Y52129D01*
X114075Y51514D01*
Y50848D01*
X114330Y50233D01*
X114800Y49763D01*
X115415Y49508D01*
X116081D01*
X116696Y49763D01*
X117166Y50233D01*
X117421Y50848D01*
Y51514D01*
X117166Y52129D01*
X116696Y52600D01*
X116081Y52854D01*
D02*
G37*
G36*
X127951Y48425D02*
X127167D01*
X126444Y48125D01*
X125890Y47572D01*
X125591Y46848D01*
Y46065D01*
X125890Y45342D01*
X126444Y44788D01*
X127167Y44488D01*
X127951D01*
X128674Y44788D01*
X129228Y45342D01*
X129528Y46065D01*
Y46848D01*
X129228Y47572D01*
X128674Y48125D01*
X127951Y48425D01*
D02*
G37*
G36*
X141733Y33945D02*
X141068D01*
X140453Y33691D01*
X139982Y33220D01*
X139727Y32605D01*
Y31939D01*
X139982Y31324D01*
X140453Y30854D01*
X141068Y30599D01*
X141733D01*
X142348Y30854D01*
X142819Y31324D01*
X143074Y31939D01*
Y32605D01*
X142819Y33220D01*
X142348Y33691D01*
X141733Y33945D01*
D02*
G37*
G36*
X122045Y33858D02*
X121262D01*
X120538Y33559D01*
X119985Y33005D01*
X119685Y32281D01*
Y31498D01*
X119985Y30775D01*
X120538Y30221D01*
X121262Y29921D01*
X122045D01*
X122769Y30221D01*
X123322Y30775D01*
X123622Y31498D01*
Y32281D01*
X123322Y33005D01*
X122769Y33559D01*
X122045Y33858D01*
D02*
G37*
G36*
X116927D02*
X116144D01*
X115420Y33559D01*
X114867Y33005D01*
X114567Y32281D01*
Y31498D01*
X114867Y30775D01*
X115420Y30221D01*
X116144Y29921D01*
X116927D01*
X117650Y30221D01*
X118204Y30775D01*
X118504Y31498D01*
Y32281D01*
X118204Y33005D01*
X117650Y33559D01*
X116927Y33858D01*
D02*
G37*
G36*
X141671Y28051D02*
X141006D01*
X140391Y27796D01*
X139920Y27326D01*
X139665Y26711D01*
Y26045D01*
X139920Y25430D01*
X140391Y24960D01*
X141006Y24705D01*
X141671D01*
X142286Y24960D01*
X142757Y25430D01*
X143012Y26045D01*
Y26711D01*
X142757Y27326D01*
X142286Y27796D01*
X141671Y28051D01*
D02*
G37*
G36*
X112990Y26772D02*
X112207D01*
X111483Y26472D01*
X110930Y25918D01*
X110630Y25195D01*
Y24412D01*
X110930Y23688D01*
X111483Y23134D01*
X112207Y22835D01*
X112990D01*
X113714Y23134D01*
X114267Y23688D01*
X114567Y24412D01*
Y25195D01*
X114267Y25918D01*
X113714Y26472D01*
X112990Y26772D01*
D02*
G37*
G36*
X103541D02*
X102758D01*
X102034Y26472D01*
X101481Y25918D01*
X101181Y25195D01*
Y24412D01*
X101481Y23688D01*
X102034Y23134D01*
X102758Y22835D01*
X103541D01*
X104265Y23134D01*
X104818Y23688D01*
X105118Y24412D01*
Y25195D01*
X104818Y25918D01*
X104265Y26472D01*
X103541Y26772D01*
D02*
G37*
G36*
X141671Y22539D02*
X141006D01*
X140391Y22285D01*
X139920Y21814D01*
X139665Y21199D01*
Y20533D01*
X139920Y19918D01*
X140391Y19448D01*
X141006Y19193D01*
X141671D01*
X142286Y19448D01*
X142757Y19918D01*
X143012Y20533D01*
Y21199D01*
X142757Y21814D01*
X142286Y22285D01*
X141671Y22539D01*
D02*
G37*
G36*
X103541Y16535D02*
X102758D01*
X102034Y16236D01*
X101481Y15682D01*
X101181Y14958D01*
Y14175D01*
X101481Y13452D01*
X102034Y12898D01*
X102758Y12598D01*
X103541D01*
X104265Y12898D01*
X104818Y13452D01*
X105118Y14175D01*
Y14958D01*
X104818Y15682D01*
X104265Y16236D01*
X103541Y16535D01*
D02*
G37*
%LPD*%
D66*
X18898Y119528D02*
D03*
X18661Y83976D02*
D03*
X108780Y180157D02*
D03*
X18504Y47874D02*
D03*
D67*
X71260Y6004D02*
D03*
X45276D02*
D03*
D68*
X112382Y34252D02*
D03*
X103150Y19291D02*
D03*
X128085Y127525D02*
D03*
X72146Y83858D02*
D03*
X81299Y35433D02*
D03*
X39665Y23622D02*
D03*
X131496Y10630D02*
D03*
X112598Y19291D02*
D03*
X125591Y16929D02*
D03*
X61417Y27165D02*
D03*
X63287Y16535D02*
D03*
X148031Y131102D02*
D03*
X112106Y127559D02*
D03*
X72047Y97638D02*
D03*
X83740Y97898D02*
D03*
X25393Y9941D02*
D03*
X45669Y15650D02*
D03*
X38878Y61811D02*
D03*
X26378Y27953D02*
D03*
Y5906D02*
D03*
X154331Y166535D02*
D03*
X146457D02*
D03*
Y162598D02*
D03*
X150394D02*
D03*
X154331D02*
D03*
Y170472D02*
D03*
X146457D02*
D03*
X150394Y170472D02*
D03*
Y166535D02*
D03*
X82284Y79528D02*
D03*
X103228Y127898D02*
D03*
X75984Y127559D02*
D03*
X89764Y80039D02*
D03*
X120472Y133465D02*
D03*
Y139370D02*
D03*
X83740Y127898D02*
D03*
X43307Y110236D02*
D03*
X38063Y133740D02*
D03*
Y128740D02*
D03*
Y118740D02*
D03*
X38878Y68110D02*
D03*
X38189Y44488D02*
D03*
Y49606D02*
D03*
X32283Y59449D02*
D03*
X29133Y21440D02*
D03*
X62992Y6004D02*
D03*
X53543D02*
D03*
X70866Y15650D02*
D03*
X89764Y50039D02*
D03*
X146850Y26378D02*
D03*
X125591Y36024D02*
D03*
X109252Y50039D02*
D03*
X103937Y90551D02*
D03*
X103228Y97898D02*
D03*
X109193Y79980D02*
D03*
X120669Y82677D02*
D03*
Y76378D02*
D03*
X128543Y70079D02*
D03*
X147244Y85827D02*
D03*
X146850Y20866D02*
D03*
X150394D02*
D03*
Y26378D02*
D03*
Y31890D02*
D03*
X146850D02*
D03*
X150787Y74410D02*
D03*
Y85827D02*
D03*
Y79921D02*
D03*
X147244D02*
D03*
Y74410D02*
D03*
X151181Y131102D02*
D03*
Y142126D02*
D03*
X148031D02*
D03*
X151181Y136614D02*
D03*
X148031D02*
D03*
M02*
