G04*
G04 #@! TF.GenerationSoftware,Altium Limited,Altium Designer,21.9.2 (33)*
G04*
G04 Layer_Color=8421504*
%FSLAX25Y25*%
%MOIN*%
G70*
G04*
G04 #@! TF.SameCoordinates,6D25873D-4EA7-46F0-BCAE-82CFCE844350*
G04*
G04*
G04 #@! TF.FilePolarity,Positive*
G04*
G01*
G75*
%ADD16R,0.03150X0.02362*%
%ADD17R,0.02362X0.03150*%
G04:AMPARAMS|DCode=18|XSize=39.37mil|YSize=35.43mil|CornerRadius=4.43mil|HoleSize=0mil|Usage=FLASHONLY|Rotation=90.000|XOffset=0mil|YOffset=0mil|HoleType=Round|Shape=RoundedRectangle|*
%AMROUNDEDRECTD18*
21,1,0.03937,0.02657,0,0,90.0*
21,1,0.03051,0.03543,0,0,90.0*
1,1,0.00886,0.01329,0.01526*
1,1,0.00886,0.01329,-0.01526*
1,1,0.00886,-0.01329,-0.01526*
1,1,0.00886,-0.01329,0.01526*
%
%ADD18ROUNDEDRECTD18*%
%ADD19O,0.02165X0.05709*%
%ADD20R,0.03150X0.03543*%
G04:AMPARAMS|DCode=21|XSize=39.37mil|YSize=35.43mil|CornerRadius=4.43mil|HoleSize=0mil|Usage=FLASHONLY|Rotation=180.000|XOffset=0mil|YOffset=0mil|HoleType=Round|Shape=RoundedRectangle|*
%AMROUNDEDRECTD21*
21,1,0.03937,0.02657,0,0,180.0*
21,1,0.03051,0.03543,0,0,180.0*
1,1,0.00886,-0.01526,0.01329*
1,1,0.00886,0.01526,0.01329*
1,1,0.00886,0.01526,-0.01329*
1,1,0.00886,-0.01526,-0.01329*
%
%ADD21ROUNDEDRECTD21*%
G04:AMPARAMS|DCode=22|XSize=77.56mil|YSize=23.23mil|CornerRadius=2.9mil|HoleSize=0mil|Usage=FLASHONLY|Rotation=0.000|XOffset=0mil|YOffset=0mil|HoleType=Round|Shape=RoundedRectangle|*
%AMROUNDEDRECTD22*
21,1,0.07756,0.01742,0,0,0.0*
21,1,0.07175,0.02323,0,0,0.0*
1,1,0.00581,0.03588,-0.00871*
1,1,0.00581,-0.03588,-0.00871*
1,1,0.00581,-0.03588,0.00871*
1,1,0.00581,0.03588,0.00871*
%
%ADD22ROUNDEDRECTD22*%
G04:AMPARAMS|DCode=23|XSize=23.62mil|YSize=9.84mil|CornerRadius=1.97mil|HoleSize=0mil|Usage=FLASHONLY|Rotation=90.000|XOffset=0mil|YOffset=0mil|HoleType=Round|Shape=RoundedRectangle|*
%AMROUNDEDRECTD23*
21,1,0.02362,0.00591,0,0,90.0*
21,1,0.01968,0.00984,0,0,90.0*
1,1,0.00394,0.00295,0.00984*
1,1,0.00394,0.00295,-0.00984*
1,1,0.00394,-0.00295,-0.00984*
1,1,0.00394,-0.00295,0.00984*
%
%ADD23ROUNDEDRECTD23*%
G04:AMPARAMS|DCode=24|XSize=23.62mil|YSize=9.84mil|CornerRadius=1.97mil|HoleSize=0mil|Usage=FLASHONLY|Rotation=180.000|XOffset=0mil|YOffset=0mil|HoleType=Round|Shape=RoundedRectangle|*
%AMROUNDEDRECTD24*
21,1,0.02362,0.00591,0,0,180.0*
21,1,0.01968,0.00984,0,0,180.0*
1,1,0.00394,-0.00984,0.00295*
1,1,0.00394,0.00984,0.00295*
1,1,0.00394,0.00984,-0.00295*
1,1,0.00394,-0.00984,-0.00295*
%
%ADD24ROUNDEDRECTD24*%
%ADD25R,0.03543X0.03150*%
%ADD26R,0.11000X0.02900*%
%ADD27R,0.11811X0.11811*%
%ADD28R,0.11811X0.11811*%
%ADD29O,0.05709X0.02165*%
%ADD30R,0.06378X0.02362*%
G04:AMPARAMS|DCode=31|XSize=39.37mil|YSize=19.68mil|CornerRadius=2.46mil|HoleSize=0mil|Usage=FLASHONLY|Rotation=180.000|XOffset=0mil|YOffset=0mil|HoleType=Round|Shape=RoundedRectangle|*
%AMROUNDEDRECTD31*
21,1,0.03937,0.01476,0,0,180.0*
21,1,0.03445,0.01968,0,0,180.0*
1,1,0.00492,-0.01722,0.00738*
1,1,0.00492,0.01722,0.00738*
1,1,0.00492,0.01722,-0.00738*
1,1,0.00492,-0.01722,-0.00738*
%
%ADD31ROUNDEDRECTD31*%
G04:AMPARAMS|DCode=32|XSize=39.37mil|YSize=19.68mil|CornerRadius=2.46mil|HoleSize=0mil|Usage=FLASHONLY|Rotation=270.000|XOffset=0mil|YOffset=0mil|HoleType=Round|Shape=RoundedRectangle|*
%AMROUNDEDRECTD32*
21,1,0.03937,0.01476,0,0,270.0*
21,1,0.03445,0.01968,0,0,270.0*
1,1,0.00492,-0.00738,-0.01722*
1,1,0.00492,-0.00738,0.01722*
1,1,0.00492,0.00738,0.01722*
1,1,0.00492,0.00738,-0.01722*
%
%ADD32ROUNDEDRECTD32*%
%ADD33R,0.07480X0.07480*%
%ADD34R,0.06299X0.05512*%
%ADD35R,0.01575X0.05315*%
G36*
X131890Y165079D02*
X126260D01*
Y171142D01*
X131890D01*
Y165079D01*
D02*
G37*
G36*
X122874D02*
X117244D01*
Y171142D01*
X122874D01*
Y165079D01*
D02*
G37*
G36*
X131890Y155630D02*
X126260D01*
Y161693D01*
X131890D01*
Y155630D01*
D02*
G37*
G36*
X122874D02*
X117244D01*
Y161693D01*
X122874D01*
Y155630D01*
D02*
G37*
G36*
X145683Y143277D02*
X145738Y143223D01*
X145768Y143151D01*
X145768Y143112D01*
X145768Y141929D01*
X146063D01*
X146063Y137305D01*
X146063Y137305D01*
X146063Y137266D01*
X146033Y137192D01*
X145977Y137137D01*
X145904Y137106D01*
X145864Y137106D01*
X144687Y137106D01*
X144687Y137106D01*
X144647Y137106D01*
X144574Y137137D01*
X144518Y137192D01*
X144488Y137266D01*
Y137305D01*
Y141929D01*
X144783D01*
Y143112D01*
X144783Y143112D01*
X144783Y143151D01*
X144813Y143223D01*
X144868Y143277D01*
X144940Y143307D01*
X144978D01*
X145573Y143307D01*
X145573Y143307D01*
X145612Y143307D01*
X145683Y143277D01*
D02*
G37*
G36*
X142815Y143307D02*
X142854Y143307D01*
X142927Y143277D01*
X142982Y143222D01*
X143012Y143149D01*
X143012Y143110D01*
X143012Y143110D01*
Y141929D01*
X143307D01*
X143307Y137303D01*
X143307Y137244D01*
X143262Y137136D01*
X143179Y137053D01*
X143071Y137008D01*
X143012Y137008D01*
X143012Y137008D01*
X141890D01*
X141818Y137038D01*
X141762Y137093D01*
X141732Y137165D01*
X141732Y137205D01*
X141732Y137205D01*
Y141929D01*
X142027D01*
X142028Y143110D01*
Y143149D01*
X142058Y143222D01*
X142113Y143277D01*
X142185Y143307D01*
X142224Y143307D01*
X142224Y143307D01*
X142815Y143307D01*
D02*
G37*
G36*
X148327D02*
X148366Y143307D01*
X148438Y143277D01*
X148494Y143222D01*
X148524Y143149D01*
X148524Y143110D01*
X148524Y143110D01*
Y141929D01*
X148819D01*
X148819Y137205D01*
X148819Y137166D01*
X148789Y137093D01*
X148734Y137038D01*
X148661Y137008D01*
X148622Y137008D01*
X148622Y137008D01*
X147402D01*
X147329Y137038D01*
X147274Y137093D01*
X147244Y137166D01*
X147244Y137205D01*
X147244Y137205D01*
Y141929D01*
X147539D01*
X147539Y143110D01*
X147539Y143149D01*
X147569Y143222D01*
X147625Y143277D01*
X147697Y143307D01*
X147736Y143307D01*
X147736Y143307D01*
X148327Y143307D01*
D02*
G37*
G36*
X152165Y140059D02*
X152205Y140059D01*
X152277Y140029D01*
X152332Y139974D01*
X152362Y139901D01*
X152362Y139862D01*
X152362Y139862D01*
X152362Y139272D01*
X152362Y139233D01*
X152332Y139160D01*
X152277Y139105D01*
X152205Y139075D01*
X152165Y139075D01*
X152165D01*
X149803Y139075D01*
X149764D01*
X149692Y139105D01*
X149636Y139160D01*
X149606Y139233D01*
X149606Y139272D01*
X149606D01*
X149606Y139862D01*
X149606Y139901D01*
X149636Y139974D01*
X149692Y140029D01*
X149764Y140059D01*
X149803Y140059D01*
X149803Y140059D01*
X152165Y140059D01*
D02*
G37*
G36*
Y138091D02*
X152205Y138091D01*
X152277Y138061D01*
X152332Y138005D01*
X152362Y137933D01*
X152362Y137894D01*
X152362Y137894D01*
X152362Y137303D01*
X152362Y137264D01*
X152332Y137192D01*
X152277Y137136D01*
X152205Y137106D01*
X152165Y137106D01*
X152165D01*
X149803Y137106D01*
X149764D01*
X149692Y137136D01*
X149636Y137192D01*
X149606Y137264D01*
X149606Y137303D01*
X149606D01*
X149606Y137894D01*
X149606Y137933D01*
X149636Y138005D01*
X149692Y138061D01*
X149764Y138091D01*
X149803Y138091D01*
X149803Y138091D01*
X152165Y138091D01*
D02*
G37*
G36*
X148524Y136221D02*
X148582Y136221D01*
X148691Y136176D01*
X148774Y136092D01*
X148819Y135984D01*
X148819Y135925D01*
X148819Y135925D01*
Y131299D01*
X148524D01*
X148524Y130118D01*
X148524Y130079D01*
X148494Y130007D01*
X148438Y129951D01*
X148366Y129921D01*
X148327Y129921D01*
X148327Y129921D01*
X147697D01*
X147625Y129951D01*
X147569Y130007D01*
X147539Y130079D01*
X147539Y130118D01*
X147539Y130118D01*
Y131299D01*
X147244D01*
X147244Y136024D01*
X147244Y136063D01*
X147274Y136135D01*
X147329Y136190D01*
X147402Y136220D01*
X147441Y136220D01*
X147441Y136221D01*
X148524Y136221D01*
D02*
G37*
G36*
X143110D02*
X143149Y136221D01*
X143222Y136190D01*
X143277Y136135D01*
X143307Y136063D01*
X143307Y136024D01*
X143307Y136024D01*
Y131299D01*
X143012D01*
X143012Y130118D01*
X143012Y130079D01*
X142982Y130007D01*
X142927Y129951D01*
X142854Y129921D01*
X142815Y129921D01*
X142815Y129921D01*
X142185D01*
X142113Y129951D01*
X142058Y130007D01*
X142028Y130079D01*
X142028Y130118D01*
X142027Y130118D01*
Y131299D01*
X141732D01*
X141732Y136024D01*
X141732Y136063D01*
X141762Y136135D01*
X141818Y136190D01*
X141890Y136220D01*
X141929Y136220D01*
X141929Y136221D01*
X143110Y136221D01*
D02*
G37*
G36*
X145864Y136122D02*
X145904D01*
X145977Y136092D01*
X146033Y136036D01*
X146063Y135963D01*
Y135923D01*
X146063Y131299D01*
X145768D01*
Y130116D01*
X145768D01*
X145768Y130077D01*
X145738Y130006D01*
X145683Y129951D01*
X145612Y129921D01*
X144978D01*
X144940Y129921D01*
X144868Y129951D01*
X144813Y130006D01*
X144783Y130077D01*
X144783Y130116D01*
X144783Y131299D01*
X144488D01*
X144488Y135923D01*
X144488Y135923D01*
X144488Y135963D01*
X144518Y136036D01*
X144574Y136092D01*
X144648Y136122D01*
X144687Y136122D01*
X145864Y136122D01*
X145864Y136122D01*
D02*
G37*
G36*
X152165Y136122D02*
X152205Y136122D01*
X152277Y136092D01*
X152332Y136037D01*
X152362Y135964D01*
X152362Y135925D01*
X152362Y135925D01*
X152362Y135335D01*
X152362Y135295D01*
X152332Y135223D01*
X152277Y135168D01*
X152205Y135138D01*
X152165Y135138D01*
X152165D01*
X149803Y135138D01*
X149764D01*
X149692Y135168D01*
X149636Y135223D01*
X149606Y135295D01*
X149606Y135335D01*
X149606D01*
X149606Y135925D01*
X149606Y135964D01*
X149636Y136037D01*
X149692Y136092D01*
X149764Y136122D01*
X149803Y136122D01*
X149803Y136122D01*
X152165Y136122D01*
D02*
G37*
G36*
Y134153D02*
X152205Y134153D01*
X152277Y134124D01*
X152332Y134068D01*
X152362Y133996D01*
X152362Y133957D01*
X152362Y133957D01*
X152362Y133366D01*
X152362Y133327D01*
X152332Y133255D01*
X152277Y133199D01*
X152205Y133169D01*
X152165Y133169D01*
X152165D01*
X149803Y133169D01*
X149764D01*
X149692Y133199D01*
X149636Y133255D01*
X149606Y133327D01*
X149606Y133366D01*
X149606D01*
X149606Y133957D01*
X149606Y133996D01*
X149636Y134068D01*
X149692Y134124D01*
X149764Y134153D01*
X149803Y134153D01*
X149803Y134153D01*
X152165Y134153D01*
D02*
G37*
G36*
X144896Y86585D02*
X144951Y86530D01*
X144980Y86458D01*
X144980Y86419D01*
X144980Y85236D01*
X145276D01*
X145276Y80612D01*
X145275Y80612D01*
X145275Y80573D01*
X145245Y80500D01*
X145189Y80444D01*
X145116Y80413D01*
X145077Y80413D01*
X143900Y80413D01*
X143900Y80414D01*
X143860Y80414D01*
X143787Y80444D01*
X143731Y80500D01*
X143701Y80573D01*
Y80612D01*
Y85236D01*
X143996D01*
Y86419D01*
X143996Y86419D01*
X143996Y86458D01*
X144026Y86530D01*
X144080Y86585D01*
X144152Y86614D01*
X144191D01*
X144785Y86614D01*
X144785Y86614D01*
X144824Y86614D01*
X144896Y86585D01*
D02*
G37*
G36*
X142028Y86614D02*
X142067Y86614D01*
X142139Y86584D01*
X142194Y86529D01*
X142224Y86456D01*
X142224Y86417D01*
X142224Y86417D01*
Y85236D01*
X142520D01*
X142520Y80610D01*
X142520Y80551D01*
X142475Y80443D01*
X142392Y80360D01*
X142283Y80315D01*
X142224Y80315D01*
X142224Y80315D01*
X141103D01*
X141030Y80345D01*
X140975Y80400D01*
X140945Y80473D01*
X140945Y80512D01*
X140945Y80512D01*
Y85236D01*
X141240D01*
X141240Y86417D01*
Y86457D01*
X141270Y86529D01*
X141325Y86584D01*
X141398Y86614D01*
X141437Y86614D01*
X141437Y86614D01*
X142028Y86614D01*
D02*
G37*
G36*
X147539D02*
X147579Y86614D01*
X147651Y86584D01*
X147706Y86529D01*
X147736Y86457D01*
X147736Y86417D01*
X147736Y86417D01*
Y85236D01*
X148031D01*
X148031Y80512D01*
X148031Y80473D01*
X148002Y80400D01*
X147946Y80345D01*
X147874Y80315D01*
X147835Y80315D01*
X147835Y80315D01*
X146614D01*
X146542Y80345D01*
X146487Y80400D01*
X146457Y80473D01*
X146457Y80512D01*
X146457Y80512D01*
Y85236D01*
X146752D01*
X146752Y86417D01*
X146752Y86456D01*
X146782Y86529D01*
X146837Y86584D01*
X146910Y86614D01*
X146949Y86614D01*
X146949Y86614D01*
X147539Y86614D01*
D02*
G37*
G36*
X151378Y83366D02*
X151417Y83366D01*
X151489Y83336D01*
X151545Y83281D01*
X151575Y83208D01*
X151575Y83169D01*
X151575Y83169D01*
X151575Y82579D01*
X151575Y82540D01*
X151545Y82467D01*
X151489Y82412D01*
X151417Y82382D01*
X151378Y82382D01*
X151378D01*
X149016Y82382D01*
X148977D01*
X148904Y82412D01*
X148849Y82467D01*
X148819Y82540D01*
X148819Y82579D01*
X148819D01*
X148819Y83169D01*
X148819Y83208D01*
X148849Y83281D01*
X148904Y83336D01*
X148977Y83366D01*
X149016Y83366D01*
X149016Y83366D01*
X151378Y83366D01*
D02*
G37*
G36*
Y81398D02*
X151417Y81398D01*
X151489Y81368D01*
X151545Y81312D01*
X151575Y81240D01*
X151575Y81201D01*
X151575Y81201D01*
X151575Y80610D01*
X151575Y80571D01*
X151545Y80499D01*
X151489Y80443D01*
X151417Y80413D01*
X151378Y80413D01*
X151378D01*
X149016Y80413D01*
X148977D01*
X148904Y80443D01*
X148849Y80499D01*
X148819Y80571D01*
X148819Y80610D01*
X148819D01*
X148819Y81201D01*
X148819Y81240D01*
X148849Y81312D01*
X148904Y81368D01*
X148977Y81398D01*
X149016Y81398D01*
X149016Y81398D01*
X151378Y81398D01*
D02*
G37*
G36*
X147736Y79527D02*
X147795Y79527D01*
X147904Y79483D01*
X147986Y79400D01*
X148031Y79291D01*
X148031Y79232D01*
X148031Y79232D01*
Y74606D01*
X147736D01*
X147736Y73425D01*
X147736Y73386D01*
X147706Y73314D01*
X147651Y73258D01*
X147579Y73228D01*
X147539Y73228D01*
X147539Y73228D01*
X146910D01*
X146837Y73258D01*
X146782Y73314D01*
X146752Y73386D01*
X146752Y73425D01*
X146752Y73425D01*
Y74606D01*
X146457D01*
X146457Y79331D01*
X146457Y79370D01*
X146487Y79442D01*
X146542Y79498D01*
X146614Y79527D01*
X146654Y79527D01*
X146653Y79528D01*
X147736Y79527D01*
D02*
G37*
G36*
X142323D02*
X142362Y79527D01*
X142434Y79498D01*
X142490Y79442D01*
X142520Y79370D01*
X142520Y79331D01*
X142520Y79331D01*
Y74606D01*
X142224D01*
X142224Y73425D01*
X142224Y73386D01*
X142194Y73314D01*
X142139Y73258D01*
X142067Y73228D01*
X142028Y73228D01*
X142028Y73228D01*
X141398D01*
X141325Y73258D01*
X141270Y73314D01*
X141240Y73386D01*
X141240Y73425D01*
X141240Y73425D01*
Y74606D01*
X140945D01*
X140945Y79331D01*
X140945Y79370D01*
X140975Y79442D01*
X141030Y79498D01*
X141103Y79527D01*
X141142Y79527D01*
X141142Y79528D01*
X142323Y79527D01*
D02*
G37*
G36*
X145077Y79429D02*
X145116D01*
X145189Y79399D01*
X145245Y79343D01*
X145276Y79270D01*
Y79230D01*
X145276Y74606D01*
X144980D01*
Y73423D01*
X144980D01*
X144980Y73384D01*
X144951Y73313D01*
X144896Y73258D01*
X144824Y73228D01*
X144191D01*
X144152Y73228D01*
X144081Y73258D01*
X144026Y73313D01*
X143996Y73384D01*
X143996Y73423D01*
X143996Y74606D01*
X143701D01*
X143701Y79230D01*
X143701Y79230D01*
X143701Y79270D01*
X143731Y79343D01*
X143787Y79399D01*
X143860Y79429D01*
X143900Y79429D01*
X145077Y79429D01*
X145077Y79429D01*
D02*
G37*
G36*
X151378Y79429D02*
X151417Y79429D01*
X151489Y79399D01*
X151545Y79344D01*
X151575Y79271D01*
X151575Y79232D01*
X151575Y79232D01*
X151575Y78642D01*
X151575Y78603D01*
X151545Y78530D01*
X151489Y78475D01*
X151417Y78445D01*
X151378Y78445D01*
X151378D01*
X149016Y78445D01*
X148977D01*
X148904Y78475D01*
X148849Y78530D01*
X148819Y78603D01*
X148819Y78642D01*
X148819D01*
X148819Y79232D01*
X148819Y79271D01*
X148849Y79344D01*
X148904Y79399D01*
X148977Y79429D01*
X149016Y79429D01*
X149016Y79429D01*
X151378Y79429D01*
D02*
G37*
G36*
Y77461D02*
X151417Y77461D01*
X151489Y77431D01*
X151545Y77375D01*
X151575Y77303D01*
X151575Y77264D01*
X151575Y77264D01*
X151575Y76673D01*
X151575Y76634D01*
X151545Y76562D01*
X151489Y76506D01*
X151417Y76476D01*
X151378Y76476D01*
X151378D01*
X149016Y76476D01*
X148977D01*
X148904Y76506D01*
X148849Y76562D01*
X148819Y76634D01*
X148819Y76673D01*
X148819D01*
X148819Y77264D01*
X148819Y77303D01*
X148849Y77375D01*
X148904Y77431D01*
X148977Y77461D01*
X149016Y77461D01*
X149016Y77461D01*
X151378Y77461D01*
D02*
G37*
G36*
X144502Y33041D02*
X144557Y32986D01*
X144587Y32915D01*
X144587Y32876D01*
X144587Y31693D01*
X144882D01*
X144882Y27069D01*
X144882Y27069D01*
X144882Y27029D01*
X144852Y26956D01*
X144796Y26900D01*
X144723Y26870D01*
X144683Y26870D01*
X143506Y26870D01*
X143506Y26870D01*
X143466Y26870D01*
X143393Y26900D01*
X143337Y26956D01*
X143307Y27029D01*
Y27069D01*
Y31693D01*
X143602D01*
Y32876D01*
X143602Y32876D01*
X143602Y32915D01*
X143632Y32986D01*
X143687Y33041D01*
X143758Y33071D01*
X143797D01*
X144392Y33071D01*
X144392Y33071D01*
X144430Y33071D01*
X144502Y33041D01*
D02*
G37*
G36*
X141634Y33071D02*
X141673Y33071D01*
X141745Y33041D01*
X141801Y32985D01*
X141831Y32913D01*
X141831Y32874D01*
X141831Y32874D01*
Y31693D01*
X142126D01*
X142126Y27067D01*
X142126Y27008D01*
X142081Y26900D01*
X141998Y26817D01*
X141890Y26772D01*
X141831Y26772D01*
X141831Y26772D01*
X140709D01*
X140637Y26802D01*
X140581Y26857D01*
X140551Y26929D01*
X140551Y26968D01*
X140551Y26969D01*
Y31693D01*
X140847D01*
X140847Y32874D01*
Y32913D01*
X140876Y32985D01*
X140932Y33041D01*
X141004Y33071D01*
X141043Y33071D01*
X141043Y33071D01*
X141634Y33071D01*
D02*
G37*
G36*
X147146D02*
X147185Y33071D01*
X147257Y33041D01*
X147313Y32985D01*
X147343Y32913D01*
X147343Y32874D01*
X147343Y32874D01*
Y31693D01*
X147638D01*
X147638Y26969D01*
X147638Y26929D01*
X147608Y26857D01*
X147553Y26802D01*
X147480Y26772D01*
X147441Y26772D01*
X147441Y26772D01*
X146221D01*
X146148Y26802D01*
X146093Y26857D01*
X146063Y26929D01*
X146063Y26969D01*
X146063Y26969D01*
Y31693D01*
X146358D01*
X146358Y32874D01*
X146358Y32913D01*
X146388Y32985D01*
X146444Y33041D01*
X146516Y33071D01*
X146555Y33071D01*
X146555Y33071D01*
X147146Y33071D01*
D02*
G37*
G36*
X150984Y29823D02*
X151023Y29823D01*
X151096Y29793D01*
X151151Y29737D01*
X151181Y29665D01*
X151181Y29626D01*
X151181Y29626D01*
X151181Y29035D01*
X151181Y28996D01*
X151151Y28924D01*
X151096Y28868D01*
X151023Y28839D01*
X150984Y28839D01*
X150984D01*
X148622Y28839D01*
X148583D01*
X148511Y28868D01*
X148455Y28924D01*
X148425Y28996D01*
X148425Y29035D01*
X148425D01*
X148425Y29626D01*
X148425Y29665D01*
X148455Y29737D01*
X148511Y29793D01*
X148583Y29823D01*
X148622Y29823D01*
X148622Y29823D01*
X150984Y29823D01*
D02*
G37*
G36*
Y27854D02*
X151023Y27854D01*
X151096Y27824D01*
X151151Y27769D01*
X151181Y27697D01*
X151181Y27657D01*
X151181Y27657D01*
X151181Y27067D01*
X151181Y27028D01*
X151151Y26955D01*
X151096Y26900D01*
X151023Y26870D01*
X150984Y26870D01*
X150984D01*
X148622Y26870D01*
X148583D01*
X148511Y26900D01*
X148455Y26955D01*
X148425Y27028D01*
X148425Y27067D01*
X148425D01*
X148425Y27657D01*
X148425Y27697D01*
X148455Y27769D01*
X148511Y27824D01*
X148583Y27854D01*
X148622Y27854D01*
X148622Y27854D01*
X150984Y27854D01*
D02*
G37*
G36*
X147343Y25984D02*
X147401Y25984D01*
X147510Y25939D01*
X147593Y25856D01*
X147638Y25748D01*
X147638Y25689D01*
X147638Y25689D01*
Y21063D01*
X147343D01*
X147343Y19882D01*
X147343Y19843D01*
X147313Y19770D01*
X147257Y19715D01*
X147185Y19685D01*
X147146Y19685D01*
X147146Y19685D01*
X146516D01*
X146444Y19715D01*
X146388Y19770D01*
X146358Y19843D01*
X146358Y19882D01*
X146358Y19882D01*
Y21063D01*
X146063D01*
X146063Y25787D01*
X146063Y25826D01*
X146093Y25899D01*
X146148Y25954D01*
X146221Y25984D01*
X146260Y25984D01*
X146260Y25984D01*
X147343Y25984D01*
D02*
G37*
G36*
X141929D02*
X141968Y25984D01*
X142041Y25954D01*
X142096Y25899D01*
X142126Y25826D01*
X142126Y25787D01*
X142126Y25787D01*
Y21063D01*
X141831D01*
X141831Y19882D01*
X141831Y19843D01*
X141801Y19770D01*
X141745Y19715D01*
X141673Y19685D01*
X141634Y19685D01*
X141634Y19685D01*
X141004D01*
X140932Y19715D01*
X140876Y19770D01*
X140847Y19843D01*
X140847Y19882D01*
X140847Y19882D01*
Y21063D01*
X140551D01*
X140551Y25787D01*
X140551Y25826D01*
X140581Y25899D01*
X140637Y25954D01*
X140709Y25984D01*
X140748Y25984D01*
X140748Y25984D01*
X141929Y25984D01*
D02*
G37*
G36*
X144683Y25886D02*
X144723D01*
X144796Y25855D01*
X144852Y25800D01*
X144882Y25727D01*
Y25687D01*
X144882Y21063D01*
X144587D01*
Y19880D01*
X144587D01*
X144587Y19841D01*
X144557Y19770D01*
X144502Y19715D01*
X144430Y19685D01*
X143797D01*
X143758Y19685D01*
X143687Y19715D01*
X143632Y19770D01*
X143602Y19841D01*
X143602Y19880D01*
X143602Y21063D01*
X143307D01*
X143307Y25687D01*
X143307Y25687D01*
X143307Y25727D01*
X143337Y25800D01*
X143393Y25855D01*
X143466Y25886D01*
X143506Y25886D01*
X144683Y25886D01*
X144683Y25886D01*
D02*
G37*
G36*
X150984Y25886D02*
X151023Y25886D01*
X151096Y25856D01*
X151151Y25800D01*
X151181Y25728D01*
X151181Y25689D01*
X151181Y25689D01*
X151181Y25098D01*
X151181Y25059D01*
X151151Y24987D01*
X151096Y24931D01*
X151023Y24902D01*
X150984Y24902D01*
X150984D01*
X148622Y24902D01*
X148583D01*
X148511Y24931D01*
X148455Y24987D01*
X148425Y25059D01*
X148425Y25098D01*
X148425D01*
X148425Y25689D01*
X148425Y25728D01*
X148455Y25800D01*
X148511Y25856D01*
X148583Y25886D01*
X148622Y25886D01*
X148622Y25886D01*
X150984Y25886D01*
D02*
G37*
G36*
Y23917D02*
X151023Y23917D01*
X151096Y23887D01*
X151151Y23832D01*
X151181Y23760D01*
X151181Y23720D01*
X151181Y23720D01*
X151181Y23130D01*
X151181Y23091D01*
X151151Y23018D01*
X151096Y22963D01*
X151023Y22933D01*
X150984Y22933D01*
X150984D01*
X148622Y22933D01*
X148583D01*
X148511Y22963D01*
X148455Y23018D01*
X148425Y23091D01*
X148425Y23130D01*
X148425D01*
X148425Y23720D01*
X148425Y23760D01*
X148455Y23832D01*
X148511Y23887D01*
X148583Y23917D01*
X148622Y23917D01*
X148622Y23917D01*
X150984Y23917D01*
D02*
G37*
D16*
X115354Y12303D02*
D03*
Y6594D02*
D03*
X134646Y108366D02*
D03*
Y102657D02*
D03*
D17*
X135531Y58661D02*
D03*
X129823D02*
D03*
X87500Y29921D02*
D03*
X81791D02*
D03*
D18*
X129724Y53543D02*
D03*
X136417D02*
D03*
X110039Y6693D02*
D03*
X103347D02*
D03*
X123425Y102362D02*
D03*
X116732D02*
D03*
X87992Y35433D02*
D03*
X81299D02*
D03*
X136221Y126772D02*
D03*
X129528D02*
D03*
X127165Y139370D02*
D03*
X120472D02*
D03*
X127165Y133465D02*
D03*
X120472D02*
D03*
X135236Y70079D02*
D03*
X128543D02*
D03*
X127362Y82677D02*
D03*
X120669D02*
D03*
Y76378D02*
D03*
X127362D02*
D03*
D19*
X47638Y89468D02*
D03*
X66535D02*
D03*
X60236D02*
D03*
X63386D02*
D03*
X57087D02*
D03*
Y56201D02*
D03*
X53937D02*
D03*
X63386D02*
D03*
X66535D02*
D03*
X60236D02*
D03*
X50787Y89468D02*
D03*
X44488D02*
D03*
X53937D02*
D03*
X47638Y56201D02*
D03*
X50787D02*
D03*
X44488D02*
D03*
D20*
X72047Y97638D02*
D03*
X66535D02*
D03*
X43701Y44488D02*
D03*
X38189D02*
D03*
X45276Y23622D02*
D03*
X39764D02*
D03*
X48819Y110236D02*
D03*
X43307D02*
D03*
X31890Y5906D02*
D03*
X26378D02*
D03*
X31890Y27953D02*
D03*
X26378D02*
D03*
X109449Y90551D02*
D03*
X103937D02*
D03*
X43701Y49606D02*
D03*
X38189D02*
D03*
D21*
X125591Y23622D02*
D03*
Y16929D02*
D03*
Y36024D02*
D03*
Y29331D02*
D03*
X131496Y17323D02*
D03*
Y10630D02*
D03*
D22*
X109252Y70039D02*
D03*
Y75039D02*
D03*
Y60039D02*
D03*
Y65039D02*
D03*
Y80039D02*
D03*
Y85039D02*
D03*
Y55039D02*
D03*
Y50039D02*
D03*
X89764Y80039D02*
D03*
Y70039D02*
D03*
Y75039D02*
D03*
Y85039D02*
D03*
Y55039D02*
D03*
Y50039D02*
D03*
Y65039D02*
D03*
Y60039D02*
D03*
X83740Y132898D02*
D03*
Y127898D02*
D03*
Y122898D02*
D03*
Y117898D02*
D03*
Y112898D02*
D03*
Y107898D02*
D03*
Y102898D02*
D03*
Y97898D02*
D03*
X103228D02*
D03*
Y102898D02*
D03*
Y107898D02*
D03*
Y112898D02*
D03*
Y117898D02*
D03*
Y122898D02*
D03*
Y127898D02*
D03*
Y132898D02*
D03*
D23*
X140256Y142126D02*
D03*
X138287D02*
D03*
X136319D02*
D03*
Y131102D02*
D03*
X140256D02*
D03*
X138287D02*
D03*
X139469Y85433D02*
D03*
X137500D02*
D03*
X135531D02*
D03*
Y74410D02*
D03*
X139469D02*
D03*
X137500D02*
D03*
X139075Y31890D02*
D03*
X137106D02*
D03*
X135138D02*
D03*
Y20866D02*
D03*
X139075D02*
D03*
X137106D02*
D03*
D24*
X134252Y139567D02*
D03*
Y135630D02*
D03*
Y137598D02*
D03*
Y133661D02*
D03*
X133465Y82874D02*
D03*
Y78937D02*
D03*
Y80905D02*
D03*
Y76968D02*
D03*
X133071Y29331D02*
D03*
Y25394D02*
D03*
Y27362D02*
D03*
Y23425D02*
D03*
D25*
X75984Y133071D02*
D03*
Y127559D02*
D03*
X112598Y24803D02*
D03*
Y19291D02*
D03*
X103150Y24803D02*
D03*
Y19291D02*
D03*
X82284Y85039D02*
D03*
Y79528D02*
D03*
X32283Y64961D02*
D03*
Y59449D02*
D03*
X111024Y133071D02*
D03*
Y127559D02*
D03*
D26*
X54063Y138740D02*
D03*
Y133740D02*
D03*
Y128740D02*
D03*
Y118740D02*
D03*
Y123740D02*
D03*
X38063Y133740D02*
D03*
Y123740D02*
D03*
Y128740D02*
D03*
Y138740D02*
D03*
Y118740D02*
D03*
D27*
X148819Y12598D02*
D03*
Y66142D02*
D03*
X150394Y150787D02*
D03*
X144488Y93701D02*
D03*
X148425Y122441D02*
D03*
X144095Y40157D02*
D03*
D28*
X105905Y163386D02*
D03*
X150394Y166535D02*
D03*
D29*
X72146Y83858D02*
D03*
Y77559D02*
D03*
Y74410D02*
D03*
Y80709D02*
D03*
Y71260D02*
D03*
Y64961D02*
D03*
Y61811D02*
D03*
Y68110D02*
D03*
X38878Y80709D02*
D03*
Y77559D02*
D03*
Y83858D02*
D03*
Y71260D02*
D03*
Y68110D02*
D03*
Y74410D02*
D03*
Y61811D02*
D03*
Y64961D02*
D03*
D30*
X139173Y160886D02*
D03*
Y165886D02*
D03*
Y155886D02*
D03*
Y170886D02*
D03*
D31*
X103366Y37992D02*
D03*
Y30512D02*
D03*
X112382Y37992D02*
D03*
Y34252D02*
D03*
Y30512D02*
D03*
X52579Y30906D02*
D03*
Y23425D02*
D03*
X61594Y30906D02*
D03*
Y27165D02*
D03*
Y23425D02*
D03*
D32*
X25393Y12424D02*
D03*
X32873D02*
D03*
X25393Y21440D02*
D03*
X29133D02*
D03*
X32873D02*
D03*
D33*
X62992Y6004D02*
D03*
X53543D02*
D03*
D34*
X70866Y15650D02*
D03*
X45669D02*
D03*
D35*
X63386Y16535D02*
D03*
X60827D02*
D03*
X58268D02*
D03*
X55709D02*
D03*
X53150D02*
D03*
M02*
