M48
;Layer_Color=9474304
;FILE_FORMAT=2:4
INCH,LZ
;TYPE=PLATED
T1F00S00C0.0079
T2F00S00C0.0118
T4F00S00C0.0315
T5F00S00C0.1181
;TYPE=NON_PLATED
T6F00S00C0.0591
%
T01
X00813Y003543
X008976Y005004
X010925
X011575Y005118
X012205Y005866
X012854Y007008
X012067Y007638
Y008268
X010919Y007998
X010394Y009055
X010323Y00979
X008374
X008228Y007953
X008976Y008004
X011299Y010787
X014173Y008504
Y007992
Y00748
X014724Y007441
X015079
Y007992
X014724
Y008583
X015079
X015039Y003189
X014685
Y002638
X015039
Y002087
X014685
X014134
Y002638
X01414Y003227
X012559Y003602
X011238Y003425
X01126Y001929
X010315Y001929
X012559Y001693
X01315Y001063
X007087Y001565
X006329Y001654
X006299Y0006
X005354
X004567Y001565
X003967Y002362
X002913Y002144
X002638Y002795
X002539Y000994
X002638Y000591
X003819Y004449
Y004961
X003888Y006181
Y006811
X003228Y005945
X006142Y002717
X007215Y008386
X007205Y009764
X004331Y011024
X003806Y011874
Y012874
Y013374
X007598Y012756
X008374Y01279
X010323
X011211Y012756
X012047Y013346
Y013937
X012808Y012753
X014252Y013228
Y013661
Y014055
X014803Y014213
X015118
Y013661
X014803
Y01311
X015118
X015039Y01626
Y016654
Y017047
X015433Y017047
Y016654
Y01626
X014646
Y016654
Y017047
X014252Y016575
X013917Y016589
X013622Y016575
Y016063
X013917Y016089
X014252Y016063
X014213Y015551
X013917Y015589
X013622Y015551
T02
X008179Y002992
X007756Y004134
X007634Y006185
X007795Y006811
X00839Y006579
X008976Y005984
Y007504
X008937Y008504
X008346Y010787
X008374Y01129
X011457Y011299
X012441Y011457
X012795Y010984
X010945Y009882
X011693Y006457
X012205Y006732
X012362Y00622
X012756Y004646
X012165Y003189
X011654
X01126Y00248
X010315
Y001457
X004528Y002362
X00437Y004094
X004764Y004764
X005075Y005043
X005437
X006174Y005177
X006457Y004724
X00685Y005039
X006654Y006417
X006339Y00626
X005394Y00622
X005142Y006984
X004606Y007087
X004449Y006654
X004764Y008189
X005705Y008271
X005394Y009606
X005079Y009724
X004882Y010591
X006024Y009843
X007047Y009252
X00748Y010787
Y01126
X003268Y00126
X001929Y001654
X002795Y013858
X006339Y013839
X006654Y013386
X011102Y013307
T04
X00085Y005287
Y006287
X00185Y005787
Y004787
X001866Y008398
Y009398
X000866Y009898
Y008898
X00089Y012453
Y013453
X00189Y012953
Y011953
X010878Y018016
X011878
X012378Y019016
X011378
T05
X001181Y018504
X014567
T06
X001142Y004236
X001157Y007846
X001181Y011402
X010327Y018724
M30
