G04*
G04 #@! TF.GenerationSoftware,Altium Limited,Altium Designer,21.9.2 (33)*
G04*
G04 Layer_Color=255*
%FSLAX25Y25*%
%MOIN*%
G70*
G04*
G04 #@! TF.SameCoordinates,6D25873D-4EA7-46F0-BCAE-82CFCE844350*
G04*
G04*
G04 #@! TF.FilePolarity,Positive*
G04*
G01*
G75*
%ADD16R,0.03150X0.02362*%
%ADD17R,0.02362X0.03150*%
G04:AMPARAMS|DCode=18|XSize=39.37mil|YSize=35.43mil|CornerRadius=4.43mil|HoleSize=0mil|Usage=FLASHONLY|Rotation=90.000|XOffset=0mil|YOffset=0mil|HoleType=Round|Shape=RoundedRectangle|*
%AMROUNDEDRECTD18*
21,1,0.03937,0.02657,0,0,90.0*
21,1,0.03051,0.03543,0,0,90.0*
1,1,0.00886,0.01329,0.01526*
1,1,0.00886,0.01329,-0.01526*
1,1,0.00886,-0.01329,-0.01526*
1,1,0.00886,-0.01329,0.01526*
%
%ADD18ROUNDEDRECTD18*%
%ADD19O,0.02165X0.05709*%
%ADD20R,0.03150X0.03543*%
G04:AMPARAMS|DCode=21|XSize=39.37mil|YSize=35.43mil|CornerRadius=4.43mil|HoleSize=0mil|Usage=FLASHONLY|Rotation=180.000|XOffset=0mil|YOffset=0mil|HoleType=Round|Shape=RoundedRectangle|*
%AMROUNDEDRECTD21*
21,1,0.03937,0.02657,0,0,180.0*
21,1,0.03051,0.03543,0,0,180.0*
1,1,0.00886,-0.01526,0.01329*
1,1,0.00886,0.01526,0.01329*
1,1,0.00886,0.01526,-0.01329*
1,1,0.00886,-0.01526,-0.01329*
%
%ADD21ROUNDEDRECTD21*%
G04:AMPARAMS|DCode=22|XSize=77.56mil|YSize=23.23mil|CornerRadius=2.9mil|HoleSize=0mil|Usage=FLASHONLY|Rotation=0.000|XOffset=0mil|YOffset=0mil|HoleType=Round|Shape=RoundedRectangle|*
%AMROUNDEDRECTD22*
21,1,0.07756,0.01742,0,0,0.0*
21,1,0.07175,0.02323,0,0,0.0*
1,1,0.00581,0.03588,-0.00871*
1,1,0.00581,-0.03588,-0.00871*
1,1,0.00581,-0.03588,0.00871*
1,1,0.00581,0.03588,0.00871*
%
%ADD22ROUNDEDRECTD22*%
G04:AMPARAMS|DCode=23|XSize=23.62mil|YSize=9.84mil|CornerRadius=1.97mil|HoleSize=0mil|Usage=FLASHONLY|Rotation=90.000|XOffset=0mil|YOffset=0mil|HoleType=Round|Shape=RoundedRectangle|*
%AMROUNDEDRECTD23*
21,1,0.02362,0.00591,0,0,90.0*
21,1,0.01968,0.00984,0,0,90.0*
1,1,0.00394,0.00295,0.00984*
1,1,0.00394,0.00295,-0.00984*
1,1,0.00394,-0.00295,-0.00984*
1,1,0.00394,-0.00295,0.00984*
%
%ADD23ROUNDEDRECTD23*%
G04:AMPARAMS|DCode=24|XSize=23.62mil|YSize=9.84mil|CornerRadius=1.97mil|HoleSize=0mil|Usage=FLASHONLY|Rotation=180.000|XOffset=0mil|YOffset=0mil|HoleType=Round|Shape=RoundedRectangle|*
%AMROUNDEDRECTD24*
21,1,0.02362,0.00591,0,0,180.0*
21,1,0.01968,0.00984,0,0,180.0*
1,1,0.00394,-0.00984,0.00295*
1,1,0.00394,0.00984,0.00295*
1,1,0.00394,0.00984,-0.00295*
1,1,0.00394,-0.00984,-0.00295*
%
%ADD24ROUNDEDRECTD24*%
%ADD25R,0.03543X0.03150*%
%ADD26R,0.11000X0.02900*%
%ADD27R,0.11811X0.11811*%
%ADD28R,0.11811X0.11811*%
%ADD29O,0.05709X0.02165*%
%ADD30R,0.06378X0.02362*%
G04:AMPARAMS|DCode=31|XSize=39.37mil|YSize=19.68mil|CornerRadius=2.46mil|HoleSize=0mil|Usage=FLASHONLY|Rotation=180.000|XOffset=0mil|YOffset=0mil|HoleType=Round|Shape=RoundedRectangle|*
%AMROUNDEDRECTD31*
21,1,0.03937,0.01476,0,0,180.0*
21,1,0.03445,0.01968,0,0,180.0*
1,1,0.00492,-0.01722,0.00738*
1,1,0.00492,0.01722,0.00738*
1,1,0.00492,0.01722,-0.00738*
1,1,0.00492,-0.01722,-0.00738*
%
%ADD31ROUNDEDRECTD31*%
G04:AMPARAMS|DCode=32|XSize=39.37mil|YSize=19.68mil|CornerRadius=2.46mil|HoleSize=0mil|Usage=FLASHONLY|Rotation=270.000|XOffset=0mil|YOffset=0mil|HoleType=Round|Shape=RoundedRectangle|*
%AMROUNDEDRECTD32*
21,1,0.03937,0.01476,0,0,270.0*
21,1,0.03445,0.01968,0,0,270.0*
1,1,0.00492,-0.00738,-0.01722*
1,1,0.00492,-0.00738,0.01722*
1,1,0.00492,0.00738,0.01722*
1,1,0.00492,0.00738,-0.01722*
%
%ADD32ROUNDEDRECTD32*%
%ADD33R,0.07480X0.07480*%
%ADD34R,0.06299X0.05512*%
%ADD35R,0.01575X0.05315*%
%ADD60R,0.00984X0.02362*%
%ADD61R,0.18032X0.18898*%
%ADD66C,0.05118*%
%ADD67O,0.03543X0.07087*%
D16*
X115354Y12303D02*
D03*
Y6594D02*
D03*
X134646Y108366D02*
D03*
Y102657D02*
D03*
D17*
X135531Y58661D02*
D03*
X129823D02*
D03*
X87500Y29921D02*
D03*
X81791D02*
D03*
D18*
X129724Y53543D02*
D03*
X136417D02*
D03*
X110039Y6693D02*
D03*
X103347D02*
D03*
X123425Y102362D02*
D03*
X116732D02*
D03*
X87992Y35433D02*
D03*
X81299D02*
D03*
X136221Y126772D02*
D03*
X129528D02*
D03*
X127165Y139370D02*
D03*
X120472D02*
D03*
X127165Y133465D02*
D03*
X120472D02*
D03*
X135236Y70079D02*
D03*
X128543D02*
D03*
X127362Y82677D02*
D03*
X120669D02*
D03*
Y76378D02*
D03*
X127362D02*
D03*
D19*
X47638Y89468D02*
D03*
X66535D02*
D03*
X60236D02*
D03*
X63386D02*
D03*
X57087D02*
D03*
Y56201D02*
D03*
X53937D02*
D03*
X63386D02*
D03*
X66535D02*
D03*
X60236D02*
D03*
X50787Y89468D02*
D03*
X44488D02*
D03*
X53937D02*
D03*
X47638Y56201D02*
D03*
X50787D02*
D03*
X44488D02*
D03*
D20*
X72047Y97638D02*
D03*
X66535D02*
D03*
X43701Y44488D02*
D03*
X38189D02*
D03*
X45276Y23622D02*
D03*
X39764D02*
D03*
X48819Y110236D02*
D03*
X43307D02*
D03*
X31890Y5906D02*
D03*
X26378D02*
D03*
X31890Y27953D02*
D03*
X26378D02*
D03*
X109449Y90551D02*
D03*
X103937D02*
D03*
X43701Y49606D02*
D03*
X38189D02*
D03*
D21*
X125591Y23622D02*
D03*
Y16929D02*
D03*
Y36024D02*
D03*
Y29331D02*
D03*
X131496Y17323D02*
D03*
Y10630D02*
D03*
D22*
X109252Y70039D02*
D03*
Y75039D02*
D03*
Y60039D02*
D03*
Y65039D02*
D03*
Y80039D02*
D03*
Y85039D02*
D03*
Y55039D02*
D03*
Y50039D02*
D03*
X89764Y80039D02*
D03*
Y70039D02*
D03*
Y75039D02*
D03*
Y85039D02*
D03*
Y55039D02*
D03*
Y50039D02*
D03*
Y65039D02*
D03*
Y60039D02*
D03*
X83740Y132898D02*
D03*
Y127898D02*
D03*
Y122898D02*
D03*
Y117898D02*
D03*
Y112898D02*
D03*
Y107898D02*
D03*
Y102898D02*
D03*
Y97898D02*
D03*
X103228D02*
D03*
Y102898D02*
D03*
Y107898D02*
D03*
Y112898D02*
D03*
Y117898D02*
D03*
Y122898D02*
D03*
Y127898D02*
D03*
Y132898D02*
D03*
D23*
X140256Y142126D02*
D03*
X138287D02*
D03*
X136319D02*
D03*
Y131102D02*
D03*
X140256D02*
D03*
X138287D02*
D03*
X139469Y85433D02*
D03*
X137500D02*
D03*
X135531D02*
D03*
Y74410D02*
D03*
X139469D02*
D03*
X137500D02*
D03*
X139075Y31890D02*
D03*
X137106D02*
D03*
X135138D02*
D03*
Y20866D02*
D03*
X139075D02*
D03*
X137106D02*
D03*
D24*
X134252Y139567D02*
D03*
Y135630D02*
D03*
Y137598D02*
D03*
Y133661D02*
D03*
X133465Y82874D02*
D03*
Y78937D02*
D03*
Y80905D02*
D03*
Y76968D02*
D03*
X133071Y29331D02*
D03*
Y25394D02*
D03*
Y27362D02*
D03*
Y23425D02*
D03*
D25*
X75984Y133071D02*
D03*
Y127559D02*
D03*
X112598Y24803D02*
D03*
Y19291D02*
D03*
X103150Y24803D02*
D03*
Y19291D02*
D03*
X82284Y85039D02*
D03*
Y79528D02*
D03*
X32283Y64961D02*
D03*
Y59449D02*
D03*
X111024Y133071D02*
D03*
Y127559D02*
D03*
D26*
X54063Y138740D02*
D03*
Y133740D02*
D03*
Y128740D02*
D03*
Y118740D02*
D03*
Y123740D02*
D03*
X38063Y133740D02*
D03*
Y123740D02*
D03*
Y128740D02*
D03*
Y138740D02*
D03*
Y118740D02*
D03*
D27*
X148819Y12598D02*
D03*
Y66142D02*
D03*
X150394Y150787D02*
D03*
X144488Y93701D02*
D03*
X148425Y122441D02*
D03*
X144095Y40157D02*
D03*
D28*
X105905Y163386D02*
D03*
X150394Y166535D02*
D03*
D29*
X72146Y83858D02*
D03*
Y77559D02*
D03*
Y74410D02*
D03*
Y80709D02*
D03*
Y71260D02*
D03*
Y64961D02*
D03*
Y61811D02*
D03*
Y68110D02*
D03*
X38878Y80709D02*
D03*
Y77559D02*
D03*
Y83858D02*
D03*
Y71260D02*
D03*
Y68110D02*
D03*
Y74410D02*
D03*
Y61811D02*
D03*
Y64961D02*
D03*
D30*
X139173Y160886D02*
D03*
Y165886D02*
D03*
Y155886D02*
D03*
Y170886D02*
D03*
D31*
X103366Y37992D02*
D03*
Y30512D02*
D03*
X112382Y37992D02*
D03*
Y34252D02*
D03*
Y30512D02*
D03*
X52579Y30906D02*
D03*
Y23425D02*
D03*
X61594Y30906D02*
D03*
Y27165D02*
D03*
Y23425D02*
D03*
D32*
X25393Y12424D02*
D03*
X32873D02*
D03*
X25393Y21440D02*
D03*
X29133D02*
D03*
X32873D02*
D03*
D33*
X62992Y6004D02*
D03*
X53543D02*
D03*
D34*
X70866Y15650D02*
D03*
X45669D02*
D03*
D35*
X63386Y16535D02*
D03*
X60827D02*
D03*
X58268D02*
D03*
X55709D02*
D03*
X53150D02*
D03*
D60*
X148031Y136614D02*
D03*
X145276Y140205D02*
D03*
Y133024D02*
D03*
X142520Y136614D02*
D03*
X147244Y79921D02*
D03*
X144488Y83512D02*
D03*
Y76331D02*
D03*
X141732Y79921D02*
D03*
X146850Y26378D02*
D03*
X144095Y29969D02*
D03*
Y22787D02*
D03*
X141339Y26378D02*
D03*
D61*
X124567Y163386D02*
D03*
D66*
X18898Y119528D02*
D03*
Y129528D02*
D03*
X8898Y124528D02*
D03*
Y134528D02*
D03*
X18661Y83976D02*
D03*
X8661Y98976D02*
D03*
X18661Y93976D02*
D03*
X8661Y88976D02*
D03*
X123779Y190157D02*
D03*
X118780Y180157D02*
D03*
X113779Y190157D02*
D03*
X108780Y180157D02*
D03*
X18504Y47874D02*
D03*
X8504Y62874D02*
D03*
X18504Y57874D02*
D03*
X8504Y52874D02*
D03*
D67*
X71260Y6004D02*
D03*
X45276D02*
D03*
M02*
