G04*
G04 #@! TF.GenerationSoftware,Altium Limited,Altium Designer,21.9.2 (33)*
G04*
G04 Layer_Physical_Order=1*
G04 Layer_Color=255*
%FSLAX25Y25*%
%MOIN*%
G70*
G04*
G04 #@! TF.SameCoordinates,6D25873D-4EA7-46F0-BCAE-82CFCE844350*
G04*
G04*
G04 #@! TF.FilePolarity,Positive*
G04*
G01*
G75*
%ADD10C,0.00787*%
%ADD12C,0.02362*%
%ADD16R,0.03150X0.02362*%
%ADD17R,0.02362X0.03150*%
G04:AMPARAMS|DCode=18|XSize=39.37mil|YSize=35.43mil|CornerRadius=4.43mil|HoleSize=0mil|Usage=FLASHONLY|Rotation=90.000|XOffset=0mil|YOffset=0mil|HoleType=Round|Shape=RoundedRectangle|*
%AMROUNDEDRECTD18*
21,1,0.03937,0.02657,0,0,90.0*
21,1,0.03051,0.03543,0,0,90.0*
1,1,0.00886,0.01329,0.01526*
1,1,0.00886,0.01329,-0.01526*
1,1,0.00886,-0.01329,-0.01526*
1,1,0.00886,-0.01329,0.01526*
%
%ADD18ROUNDEDRECTD18*%
%ADD19O,0.02165X0.05709*%
%ADD20R,0.03150X0.03543*%
G04:AMPARAMS|DCode=21|XSize=39.37mil|YSize=35.43mil|CornerRadius=4.43mil|HoleSize=0mil|Usage=FLASHONLY|Rotation=180.000|XOffset=0mil|YOffset=0mil|HoleType=Round|Shape=RoundedRectangle|*
%AMROUNDEDRECTD21*
21,1,0.03937,0.02657,0,0,180.0*
21,1,0.03051,0.03543,0,0,180.0*
1,1,0.00886,-0.01526,0.01329*
1,1,0.00886,0.01526,0.01329*
1,1,0.00886,0.01526,-0.01329*
1,1,0.00886,-0.01526,-0.01329*
%
%ADD21ROUNDEDRECTD21*%
G04:AMPARAMS|DCode=22|XSize=77.56mil|YSize=23.23mil|CornerRadius=2.9mil|HoleSize=0mil|Usage=FLASHONLY|Rotation=0.000|XOffset=0mil|YOffset=0mil|HoleType=Round|Shape=RoundedRectangle|*
%AMROUNDEDRECTD22*
21,1,0.07756,0.01742,0,0,0.0*
21,1,0.07175,0.02323,0,0,0.0*
1,1,0.00581,0.03588,-0.00871*
1,1,0.00581,-0.03588,-0.00871*
1,1,0.00581,-0.03588,0.00871*
1,1,0.00581,0.03588,0.00871*
%
%ADD22ROUNDEDRECTD22*%
G04:AMPARAMS|DCode=23|XSize=23.62mil|YSize=9.84mil|CornerRadius=1.97mil|HoleSize=0mil|Usage=FLASHONLY|Rotation=90.000|XOffset=0mil|YOffset=0mil|HoleType=Round|Shape=RoundedRectangle|*
%AMROUNDEDRECTD23*
21,1,0.02362,0.00591,0,0,90.0*
21,1,0.01968,0.00984,0,0,90.0*
1,1,0.00394,0.00295,0.00984*
1,1,0.00394,0.00295,-0.00984*
1,1,0.00394,-0.00295,-0.00984*
1,1,0.00394,-0.00295,0.00984*
%
%ADD23ROUNDEDRECTD23*%
G04:AMPARAMS|DCode=24|XSize=23.62mil|YSize=9.84mil|CornerRadius=1.97mil|HoleSize=0mil|Usage=FLASHONLY|Rotation=180.000|XOffset=0mil|YOffset=0mil|HoleType=Round|Shape=RoundedRectangle|*
%AMROUNDEDRECTD24*
21,1,0.02362,0.00591,0,0,180.0*
21,1,0.01968,0.00984,0,0,180.0*
1,1,0.00394,-0.00984,0.00295*
1,1,0.00394,0.00984,0.00295*
1,1,0.00394,0.00984,-0.00295*
1,1,0.00394,-0.00984,-0.00295*
%
%ADD24ROUNDEDRECTD24*%
%ADD25R,0.03543X0.03150*%
%ADD26R,0.11000X0.02900*%
%ADD27R,0.11811X0.11811*%
%ADD28R,0.11811X0.11811*%
%ADD29O,0.05709X0.02165*%
%ADD30R,0.06378X0.02362*%
G04:AMPARAMS|DCode=31|XSize=39.37mil|YSize=19.68mil|CornerRadius=2.46mil|HoleSize=0mil|Usage=FLASHONLY|Rotation=180.000|XOffset=0mil|YOffset=0mil|HoleType=Round|Shape=RoundedRectangle|*
%AMROUNDEDRECTD31*
21,1,0.03937,0.01476,0,0,180.0*
21,1,0.03445,0.01968,0,0,180.0*
1,1,0.00492,-0.01722,0.00738*
1,1,0.00492,0.01722,0.00738*
1,1,0.00492,0.01722,-0.00738*
1,1,0.00492,-0.01722,-0.00738*
%
%ADD31ROUNDEDRECTD31*%
G04:AMPARAMS|DCode=32|XSize=39.37mil|YSize=19.68mil|CornerRadius=2.46mil|HoleSize=0mil|Usage=FLASHONLY|Rotation=270.000|XOffset=0mil|YOffset=0mil|HoleType=Round|Shape=RoundedRectangle|*
%AMROUNDEDRECTD32*
21,1,0.03937,0.01476,0,0,270.0*
21,1,0.03445,0.01968,0,0,270.0*
1,1,0.00492,-0.00738,-0.01722*
1,1,0.00492,-0.00738,0.01722*
1,1,0.00492,0.00738,0.01722*
1,1,0.00492,0.00738,-0.01722*
%
%ADD32ROUNDEDRECTD32*%
%ADD33R,0.07480X0.07480*%
%ADD34R,0.06299X0.05512*%
%ADD35R,0.01575X0.05315*%
%ADD60R,0.00984X0.02362*%
%ADD61R,0.18032X0.18898*%
%ADD62C,0.01181*%
%ADD63C,0.03543*%
%ADD64C,0.01968*%
%ADD65C,0.01024*%
%ADD66C,0.05118*%
%ADD67O,0.03543X0.07087*%
%ADD68C,0.01772*%
%ADD69C,0.02362*%
%ADD70C,0.21654*%
G36*
X134252Y150787D02*
X100000D01*
Y173228D01*
X134252D01*
Y150787D01*
D02*
G37*
G36*
X152362Y143504D02*
X152401Y143504D01*
X152474Y143474D01*
X152529Y143419D01*
X152559Y143346D01*
X152559Y143307D01*
X152559Y143307D01*
X152559Y129921D01*
Y129882D01*
X152529Y129810D01*
X152474Y129754D01*
X152401Y129724D01*
X152362Y129724D01*
Y129724D01*
X147244Y129724D01*
X147205D01*
X147133Y129754D01*
X147077Y129810D01*
X147047Y129882D01*
X147047Y129921D01*
X147047Y129921D01*
X147047Y143307D01*
X147047Y143346D01*
X147077Y143419D01*
X147133Y143474D01*
X147205Y143504D01*
X147244Y143504D01*
X147244Y143504D01*
X152362Y143504D01*
D02*
G37*
G36*
X143307Y143504D02*
X143346Y143504D01*
X143419Y143474D01*
X143474Y143419D01*
X143504Y143346D01*
X143504Y143307D01*
X143504Y143307D01*
X143504Y129921D01*
X143504Y129882D01*
X143474Y129810D01*
X143419Y129754D01*
X143346Y129724D01*
X143307Y129724D01*
X143307Y129724D01*
X141693D01*
X141621Y129754D01*
X141565Y129810D01*
X141535Y129882D01*
X141535Y129921D01*
X141535Y129921D01*
X141535Y143307D01*
X141535Y143346D01*
X141565Y143419D01*
X141621Y143474D01*
X141693Y143504D01*
X141732Y143504D01*
X141732Y143504D01*
X143307Y143504D01*
D02*
G37*
G36*
X146065Y143502D02*
X146104D01*
X146175Y143472D01*
X146230Y143417D01*
X146260Y143346D01*
Y143307D01*
X146260Y137102D01*
X146260Y137064D01*
X146230Y136992D01*
X146175Y136937D01*
X146104Y136907D01*
X146065Y136907D01*
X144448D01*
X144376Y136937D01*
X144321Y136992D01*
X144291Y137064D01*
X144291Y137102D01*
X144291Y137102D01*
X144291Y143307D01*
Y143346D01*
X144321Y143418D01*
X144376Y143472D01*
X144448Y143502D01*
X144486Y143502D01*
X144486Y143502D01*
X146065Y143502D01*
D02*
G37*
G36*
X146061Y136321D02*
X146101D01*
X146174Y136291D01*
X146230Y136235D01*
X146260Y136162D01*
X146260Y136122D01*
X146260Y136122D01*
X146260Y129921D01*
X146260Y129883D01*
X146230Y129811D01*
X146175Y129756D01*
X146104Y129726D01*
X146065Y129726D01*
X146065Y129726D01*
X144448D01*
X144376Y129756D01*
X144321Y129811D01*
X144292Y129882D01*
X144292Y129921D01*
X144292Y129921D01*
X144292Y136122D01*
X144292Y136162D01*
X144322Y136235D01*
X144378Y136291D01*
X144451Y136321D01*
X144490Y136321D01*
X144490Y136321D01*
X146061Y136321D01*
D02*
G37*
G36*
X151575Y86811D02*
X151614Y86811D01*
X151686Y86781D01*
X151742Y86726D01*
X151772Y86653D01*
X151772Y86614D01*
X151772Y86614D01*
X151772Y73228D01*
Y73189D01*
X151742Y73117D01*
X151686Y73062D01*
X151614Y73032D01*
X151575Y73032D01*
Y73032D01*
X146457Y73032D01*
X146417D01*
X146345Y73062D01*
X146290Y73117D01*
X146260Y73189D01*
X146260Y73228D01*
X146260Y73228D01*
X146260Y86614D01*
X146260Y86653D01*
X146290Y86726D01*
X146345Y86781D01*
X146418Y86811D01*
X146457Y86811D01*
X146457Y86811D01*
X151575Y86811D01*
D02*
G37*
G36*
X142520Y86811D02*
X142559Y86811D01*
X142631Y86781D01*
X142687Y86726D01*
X142717Y86653D01*
X142717Y86614D01*
X142717Y86614D01*
X142717Y73228D01*
X142717Y73189D01*
X142687Y73117D01*
X142631Y73062D01*
X142559Y73032D01*
X142520Y73032D01*
X142520Y73032D01*
X140906D01*
X140833Y73062D01*
X140778Y73117D01*
X140748Y73189D01*
X140748Y73228D01*
X140748Y73228D01*
X140748Y86614D01*
X140748Y86653D01*
X140778Y86726D01*
X140833Y86781D01*
X140906Y86811D01*
X140945Y86811D01*
X140945Y86811D01*
X142520Y86811D01*
D02*
G37*
G36*
X145278Y86809D02*
X145316D01*
X145388Y86779D01*
X145443Y86725D01*
X145473Y86653D01*
Y86614D01*
X145472Y80409D01*
X145473Y80371D01*
X145443Y80299D01*
X145388Y80244D01*
X145316Y80215D01*
X145278Y80215D01*
X143660D01*
X143588Y80244D01*
X143534Y80299D01*
X143504Y80371D01*
X143504Y80409D01*
X143504Y80409D01*
X143504Y86614D01*
Y86653D01*
X143534Y86725D01*
X143588Y86779D01*
X143660Y86809D01*
X143699Y86809D01*
X143699Y86809D01*
X145278Y86809D01*
D02*
G37*
G36*
X145274Y79628D02*
X145313D01*
X145386Y79598D01*
X145442Y79542D01*
X145473Y79469D01*
X145472Y79429D01*
X145473Y79429D01*
X145472Y73228D01*
X145473Y73190D01*
X145443Y73118D01*
X145388Y73063D01*
X145316Y73033D01*
X145278Y73033D01*
X145278Y73033D01*
X143660D01*
X143589Y73063D01*
X143534Y73118D01*
X143504Y73189D01*
X143504Y73228D01*
X143504Y73228D01*
X143504Y79429D01*
X143504Y79469D01*
X143534Y79542D01*
X143590Y79598D01*
X143663Y79628D01*
X143703Y79628D01*
X143703Y79628D01*
X145274Y79628D01*
D02*
G37*
G36*
X151181Y33268D02*
X151220Y33268D01*
X151293Y33238D01*
X151348Y33182D01*
X151378Y33110D01*
X151378Y33071D01*
X151378Y33071D01*
X151378Y19685D01*
Y19646D01*
X151348Y19573D01*
X151293Y19518D01*
X151220Y19488D01*
X151181Y19488D01*
Y19488D01*
X146063Y19488D01*
X146024D01*
X145951Y19518D01*
X145896Y19573D01*
X145866Y19646D01*
X145866Y19685D01*
X145866Y19685D01*
X145866Y33071D01*
X145866Y33110D01*
X145896Y33182D01*
X145951Y33238D01*
X146024Y33268D01*
X146063Y33268D01*
X146063Y33268D01*
X151181Y33268D01*
D02*
G37*
G36*
X142126Y33268D02*
X142165Y33268D01*
X142237Y33238D01*
X142293Y33182D01*
X142323Y33110D01*
X142323Y33071D01*
X142323Y33071D01*
X142323Y19685D01*
X142323Y19646D01*
X142293Y19573D01*
X142237Y19518D01*
X142165Y19488D01*
X142126Y19488D01*
X142126Y19488D01*
X140512D01*
X140440Y19518D01*
X140384Y19573D01*
X140354Y19646D01*
X140354Y19685D01*
X140354Y19685D01*
X140354Y33071D01*
X140354Y33110D01*
X140384Y33182D01*
X140440Y33238D01*
X140512Y33268D01*
X140551Y33268D01*
X140551Y33268D01*
X142126Y33268D01*
D02*
G37*
G36*
X144884Y33266D02*
X144923D01*
X144994Y33236D01*
X145049Y33181D01*
X145079Y33110D01*
Y33071D01*
X145079Y26866D01*
X145079Y26827D01*
X145049Y26756D01*
X144994Y26701D01*
X144923Y26671D01*
X144884Y26671D01*
X143266D01*
X143195Y26701D01*
X143140Y26756D01*
X143110Y26827D01*
X143110Y26866D01*
X143110Y26866D01*
X143110Y33071D01*
Y33110D01*
X143140Y33181D01*
X143195Y33236D01*
X143266Y33266D01*
X143305Y33266D01*
X143305Y33266D01*
X144884Y33266D01*
D02*
G37*
G36*
X144880Y26085D02*
X144920D01*
X144993Y26054D01*
X145048Y25998D01*
X145079Y25925D01*
X145079Y25886D01*
X145079Y25886D01*
X145079Y19685D01*
X145079Y19646D01*
X145049Y19575D01*
X144994Y19520D01*
X144923Y19490D01*
X144884Y19490D01*
X144884Y19490D01*
X143266D01*
X143195Y19520D01*
X143140Y19575D01*
X143111Y19646D01*
X143111Y19685D01*
X143111Y19685D01*
X143111Y25886D01*
X143111Y25925D01*
X143141Y25998D01*
X143197Y26054D01*
X143270Y26085D01*
X143309Y26085D01*
X143309Y26085D01*
X144880Y26085D01*
D02*
G37*
D10*
X122047Y67323D02*
X122349Y67624D01*
X130545Y74410D02*
X135531D01*
X129364Y73228D02*
X130545Y74410D01*
X126542Y73228D02*
X129364D01*
X122349Y69035D02*
X126542Y73228D01*
X122349Y67624D02*
Y69035D01*
X132331Y59500D02*
Y60579D01*
X130706Y62205D02*
X132331Y60579D01*
X133169Y58661D02*
X135531D01*
X132331Y59500D02*
X133169Y58661D01*
X123622Y62205D02*
X130706D01*
X134875Y64567D02*
X139469Y69160D01*
X116929Y64567D02*
X134875D01*
X129724Y58563D02*
X129823Y58661D01*
X129724Y53543D02*
Y58563D01*
X129954Y131102D02*
X136319D01*
X128773Y129921D02*
X129954Y131102D01*
X125197Y129921D02*
X128773D01*
X120405Y122064D02*
Y125129D01*
X125197Y129921D01*
X121653Y22408D02*
Y31890D01*
Y22408D02*
X123392Y20669D01*
X135039D01*
X135138Y20768D01*
Y20866D01*
X132710Y6693D02*
X139075Y13058D01*
Y20866D01*
X119291Y7154D02*
Y47638D01*
X115748Y51181D02*
X119291Y47638D01*
Y7154D02*
X119753Y6693D01*
X116535Y18212D02*
Y31890D01*
X115354Y17030D02*
X116535Y18212D01*
X115354Y12303D02*
Y17030D01*
X110039Y6693D02*
X115256D01*
X115354Y6594D01*
X134350Y102362D02*
X134646Y102657D01*
X123425Y102362D02*
X134350D01*
X127953Y109843D02*
X128379D01*
X129068Y109153D02*
X133858D01*
X128379Y109843D02*
X129068Y109153D01*
X133858D02*
X134646Y108366D01*
X122474Y107874D02*
X140256Y125656D01*
X112992Y107874D02*
X122474D01*
X140256Y125656D02*
Y131102D01*
X124409Y114567D02*
Y118059D01*
X120405Y122064D02*
X124409Y118059D01*
X112980Y107886D02*
X112992Y107874D01*
X103228Y107898D02*
X103240Y107886D01*
X112980D01*
X119651Y61057D02*
X122047Y58661D01*
X116929Y64567D02*
X119651Y61845D01*
Y61057D02*
Y61845D01*
X119753Y6693D02*
X132710D01*
X139469Y69160D02*
Y74410D01*
X137520Y136732D02*
X140256Y139469D01*
X137100Y137152D02*
Y137152D01*
Y137152D02*
X137520Y136732D01*
X140256Y139469D02*
Y142126D01*
X136769Y27512D02*
X137163D01*
X136186Y26929D02*
X136769Y27512D01*
X137163D02*
X139075Y29423D01*
Y31890D01*
X135920Y26929D02*
X136186D01*
X137305Y82078D02*
X137373D01*
X136579Y81352D02*
X137305Y82078D01*
X136313Y81352D02*
X136579D01*
X137373Y82078D02*
X139370Y84075D01*
Y85335D01*
X139469Y85433D01*
D12*
X44882Y24016D02*
X45276Y23622D01*
X44882Y24016D02*
Y24634D01*
X41563Y27953D02*
X44882Y24634D01*
X31890Y27953D02*
X41563D01*
X52756Y15748D02*
Y22658D01*
X51791Y23622D02*
X52756Y22658D01*
X45276Y23622D02*
X51791D01*
X31890Y27756D02*
Y27953D01*
Y27756D02*
X32834Y26812D01*
X89587Y85059D02*
Y129728D01*
X86417Y132898D02*
X89587Y129728D01*
X83740Y132898D02*
X86417D01*
X103258Y30472D02*
X103297Y30512D01*
X80890Y133071D02*
X81063Y132898D01*
X75984Y133071D02*
X80890D01*
X81063Y132898D02*
X83740D01*
X32834Y21479D02*
Y26812D01*
D16*
X115354Y12303D02*
D03*
Y6594D02*
D03*
X134646Y108366D02*
D03*
Y102657D02*
D03*
D17*
X135531Y58661D02*
D03*
X129823D02*
D03*
X87500Y29921D02*
D03*
X81791D02*
D03*
D18*
X129724Y53543D02*
D03*
X136417D02*
D03*
X110039Y6693D02*
D03*
X103347D02*
D03*
X123425Y102362D02*
D03*
X116732D02*
D03*
X87992Y35433D02*
D03*
X81299D02*
D03*
X136221Y126772D02*
D03*
X129528D02*
D03*
X127165Y139370D02*
D03*
X120472D02*
D03*
X127165Y133465D02*
D03*
X120472D02*
D03*
X135236Y70079D02*
D03*
X128543D02*
D03*
X127362Y82677D02*
D03*
X120669D02*
D03*
Y76378D02*
D03*
X127362D02*
D03*
D19*
X47638Y89468D02*
D03*
X66535D02*
D03*
X60236D02*
D03*
X63386D02*
D03*
X57087D02*
D03*
Y56201D02*
D03*
X53937D02*
D03*
X63386D02*
D03*
X66535D02*
D03*
X60236D02*
D03*
X50787Y89468D02*
D03*
X44488D02*
D03*
X53937D02*
D03*
X47638Y56201D02*
D03*
X50787D02*
D03*
X44488D02*
D03*
D20*
X72047Y97638D02*
D03*
X66535D02*
D03*
X43701Y44488D02*
D03*
X38189D02*
D03*
X45276Y23622D02*
D03*
X39764D02*
D03*
X48819Y110236D02*
D03*
X43307D02*
D03*
X31890Y5906D02*
D03*
X26378D02*
D03*
X31890Y27953D02*
D03*
X26378D02*
D03*
X109449Y90551D02*
D03*
X103937D02*
D03*
X43701Y49606D02*
D03*
X38189D02*
D03*
D21*
X125591Y23622D02*
D03*
Y16929D02*
D03*
Y36024D02*
D03*
Y29331D02*
D03*
X131496Y17323D02*
D03*
Y10630D02*
D03*
D22*
X109252Y70039D02*
D03*
Y75039D02*
D03*
Y60039D02*
D03*
Y65039D02*
D03*
Y80039D02*
D03*
Y85039D02*
D03*
Y55039D02*
D03*
Y50039D02*
D03*
X89764Y80039D02*
D03*
Y70039D02*
D03*
Y75039D02*
D03*
Y85039D02*
D03*
Y55039D02*
D03*
Y50039D02*
D03*
Y65039D02*
D03*
Y60039D02*
D03*
X83740Y132898D02*
D03*
Y127898D02*
D03*
Y122898D02*
D03*
Y117898D02*
D03*
Y112898D02*
D03*
Y107898D02*
D03*
Y102898D02*
D03*
Y97898D02*
D03*
X103228D02*
D03*
Y102898D02*
D03*
Y107898D02*
D03*
Y112898D02*
D03*
Y117898D02*
D03*
Y122898D02*
D03*
Y127898D02*
D03*
Y132898D02*
D03*
D23*
X140256Y142126D02*
D03*
X138287D02*
D03*
X136319D02*
D03*
Y131102D02*
D03*
X140256D02*
D03*
X138287D02*
D03*
X139469Y85433D02*
D03*
X137500D02*
D03*
X135531D02*
D03*
Y74410D02*
D03*
X139469D02*
D03*
X137500D02*
D03*
X139075Y31890D02*
D03*
X137106D02*
D03*
X135138D02*
D03*
Y20866D02*
D03*
X139075D02*
D03*
X137106D02*
D03*
D24*
X134252Y139567D02*
D03*
Y135630D02*
D03*
Y137598D02*
D03*
Y133661D02*
D03*
X133465Y82874D02*
D03*
Y78937D02*
D03*
Y80905D02*
D03*
Y76968D02*
D03*
X133071Y29331D02*
D03*
Y25394D02*
D03*
Y27362D02*
D03*
Y23425D02*
D03*
D25*
X75984Y133071D02*
D03*
Y127559D02*
D03*
X112598Y24803D02*
D03*
Y19291D02*
D03*
X103150Y24803D02*
D03*
Y19291D02*
D03*
X82284Y85039D02*
D03*
Y79528D02*
D03*
X32283Y64961D02*
D03*
Y59449D02*
D03*
X111024Y133071D02*
D03*
Y127559D02*
D03*
D26*
X54063Y138740D02*
D03*
Y133740D02*
D03*
Y128740D02*
D03*
Y118740D02*
D03*
Y123740D02*
D03*
X38063Y133740D02*
D03*
Y123740D02*
D03*
Y128740D02*
D03*
Y138740D02*
D03*
Y118740D02*
D03*
D27*
X148819Y12598D02*
D03*
Y66142D02*
D03*
X150394Y150787D02*
D03*
X144488Y93701D02*
D03*
X148425Y122441D02*
D03*
X144095Y40157D02*
D03*
D28*
X105905Y163386D02*
D03*
X150394Y166535D02*
D03*
D29*
X72146Y83858D02*
D03*
Y77559D02*
D03*
Y74410D02*
D03*
Y80709D02*
D03*
Y71260D02*
D03*
Y64961D02*
D03*
Y61811D02*
D03*
Y68110D02*
D03*
X38878Y80709D02*
D03*
Y77559D02*
D03*
Y83858D02*
D03*
Y71260D02*
D03*
Y68110D02*
D03*
Y74410D02*
D03*
Y61811D02*
D03*
Y64961D02*
D03*
D30*
X139173Y160886D02*
D03*
Y165886D02*
D03*
Y155886D02*
D03*
Y170886D02*
D03*
D31*
X103366Y37992D02*
D03*
Y30512D02*
D03*
X112382Y37992D02*
D03*
Y34252D02*
D03*
Y30512D02*
D03*
X52579Y30906D02*
D03*
Y23425D02*
D03*
X61594Y30906D02*
D03*
Y27165D02*
D03*
Y23425D02*
D03*
D32*
X25393Y12424D02*
D03*
X32873D02*
D03*
X25393Y21440D02*
D03*
X29133D02*
D03*
X32873D02*
D03*
D33*
X62992Y6004D02*
D03*
X53543D02*
D03*
D34*
X70866Y15650D02*
D03*
X45669D02*
D03*
D35*
X63386Y16535D02*
D03*
X60827D02*
D03*
X58268D02*
D03*
X55709D02*
D03*
X53150D02*
D03*
D60*
X148031Y136614D02*
D03*
X145276Y140205D02*
D03*
Y133024D02*
D03*
X142520Y136614D02*
D03*
X147244Y79921D02*
D03*
X144488Y83512D02*
D03*
Y76331D02*
D03*
X141732Y79921D02*
D03*
X146850Y26378D02*
D03*
X144095Y29969D02*
D03*
Y22787D02*
D03*
X141339Y26378D02*
D03*
D61*
X124567Y163386D02*
D03*
D62*
X133760Y139567D02*
X134252D01*
X135790D01*
X137289Y136727D02*
Y138068D01*
X135790Y139567D02*
X137289Y138068D01*
X120472Y139370D02*
Y139567D01*
X123622Y142717D01*
X130610D01*
X133760Y139567D01*
X119543Y146653D02*
X135298D01*
X120358Y144685D02*
X134252D01*
X138189Y142224D02*
Y143763D01*
X117323Y141650D02*
X120358Y144685D01*
X115354Y142465D02*
X119543Y146653D01*
X134252Y144685D02*
X136221Y142717D01*
X138189Y142224D02*
X138287Y142126D01*
X135298Y146653D02*
X138189Y143763D01*
X130709Y139370D02*
X132480Y137598D01*
X127165Y139370D02*
X130709D01*
X132480Y137598D02*
X134252D01*
X123819Y86024D02*
X129823D01*
X120669Y82677D02*
Y82874D01*
X132972D02*
X133465D01*
X129823Y86024D02*
X132972Y82874D01*
X120669D02*
X123819Y86024D01*
X133071Y29331D02*
X133071Y29331D01*
X132973Y29429D02*
X133071Y29331D01*
X132382Y29429D02*
X132973D01*
X125591Y36024D02*
X125787D01*
X132382Y29429D01*
X123031Y44488D02*
X135039Y32480D01*
X136811Y33681D02*
Y33723D01*
X130837Y39560D02*
X130974D01*
X136811Y33723D01*
X111969Y60039D02*
X123031Y48976D01*
X111969Y65039D02*
X125000Y52008D01*
Y45397D02*
X130837Y39560D01*
X123031Y44488D02*
Y48976D01*
X125000Y45397D02*
Y52008D01*
X117323Y125779D02*
Y141650D01*
X134252Y137598D02*
X134252Y137598D01*
X137008Y19230D02*
Y20768D01*
X135101Y17323D02*
X137008Y19230D01*
X131496Y17323D02*
X135101D01*
X87500Y29921D02*
X87746Y30167D01*
Y35187D02*
X87992Y35433D01*
X87746Y30167D02*
Y35187D01*
X66853Y41339D02*
X77559D01*
X61735Y46457D02*
X66853Y41339D01*
X61735Y46457D02*
Y51772D01*
X64567Y47244D02*
X69252D01*
X87047Y65039D01*
X68504Y50394D02*
X83896Y65786D01*
X46578Y79331D02*
X53664D01*
X45079Y80830D02*
X46578Y79331D01*
X45079Y80830D02*
Y82950D01*
X47449Y85321D01*
X53664Y79331D02*
X57049Y82715D01*
X47449Y89280D02*
X47638Y89468D01*
X47449Y85321D02*
Y89280D01*
X53937Y56201D02*
Y62205D01*
X53937Y62205D02*
X53937Y62205D01*
X60236Y98425D02*
X60433D01*
X74606Y112598D01*
X47244Y43307D02*
X54369Y50432D01*
X50769Y50450D02*
Y56182D01*
X50787Y56201D01*
X50749Y50432D02*
X50769Y50450D01*
X77695Y74707D02*
Y114569D01*
X74936Y71949D02*
X77695Y74707D01*
Y114569D02*
X81024Y117898D01*
X67555Y85236D02*
X75000Y92682D01*
X63189Y85236D02*
X67555D01*
X75000Y92682D02*
Y99980D01*
X75000Y99980D02*
Y107677D01*
X74803Y107874D02*
X75000Y107677D01*
Y99980D02*
X75000Y99980D01*
X72165Y61830D02*
X76321D01*
X76340Y61849D01*
X72146Y61811D02*
X72165Y61830D01*
X114520Y112945D02*
X114567Y112992D01*
X103276Y112945D02*
X114520D01*
X103228Y112898D02*
X103276Y112945D01*
X18504Y57874D02*
X37992Y38386D01*
X45866D01*
X109988Y121941D02*
X113485D01*
X115354Y126595D02*
Y142465D01*
X113338Y124578D02*
X115354Y126595D01*
X109842Y124578D02*
X113338D01*
X113485Y121941D02*
X117323Y125779D01*
X108732Y123468D02*
X109842Y124578D01*
X105945Y117898D02*
X109988Y121941D01*
X103228Y122898D02*
X103799Y123468D01*
X108732D01*
X54063Y138740D02*
X54240Y138563D01*
X63209D02*
X63386Y138386D01*
X54240Y138563D02*
X63209D01*
X45866Y38386D02*
X47244Y39764D01*
X33858Y83858D02*
X38878D01*
X30315Y87402D02*
Y123678D01*
Y87402D02*
X33858Y83858D01*
X19465Y134528D02*
X30315Y123678D01*
X27869Y86466D02*
Y120556D01*
X18898Y129528D02*
X27869Y120556D01*
Y86466D02*
X36087Y78248D01*
X8898Y134528D02*
X19465D01*
X36087Y78248D02*
X36151D01*
X36840Y77559D01*
X38878D01*
X47807Y75394D02*
X48791Y76378D01*
X54163Y70070D02*
X54959Y70866D01*
X46063D02*
X49644Y67285D01*
X51642Y70070D02*
X54163D01*
X62919Y67285D02*
X69355Y73721D01*
X51416Y69844D02*
X51642Y70070D01*
X44488Y66535D02*
Y66855D01*
X43504Y67839D02*
X44488Y66855D01*
X43504Y71926D02*
X45003Y73425D01*
X54162D02*
X61445Y80709D01*
X44188Y75394D02*
X47807D01*
X54959Y70866D02*
X56970D01*
X49644Y67285D02*
X62919D01*
X43504Y67839D02*
Y71926D01*
X61445Y80709D02*
X72146D01*
X45003Y73425D02*
X54162D01*
X38878Y74410D02*
X43203D01*
X44188Y75394D01*
X48791Y76378D02*
X54331D01*
X63189Y85236D01*
X56970Y70866D02*
X63663Y77559D01*
X72146D01*
X70108Y74410D02*
X72146D01*
X69419Y73721D02*
X70108Y74410D01*
X69355Y73721D02*
X69419D01*
X56398Y86742D02*
X57087Y87431D01*
X56398Y86678D02*
Y86742D01*
X47638Y81890D02*
X51610D01*
X57087Y87431D02*
Y89468D01*
X51610Y81890D02*
X56398Y86678D01*
X48819Y105905D02*
X48819Y105905D01*
X48819Y110236D02*
X48819Y110236D01*
Y105905D02*
Y110236D01*
X50787Y97244D02*
X50787Y97244D01*
Y89468D02*
Y97244D01*
X53937Y96063D02*
X54189D01*
X81024Y122898D01*
X74606Y112598D02*
X74803D01*
X81024Y117898D02*
X83740D01*
X81024Y122898D02*
X83740D01*
X74873Y71949D02*
X74936D01*
X74184Y71260D02*
X74873Y71949D01*
X72146Y71260D02*
X74184D01*
X54122Y133799D02*
X66476D01*
X54063Y133740D02*
X54122Y133799D01*
X66476D02*
X66535Y133858D01*
X66535Y56201D02*
Y64173D01*
X66535Y64173D02*
X66535Y64173D01*
X63386Y56201D02*
Y62598D01*
X63386Y62598D02*
X63386Y62598D01*
X47244Y39764D02*
Y43307D01*
X72146Y68110D02*
X77953D01*
X72146Y64961D02*
X78422D01*
X83501Y70039D01*
X89764D01*
X47638Y47638D02*
Y56201D01*
X47638Y47638D02*
X47638Y47638D01*
X87047Y65039D02*
X89764D01*
X103228Y117898D02*
X105945D01*
X136987Y136879D02*
X137213D01*
X136987Y134859D02*
Y136879D01*
X135790Y133661D02*
X136987Y134859D01*
X50013Y118740D02*
X54063D01*
X48819Y110236D02*
Y117546D01*
X50013Y118740D01*
X136811Y33681D02*
X137106Y33386D01*
Y31890D02*
X137106Y31890D01*
X137106Y31890D02*
Y33386D01*
X109252Y65039D02*
X111969D01*
X109252Y60039D02*
X111969D01*
X137008Y20768D02*
X137106Y20866D01*
X136221Y126969D02*
X137402Y128150D01*
X138287Y128841D02*
Y131102D01*
X137595Y128150D02*
X138287Y128841D01*
X137402Y128150D02*
X137595D01*
X136221Y126772D02*
Y126969D01*
X132714Y135630D02*
X134252D01*
X131662Y134578D02*
X132714Y135630D01*
X131662Y134418D02*
Y134578D01*
X130709Y133465D02*
X131662Y134418D01*
X127165Y133465D02*
X130709D01*
X134252Y133661D02*
X135790D01*
X134252Y133661D02*
X134252Y133661D01*
X135630Y24446D02*
Y26257D01*
X136221Y26847D02*
Y27719D01*
X134609Y23425D02*
X135630Y24446D01*
Y26257D02*
X136221Y26847D01*
X109193Y79980D02*
X109252Y80039D01*
X133268Y88189D02*
X135531Y85925D01*
X117717Y88189D02*
X133268D01*
X137402Y87028D02*
X137500Y86929D01*
X115748Y90158D02*
X134314D01*
X137500Y86024D02*
Y86929D01*
X137402Y87028D02*
Y87070D01*
X134314Y90158D02*
X137402Y87070D01*
X135531Y85433D02*
Y85925D01*
X116929Y87402D02*
X117717Y88189D01*
X116929Y75000D02*
Y87402D01*
X109252Y70039D02*
X111969D01*
X116929Y75000D01*
X114567Y88976D02*
X115748Y90158D01*
X114567Y77638D02*
Y88976D01*
X111969Y75039D02*
X114567Y77638D01*
X109252Y75039D02*
X111969D01*
X135003Y76968D02*
X136221Y78186D01*
X136200Y81465D02*
X136313Y81352D01*
X135003Y82874D02*
X136200Y81677D01*
Y81465D02*
Y81677D01*
X136221Y81260D02*
X136313Y81352D01*
X136221Y78186D02*
Y81260D01*
X133465Y82874D02*
X135003D01*
X133465Y82874D02*
X133465Y82874D01*
X133465Y76968D02*
X135003D01*
X137402Y72441D02*
Y74311D01*
X135236Y70079D02*
Y70276D01*
X137402Y74311D02*
X137500Y74410D01*
X135236Y70276D02*
X137402Y72441D01*
X133071Y23425D02*
X133071Y23425D01*
X134609D01*
X133071Y29331D02*
X134609D01*
X136221Y27719D01*
X125787Y29331D02*
X127756Y27362D01*
X125591Y29331D02*
X125787D01*
X127756Y27362D02*
X133071D01*
X125787Y23622D02*
X127559Y25394D01*
X133071D01*
X125591Y23622D02*
X125787D01*
X127362Y82480D02*
X128937Y80905D01*
X133465D01*
X127362Y82480D02*
Y82677D01*
Y76575D02*
X129724Y78937D01*
X133465D02*
X133465Y78937D01*
X129724Y78937D02*
X133465D01*
X127362Y76378D02*
Y76575D01*
X139173Y170886D02*
X148839D01*
Y168917D02*
X150394Y170472D01*
X127362Y76378D02*
X127953Y76968D01*
D63*
X105905Y163386D02*
X124567D01*
X139173Y160886D02*
Y165886D01*
Y155886D02*
Y160886D01*
Y147272D02*
Y155886D01*
D64*
X107815Y35960D02*
X109020Y37165D01*
X110728Y37992D02*
X112382D01*
X109902Y37165D02*
X110728Y37992D01*
X107815Y32544D02*
Y35960D01*
X109902Y31339D02*
X110728Y30512D01*
X109020Y31339D02*
X109902D01*
X107815Y32544D02*
X109020Y31339D01*
Y37165D02*
X109902D01*
X110728Y30512D02*
X112382D01*
X127559Y46457D02*
X127634Y46532D01*
X129603D01*
X136417Y53347D01*
Y53543D01*
X103225Y6814D02*
Y14492D01*
X103150Y14567D02*
X103225Y14492D01*
Y6814D02*
X103347Y6693D01*
X112992Y102362D02*
X116732D01*
X109449Y98819D02*
X112992Y102362D01*
X99606Y32618D02*
X101713Y30512D01*
X99606Y78110D02*
X106535Y85039D01*
X99606Y32618D02*
Y78110D01*
X101713Y30512D02*
X103297D01*
X139173Y147272D02*
X142520Y143926D01*
Y140551D02*
Y143926D01*
X142520Y140551D02*
X142520Y140551D01*
X145276Y144339D02*
X145472Y144535D01*
Y145866D02*
X150394Y150787D01*
X145276Y140205D02*
Y144339D01*
X145472Y144535D02*
Y145866D01*
X109449Y90551D02*
Y98819D01*
Y85216D02*
Y90551D01*
X32716Y21361D02*
X32834Y21479D01*
X43701Y49432D02*
X44488Y50219D01*
X8868Y124557D02*
Y124617D01*
X4143Y57175D02*
Y77715D01*
X4301Y93278D02*
Y119931D01*
X4143Y77715D02*
X8632Y82203D01*
X4301Y93278D02*
X8602Y88976D01*
X4301Y119931D02*
X8897Y124528D01*
X6663Y29105D02*
Y45279D01*
X8474Y47090D02*
Y52844D01*
X8632Y82203D02*
Y88946D01*
X6663Y29105D02*
X19232Y16535D01*
X6663Y45279D02*
X8474Y47090D01*
X4143Y57175D02*
X8445Y52874D01*
X103297Y30512D02*
X103366D01*
X106535Y85039D02*
X109252D01*
X66535Y91187D02*
Y97638D01*
X82284Y85039D02*
X89370D01*
X66626Y91278D02*
X69231D01*
X70472Y92520D01*
X66535Y89468D02*
Y91187D01*
X66626Y91278D01*
X75787Y133071D02*
X75984D01*
X66896Y141962D02*
X75787Y133071D01*
X42113Y138740D02*
X45335Y141962D01*
X38063Y138740D02*
X42113D01*
X45335Y141962D02*
X66896D01*
X43701Y40945D02*
Y44488D01*
X43701Y44488D01*
X44488Y56201D02*
Y62009D01*
X41574Y64923D02*
X44488Y62009D01*
X38916Y64923D02*
X41574D01*
X38878Y64961D02*
X38916Y64923D01*
X28217Y138740D02*
X38063D01*
X28059Y138583D02*
X28217Y138740D01*
X27953Y138583D02*
X28059D01*
X103258Y24911D02*
Y30472D01*
X112490Y24911D02*
Y30404D01*
X112382Y30512D02*
X112490Y30404D01*
X32480Y10378D02*
X32873Y10771D01*
X32480Y6496D02*
Y10378D01*
X32873Y10771D02*
Y12424D01*
X31890Y5906D02*
X32480Y6496D01*
X145276Y125591D02*
Y133024D01*
Y125591D02*
X148425Y122441D01*
X103228Y132898D02*
X103315Y132984D01*
X110937D01*
X111024Y133071D01*
X66535Y97638D02*
X66535Y97638D01*
X109272Y85039D02*
X109449Y85216D01*
X109252Y85039D02*
X109272D01*
X32283Y64961D02*
X38878D01*
X32283Y64961D02*
X32283Y64961D01*
X44488Y50219D02*
Y56201D01*
X43701Y44488D02*
Y49432D01*
X27221Y16873D02*
X30842D01*
X25551Y18544D02*
Y21283D01*
X32716Y18747D02*
Y21361D01*
X25551Y18544D02*
X27221Y16873D01*
X30842D02*
X32716Y18747D01*
X25393Y21440D02*
X25551Y21283D01*
X144095Y12598D02*
Y22787D01*
X144488Y66142D02*
Y76331D01*
Y66142D02*
X144488Y66142D01*
X144488Y83512D02*
Y93701D01*
X144488Y93701D01*
X144095Y29969D02*
Y40157D01*
D65*
X56849Y44732D02*
Y52954D01*
X56878Y52983D01*
Y55992D01*
X57087Y56201D01*
X57992Y43314D02*
X58660Y43982D01*
Y52204D01*
X56181Y33073D02*
Y44064D01*
X58689Y52233D02*
Y52573D01*
X56181Y44064D02*
X56849Y44732D01*
X58689Y52573D02*
X60236Y54120D01*
X57992Y32953D02*
Y43314D01*
X58660Y52204D02*
X58689Y52233D01*
X57992Y22864D02*
Y28858D01*
X60039Y30906D01*
X60039D02*
X61594D01*
X57992Y32953D02*
X60039Y30906D01*
X54486Y31378D02*
X56181Y33073D01*
X54013Y30455D02*
Y30906D01*
Y30455D02*
X54035Y30433D01*
X54486D01*
X54013Y30906D02*
Y31356D01*
X56181Y23614D02*
Y28738D01*
X52579Y30906D02*
X54013D01*
X54486Y30433D02*
X56181Y28738D01*
X54035Y31378D02*
X54486D01*
X54013Y31356D02*
X54035Y31378D01*
X57992Y16811D02*
X58268Y16535D01*
X57992Y16811D02*
Y19182D01*
X57894Y22766D02*
X57992Y22864D01*
X57894Y19281D02*
X57992Y19182D01*
X57894Y19281D02*
Y22766D01*
X56083Y23516D02*
X56181Y23614D01*
X56083Y19281D02*
Y23516D01*
X55984Y19182D02*
X56083Y19281D01*
X55709Y16535D02*
X55984Y16811D01*
Y19182D01*
X60236Y54120D02*
Y56201D01*
D66*
X18898Y119528D02*
D03*
Y129528D02*
D03*
X8898Y124528D02*
D03*
Y134528D02*
D03*
X18661Y83976D02*
D03*
X8661Y98976D02*
D03*
X18661Y93976D02*
D03*
X8661Y88976D02*
D03*
X123779Y190157D02*
D03*
X118780Y180157D02*
D03*
X113779Y190157D02*
D03*
X108780Y180157D02*
D03*
X18504Y47874D02*
D03*
X8504Y62874D02*
D03*
X18504Y57874D02*
D03*
X8504Y52874D02*
D03*
D67*
X71260Y6004D02*
D03*
X45276D02*
D03*
D68*
X141339Y20866D02*
D03*
X142126Y155512D02*
D03*
X136221D02*
D03*
X142520Y165748D02*
D03*
X136221D02*
D03*
X142520Y160630D02*
D03*
X136221D02*
D03*
X139173Y155886D02*
D03*
Y160886D02*
D03*
Y165886D02*
D03*
X112382Y34252D02*
D03*
X103150Y19291D02*
D03*
X128085Y127525D02*
D03*
X72146Y83858D02*
D03*
X81299Y35433D02*
D03*
X122047Y58661D02*
D03*
X115748Y51181D02*
D03*
X112992Y107874D02*
D03*
X39665Y23622D02*
D03*
X131496Y10630D02*
D03*
X112598Y19291D02*
D03*
X125591Y16929D02*
D03*
X61417Y27165D02*
D03*
X63287Y16535D02*
D03*
X148031Y131102D02*
D03*
X112106Y127559D02*
D03*
X72047Y97638D02*
D03*
X83740Y97898D02*
D03*
X25393Y9941D02*
D03*
X45669Y15650D02*
D03*
X38878Y61811D02*
D03*
X26378Y27953D02*
D03*
Y5906D02*
D03*
X154331Y166535D02*
D03*
X146457D02*
D03*
Y162598D02*
D03*
X150394D02*
D03*
X154331D02*
D03*
Y170472D02*
D03*
X146457D02*
D03*
X150394Y170472D02*
D03*
Y166535D02*
D03*
X82284Y79528D02*
D03*
X103228Y127898D02*
D03*
X75984Y127559D02*
D03*
X89764Y80039D02*
D03*
X120472Y133465D02*
D03*
Y139370D02*
D03*
X83740Y127898D02*
D03*
X43307Y110236D02*
D03*
X38063Y133740D02*
D03*
Y128740D02*
D03*
Y118740D02*
D03*
X38878Y68110D02*
D03*
X38189Y44488D02*
D03*
Y49606D02*
D03*
X32283Y59449D02*
D03*
X29133Y21440D02*
D03*
X62992Y6004D02*
D03*
X53543D02*
D03*
X70866Y15650D02*
D03*
X89764Y50039D02*
D03*
X141401Y32272D02*
D03*
X146850Y26378D02*
D03*
X141339D02*
D03*
X125591Y36024D02*
D03*
X109252Y50039D02*
D03*
X103937Y90551D02*
D03*
X103228Y97898D02*
D03*
X109193Y79980D02*
D03*
X120669Y82677D02*
D03*
Y76378D02*
D03*
X128543Y70079D02*
D03*
X147244Y85827D02*
D03*
X146850Y20866D02*
D03*
X150394D02*
D03*
Y26378D02*
D03*
Y31890D02*
D03*
X146850D02*
D03*
X150787Y74410D02*
D03*
Y85827D02*
D03*
Y79921D02*
D03*
X147244D02*
D03*
Y74410D02*
D03*
X151181Y131102D02*
D03*
Y142126D02*
D03*
X148031D02*
D03*
X141732Y79921D02*
D03*
Y85039D02*
D03*
Y74803D02*
D03*
X142520Y140551D02*
D03*
Y136614D02*
D03*
Y132283D02*
D03*
X151181Y136614D02*
D03*
X148031D02*
D03*
D69*
X127559Y46457D02*
D03*
X122047Y67323D02*
D03*
X123622Y62205D02*
D03*
X121653Y31890D02*
D03*
X116535D02*
D03*
X103150Y24803D02*
D03*
Y14567D02*
D03*
X127953Y109843D02*
D03*
X124409Y114567D02*
D03*
X81791Y29921D02*
D03*
X77559Y41339D02*
D03*
X64567Y47244D02*
D03*
X68504Y50394D02*
D03*
X57049Y82715D02*
D03*
X53937Y62205D02*
D03*
X60236Y98425D02*
D03*
X61735Y51772D02*
D03*
X54369Y50432D02*
D03*
X50749D02*
D03*
X76340Y61849D02*
D03*
X116929Y64567D02*
D03*
X114567Y112992D02*
D03*
X109449Y98819D02*
D03*
X45276Y23622D02*
D03*
X112598Y24803D02*
D03*
X111024Y133071D02*
D03*
X89370Y85039D02*
D03*
X70472Y92520D02*
D03*
X63386Y138386D02*
D03*
X74803Y107874D02*
D03*
X19291Y16535D02*
D03*
X32677Y12598D02*
D03*
X43701Y40945D02*
D03*
X27953Y138583D02*
D03*
X44488Y66535D02*
D03*
X51416Y69844D02*
D03*
X46063Y70866D02*
D03*
X47638Y81890D02*
D03*
X48819Y105905D02*
D03*
X83465Y107874D02*
D03*
X50787Y97244D02*
D03*
X53937Y96063D02*
D03*
X83740Y112898D02*
D03*
X74803Y112598D02*
D03*
X66535Y133858D02*
D03*
Y64173D02*
D03*
X63386Y62598D02*
D03*
X77953Y68110D02*
D03*
X89764Y59842D02*
D03*
X83896Y65786D02*
D03*
X89764Y75039D02*
D03*
X47638Y47638D02*
D03*
D70*
X11811Y185039D02*
D03*
X145669D02*
D03*
M02*
