G04*
G04 #@! TF.GenerationSoftware,Altium Limited,Altium Designer,21.9.2 (33)*
G04*
G04 Layer_Color=65535*
%FSLAX25Y25*%
%MOIN*%
G70*
G04*
G04 #@! TF.SameCoordinates,6D25873D-4EA7-46F0-BCAE-82CFCE844350*
G04*
G04*
G04 #@! TF.FilePolarity,Positive*
G04*
G01*
G75*
%ADD10C,0.00787*%
%ADD11C,0.00984*%
%ADD12C,0.02362*%
%ADD13C,0.01575*%
%ADD14C,0.00500*%
%ADD15C,0.01000*%
G36*
X55948Y178802D02*
X56384D01*
Y178656D01*
X56530D01*
Y178511D01*
X56821D01*
Y178366D01*
X56966D01*
Y178220D01*
X57112D01*
Y178075D01*
X57257D01*
Y177929D01*
Y177784D01*
X57403D01*
Y177638D01*
Y177493D01*
X57548D01*
Y177347D01*
Y177202D01*
Y177056D01*
Y176911D01*
Y176766D01*
Y176620D01*
Y176475D01*
X57403D01*
Y176329D01*
Y176184D01*
Y176038D01*
X57257D01*
Y175893D01*
X57112D01*
Y175747D01*
X56966D01*
Y175602D01*
X56821D01*
Y175456D01*
X56675D01*
Y175311D01*
X56384D01*
Y175165D01*
X55948D01*
Y175020D01*
X54930D01*
Y175165D01*
X54494D01*
Y175311D01*
X54203D01*
Y175456D01*
X54057D01*
Y175602D01*
X53912D01*
Y175747D01*
X53766D01*
Y175893D01*
X53621D01*
Y176038D01*
Y176184D01*
X53475D01*
Y176329D01*
Y176475D01*
X53330D01*
Y176620D01*
Y176766D01*
X52894D01*
Y176620D01*
X52166D01*
Y176475D01*
X51585D01*
Y176329D01*
X51003D01*
Y176184D01*
X50712D01*
Y176038D01*
Y175893D01*
X50857D01*
Y175747D01*
Y175602D01*
X51003D01*
Y175456D01*
X51148D01*
Y175311D01*
X51294D01*
Y175165D01*
X51439D01*
Y175020D01*
X51585D01*
Y174875D01*
X51730D01*
Y174729D01*
X52021D01*
Y174584D01*
X52166D01*
Y174438D01*
X52312D01*
Y174293D01*
X52457D01*
Y174147D01*
X52603D01*
Y174002D01*
X52748D01*
Y173856D01*
X52894D01*
Y173711D01*
X53185D01*
Y173565D01*
X53330D01*
Y173420D01*
X53475D01*
Y173275D01*
X70639D01*
Y173129D01*
Y172984D01*
Y172838D01*
Y172693D01*
Y172547D01*
Y172402D01*
Y172256D01*
Y172111D01*
Y171966D01*
Y171820D01*
Y171675D01*
Y171529D01*
Y171384D01*
Y171238D01*
Y171093D01*
Y170947D01*
Y170802D01*
Y170656D01*
Y170511D01*
Y170366D01*
Y170220D01*
Y170075D01*
Y169929D01*
Y169784D01*
Y169638D01*
Y169493D01*
Y169347D01*
Y169202D01*
Y169056D01*
Y168911D01*
Y168765D01*
Y168620D01*
Y168475D01*
Y168329D01*
Y168184D01*
Y168038D01*
Y167893D01*
Y167747D01*
Y167602D01*
Y167456D01*
Y167311D01*
Y167166D01*
Y167020D01*
Y166875D01*
Y166729D01*
Y166584D01*
Y166438D01*
Y166293D01*
Y166147D01*
Y166002D01*
Y165857D01*
Y165711D01*
Y165566D01*
Y165420D01*
Y165275D01*
Y165129D01*
Y164984D01*
Y164838D01*
X75439D01*
Y164693D01*
Y164547D01*
Y164402D01*
Y164257D01*
Y164111D01*
Y163966D01*
Y163820D01*
Y163675D01*
Y163529D01*
Y163384D01*
Y163238D01*
Y163093D01*
Y162947D01*
Y162802D01*
Y162656D01*
Y162511D01*
Y162366D01*
Y162220D01*
Y162075D01*
Y161929D01*
Y161784D01*
Y161638D01*
Y161493D01*
Y161347D01*
Y161202D01*
Y161056D01*
Y160911D01*
Y160766D01*
Y160620D01*
Y160475D01*
Y160329D01*
Y160184D01*
Y160038D01*
Y159893D01*
Y159747D01*
Y159602D01*
Y159457D01*
Y159311D01*
Y159166D01*
Y159020D01*
Y158875D01*
Y158729D01*
Y158584D01*
Y158438D01*
Y158293D01*
Y158148D01*
Y158002D01*
Y157857D01*
Y157711D01*
Y157566D01*
Y157420D01*
Y157275D01*
Y157129D01*
Y156984D01*
Y156838D01*
Y156693D01*
Y156547D01*
Y156402D01*
Y156256D01*
Y156111D01*
Y155966D01*
Y155820D01*
Y155675D01*
X70639D01*
Y155529D01*
Y155384D01*
Y155238D01*
Y155093D01*
Y154947D01*
Y154802D01*
Y154657D01*
Y154511D01*
Y154366D01*
Y154220D01*
Y154075D01*
Y153929D01*
Y153784D01*
Y153638D01*
Y153493D01*
Y153348D01*
Y153202D01*
Y153057D01*
Y152911D01*
Y152766D01*
Y152620D01*
Y152475D01*
Y152329D01*
Y152184D01*
Y152038D01*
Y151893D01*
Y151748D01*
Y151602D01*
Y151457D01*
Y151311D01*
Y151166D01*
Y151020D01*
Y150875D01*
Y150729D01*
Y150584D01*
Y150438D01*
Y150293D01*
Y150147D01*
Y150002D01*
Y149857D01*
Y149711D01*
Y149566D01*
Y149420D01*
Y149275D01*
Y149129D01*
Y148984D01*
Y148838D01*
Y148693D01*
Y148547D01*
Y148402D01*
Y148257D01*
Y148111D01*
Y147966D01*
Y147820D01*
Y147675D01*
Y147529D01*
Y147384D01*
X36603D01*
Y147529D01*
Y147675D01*
Y147820D01*
Y147966D01*
Y148111D01*
Y148257D01*
Y148402D01*
Y148547D01*
Y148693D01*
Y148838D01*
Y148984D01*
Y149129D01*
Y149275D01*
Y149420D01*
Y149566D01*
Y149711D01*
Y149857D01*
Y150002D01*
Y150147D01*
Y150293D01*
Y150438D01*
Y150584D01*
Y150729D01*
Y150875D01*
Y151020D01*
Y151166D01*
Y151311D01*
Y151457D01*
Y151602D01*
Y151748D01*
Y151893D01*
Y152038D01*
Y152184D01*
Y152329D01*
Y152475D01*
Y152620D01*
Y152766D01*
Y152911D01*
Y153057D01*
Y153202D01*
Y153348D01*
Y153493D01*
Y153638D01*
Y153784D01*
Y153929D01*
Y154075D01*
Y154220D01*
Y154366D01*
Y154511D01*
Y154657D01*
Y154802D01*
Y154947D01*
Y155093D01*
Y155238D01*
Y155384D01*
X31076D01*
Y155529D01*
Y155675D01*
Y155820D01*
Y155966D01*
Y156111D01*
Y156256D01*
Y156402D01*
Y156547D01*
Y156693D01*
Y156838D01*
Y156984D01*
Y157129D01*
Y157275D01*
Y157420D01*
Y157566D01*
Y157711D01*
Y157857D01*
Y158002D01*
Y158148D01*
Y158293D01*
Y158438D01*
Y158584D01*
Y158729D01*
Y158875D01*
Y159020D01*
Y159166D01*
Y159311D01*
Y159457D01*
Y159602D01*
Y159747D01*
Y159893D01*
Y160038D01*
Y160184D01*
Y160329D01*
Y160475D01*
Y160620D01*
Y160766D01*
Y160911D01*
Y161056D01*
Y161202D01*
Y161347D01*
Y161493D01*
Y161638D01*
Y161784D01*
Y161929D01*
Y162075D01*
Y162220D01*
Y162366D01*
Y162511D01*
Y162656D01*
Y162802D01*
Y162947D01*
Y163093D01*
Y163238D01*
Y163384D01*
Y163529D01*
Y163675D01*
Y163820D01*
Y163966D01*
Y164111D01*
Y164257D01*
Y164402D01*
Y164547D01*
Y164693D01*
Y164838D01*
Y164984D01*
Y165129D01*
Y165275D01*
X36603D01*
Y165420D01*
Y165566D01*
Y165711D01*
Y165857D01*
Y166002D01*
Y166147D01*
Y166293D01*
Y166438D01*
Y166584D01*
Y166729D01*
Y166875D01*
Y167020D01*
Y167166D01*
Y167311D01*
Y167456D01*
Y167602D01*
Y167747D01*
Y167893D01*
Y168038D01*
Y168184D01*
Y168329D01*
Y168475D01*
Y168620D01*
Y168765D01*
Y168911D01*
Y169056D01*
Y169202D01*
Y169347D01*
Y169493D01*
Y169638D01*
Y169784D01*
Y169929D01*
Y170075D01*
Y170220D01*
Y170366D01*
Y170511D01*
Y170656D01*
Y170802D01*
Y170947D01*
Y171093D01*
Y171238D01*
Y171384D01*
Y171529D01*
Y171675D01*
Y171820D01*
Y171966D01*
Y172111D01*
Y172256D01*
Y172402D01*
Y172547D01*
Y172693D01*
Y172838D01*
Y172984D01*
Y173129D01*
Y173275D01*
X52312D01*
Y173420D01*
X52166D01*
Y173565D01*
X52021D01*
Y173711D01*
X51876D01*
Y173856D01*
X51730D01*
Y174002D01*
X51585D01*
Y174147D01*
X51294D01*
Y174293D01*
X51148D01*
Y174438D01*
X51003D01*
Y174584D01*
X50857D01*
Y174729D01*
X50712D01*
Y174875D01*
X50566D01*
Y175020D01*
X50421D01*
Y175165D01*
X50275D01*
Y175311D01*
Y175456D01*
X50130D01*
Y175602D01*
X49985D01*
Y175747D01*
Y175893D01*
Y176038D01*
Y176184D01*
Y176329D01*
Y176475D01*
X50130D01*
Y176620D01*
X50275D01*
Y176766D01*
X50566D01*
Y176911D01*
X50857D01*
Y177056D01*
X51439D01*
Y177202D01*
X52166D01*
Y177347D01*
X52894D01*
Y177493D01*
X53475D01*
Y177638D01*
Y177784D01*
X53621D01*
Y177929D01*
Y178075D01*
X53766D01*
Y178220D01*
X53912D01*
Y178366D01*
X54057D01*
Y178511D01*
X54348D01*
Y178656D01*
X54494D01*
Y178802D01*
X54930D01*
Y178947D01*
X55948D01*
Y178802D01*
D02*
G37*
%LPC*%
G36*
X55803Y178220D02*
X55076D01*
Y178075D01*
X54785D01*
Y177929D01*
X54494D01*
Y177784D01*
X54348D01*
Y177638D01*
X54203D01*
Y177493D01*
Y177347D01*
X54057D01*
Y177202D01*
Y177056D01*
Y176911D01*
Y176766D01*
Y176620D01*
X54203D01*
Y176475D01*
Y176329D01*
X54348D01*
Y176184D01*
X54494D01*
Y176038D01*
X54639D01*
Y175893D01*
X54930D01*
Y175747D01*
X55948D01*
Y175893D01*
X56239D01*
Y176038D01*
X56384D01*
Y176184D01*
X56530D01*
Y176329D01*
X56675D01*
Y176475D01*
Y176620D01*
X56821D01*
Y176766D01*
Y176911D01*
Y177056D01*
Y177202D01*
Y177347D01*
X56675D01*
Y177493D01*
Y177638D01*
X56530D01*
Y177784D01*
X56384D01*
Y177929D01*
X56094D01*
Y178075D01*
X55803D01*
Y178220D01*
D02*
G37*
G36*
X72239Y161493D02*
X70784D01*
Y161347D01*
Y161202D01*
Y161056D01*
Y160911D01*
Y160766D01*
Y160620D01*
Y160475D01*
Y160329D01*
Y160184D01*
Y160038D01*
Y159893D01*
Y159747D01*
Y159602D01*
Y159457D01*
Y159311D01*
Y159166D01*
Y159020D01*
X72239D01*
Y159166D01*
Y159311D01*
Y159457D01*
Y159602D01*
Y159747D01*
Y159893D01*
Y160038D01*
Y160184D01*
Y160329D01*
Y160475D01*
Y160620D01*
Y160766D01*
Y160911D01*
Y161056D01*
Y161202D01*
Y161347D01*
Y161493D01*
D02*
G37*
G36*
X36312D02*
X34857D01*
Y161347D01*
Y161202D01*
Y161056D01*
Y160911D01*
Y160766D01*
Y160620D01*
Y160475D01*
Y160329D01*
Y160184D01*
Y160038D01*
Y159893D01*
Y159747D01*
Y159602D01*
Y159457D01*
Y159311D01*
Y159166D01*
Y159020D01*
X36312D01*
Y159166D01*
Y159311D01*
Y159457D01*
Y159602D01*
Y159747D01*
Y159893D01*
Y160038D01*
Y160184D01*
Y160329D01*
Y160475D01*
Y160620D01*
Y160766D01*
Y160911D01*
Y161056D01*
Y161202D01*
Y161347D01*
Y161493D01*
D02*
G37*
G36*
X74712Y164111D02*
X70784D01*
Y163966D01*
Y163820D01*
Y163675D01*
Y163529D01*
Y163384D01*
Y163238D01*
Y163093D01*
Y162947D01*
Y162802D01*
Y162656D01*
Y162511D01*
Y162366D01*
Y162220D01*
X72966D01*
Y162075D01*
Y161929D01*
Y161784D01*
Y161638D01*
Y161493D01*
Y161347D01*
Y161202D01*
Y161056D01*
Y160911D01*
Y160766D01*
Y160620D01*
Y160475D01*
Y160329D01*
Y160184D01*
Y160038D01*
Y159893D01*
Y159747D01*
Y159602D01*
Y159457D01*
Y159311D01*
Y159166D01*
Y159020D01*
Y158875D01*
Y158729D01*
Y158584D01*
Y158438D01*
Y158293D01*
X70784D01*
Y158148D01*
Y158002D01*
Y157857D01*
Y157711D01*
Y157566D01*
Y157420D01*
Y157275D01*
Y157129D01*
Y156984D01*
Y156838D01*
Y156693D01*
Y156547D01*
Y156402D01*
X74712D01*
Y156547D01*
Y156693D01*
Y156838D01*
Y156984D01*
Y157129D01*
Y157275D01*
Y157420D01*
Y157566D01*
Y157711D01*
Y157857D01*
Y158002D01*
Y158148D01*
Y158293D01*
Y158438D01*
Y158584D01*
Y158729D01*
Y158875D01*
Y159020D01*
Y159166D01*
Y159311D01*
Y159457D01*
Y159602D01*
Y159747D01*
Y159893D01*
Y160038D01*
Y160184D01*
Y160329D01*
Y160475D01*
Y160620D01*
Y160766D01*
Y160911D01*
Y161056D01*
Y161202D01*
Y161347D01*
Y161493D01*
Y161638D01*
Y161784D01*
Y161929D01*
Y162075D01*
Y162220D01*
Y162366D01*
Y162511D01*
Y162656D01*
Y162802D01*
Y162947D01*
Y163093D01*
Y163238D01*
Y163384D01*
Y163529D01*
Y163675D01*
Y163820D01*
Y163966D01*
Y164111D01*
D02*
G37*
G36*
X36312Y164547D02*
X31803D01*
Y164402D01*
Y164257D01*
Y164111D01*
Y163966D01*
Y163820D01*
Y163675D01*
Y163529D01*
Y163384D01*
Y163238D01*
Y163093D01*
Y162947D01*
Y162802D01*
Y162656D01*
Y162511D01*
Y162366D01*
Y162220D01*
Y162075D01*
Y161929D01*
Y161784D01*
Y161638D01*
Y161493D01*
Y161347D01*
Y161202D01*
Y161056D01*
Y160911D01*
Y160766D01*
Y160620D01*
Y160475D01*
Y160329D01*
Y160184D01*
Y160038D01*
Y159893D01*
Y159747D01*
Y159602D01*
Y159457D01*
Y159311D01*
Y159166D01*
Y159020D01*
Y158875D01*
Y158729D01*
Y158584D01*
Y158438D01*
Y158293D01*
Y158148D01*
Y158002D01*
Y157857D01*
Y157711D01*
Y157566D01*
Y157420D01*
Y157275D01*
Y157129D01*
Y156984D01*
Y156838D01*
Y156693D01*
Y156547D01*
Y156402D01*
Y156256D01*
Y156111D01*
X36312D01*
Y156256D01*
Y156402D01*
Y156547D01*
Y156693D01*
Y156838D01*
Y156984D01*
Y157129D01*
Y157275D01*
Y157420D01*
Y157566D01*
Y157711D01*
Y157857D01*
Y158002D01*
Y158148D01*
Y158293D01*
X34130D01*
Y158438D01*
Y158584D01*
Y158729D01*
Y158875D01*
Y159020D01*
Y159166D01*
Y159311D01*
Y159457D01*
Y159602D01*
Y159747D01*
Y159893D01*
Y160038D01*
Y160184D01*
Y160329D01*
Y160475D01*
Y160620D01*
Y160766D01*
Y160911D01*
Y161056D01*
Y161202D01*
Y161347D01*
Y161493D01*
Y161638D01*
Y161784D01*
Y161929D01*
Y162075D01*
Y162220D01*
X36312D01*
Y162366D01*
Y162511D01*
Y162656D01*
Y162802D01*
Y162947D01*
Y163093D01*
Y163238D01*
Y163384D01*
Y163529D01*
Y163675D01*
Y163820D01*
Y163966D01*
Y164111D01*
Y164257D01*
Y164402D01*
Y164547D01*
D02*
G37*
G36*
X69912Y172547D02*
X37330D01*
Y172402D01*
Y172256D01*
Y172111D01*
Y171966D01*
Y171820D01*
Y171675D01*
Y171529D01*
Y171384D01*
Y171238D01*
Y171093D01*
Y170947D01*
Y170802D01*
Y170656D01*
Y170511D01*
Y170366D01*
Y170220D01*
Y170075D01*
Y169929D01*
Y169784D01*
Y169638D01*
Y169493D01*
Y169347D01*
Y169202D01*
Y169056D01*
Y168911D01*
Y168765D01*
Y168620D01*
Y168475D01*
Y168329D01*
Y168184D01*
Y168038D01*
Y167893D01*
Y167747D01*
Y167602D01*
Y167456D01*
Y167311D01*
Y167166D01*
Y167020D01*
Y166875D01*
Y166729D01*
Y166584D01*
Y166438D01*
Y166293D01*
Y166147D01*
Y166002D01*
Y165857D01*
Y165711D01*
Y165566D01*
Y165420D01*
Y165275D01*
Y165129D01*
Y164984D01*
Y164838D01*
Y164693D01*
Y164547D01*
Y164402D01*
Y164257D01*
Y164111D01*
Y163966D01*
Y163820D01*
Y163675D01*
Y163529D01*
Y163384D01*
Y163238D01*
Y163093D01*
Y162947D01*
Y162802D01*
Y162656D01*
Y162511D01*
Y162366D01*
Y162220D01*
Y162075D01*
Y161929D01*
Y161784D01*
Y161638D01*
Y161493D01*
Y161347D01*
Y161202D01*
Y161056D01*
Y160911D01*
Y160766D01*
Y160620D01*
Y160475D01*
Y160329D01*
Y160184D01*
Y160038D01*
Y159893D01*
Y159747D01*
Y159602D01*
Y159457D01*
Y159311D01*
Y159166D01*
Y159020D01*
Y158875D01*
Y158729D01*
Y158584D01*
Y158438D01*
Y158293D01*
Y158148D01*
Y158002D01*
Y157857D01*
Y157711D01*
Y157566D01*
Y157420D01*
Y157275D01*
Y157129D01*
Y156984D01*
Y156838D01*
Y156693D01*
Y156547D01*
Y156402D01*
Y156256D01*
Y156111D01*
Y155966D01*
Y155820D01*
Y155675D01*
Y155529D01*
Y155384D01*
Y155238D01*
Y155093D01*
Y154947D01*
Y154802D01*
Y154657D01*
Y154511D01*
Y154366D01*
Y154220D01*
Y154075D01*
Y153929D01*
Y153784D01*
Y153638D01*
Y153493D01*
Y153348D01*
Y153202D01*
Y153057D01*
Y152911D01*
Y152766D01*
Y152620D01*
Y152475D01*
Y152329D01*
Y152184D01*
Y152038D01*
Y151893D01*
Y151748D01*
Y151602D01*
Y151457D01*
Y151311D01*
Y151166D01*
Y151020D01*
Y150875D01*
Y150729D01*
Y150584D01*
Y150438D01*
Y150293D01*
Y150147D01*
Y150002D01*
Y149857D01*
Y149711D01*
Y149566D01*
Y149420D01*
Y149275D01*
Y149129D01*
Y148984D01*
Y148838D01*
Y148693D01*
Y148547D01*
Y148402D01*
Y148257D01*
Y148111D01*
X69912D01*
Y148257D01*
Y148402D01*
Y148547D01*
Y148693D01*
Y148838D01*
Y148984D01*
Y149129D01*
Y149275D01*
Y149420D01*
Y149566D01*
Y149711D01*
Y149857D01*
Y150002D01*
Y150147D01*
Y150293D01*
Y150438D01*
Y150584D01*
Y150729D01*
Y150875D01*
Y151020D01*
Y151166D01*
Y151311D01*
Y151457D01*
Y151602D01*
Y151748D01*
Y151893D01*
Y152038D01*
Y152184D01*
Y152329D01*
Y152475D01*
Y152620D01*
Y152766D01*
Y152911D01*
Y153057D01*
Y153202D01*
Y153348D01*
Y153493D01*
Y153638D01*
Y153784D01*
Y153929D01*
Y154075D01*
Y154220D01*
Y154366D01*
Y154511D01*
Y154657D01*
Y154802D01*
Y154947D01*
Y155093D01*
Y155238D01*
Y155384D01*
Y155529D01*
Y155675D01*
Y155820D01*
Y155966D01*
Y156111D01*
Y156256D01*
Y156402D01*
Y156547D01*
Y156693D01*
Y156838D01*
Y156984D01*
Y157129D01*
Y157275D01*
Y157420D01*
Y157566D01*
Y157711D01*
Y157857D01*
Y158002D01*
Y158148D01*
Y158293D01*
Y158438D01*
Y158584D01*
Y158729D01*
Y158875D01*
Y159020D01*
Y159166D01*
Y159311D01*
Y159457D01*
Y159602D01*
Y159747D01*
Y159893D01*
Y160038D01*
Y160184D01*
Y160329D01*
Y160475D01*
Y160620D01*
Y160766D01*
Y160911D01*
Y161056D01*
Y161202D01*
Y161347D01*
Y161493D01*
Y161638D01*
Y161784D01*
Y161929D01*
Y162075D01*
Y162220D01*
Y162366D01*
Y162511D01*
Y162656D01*
Y162802D01*
Y162947D01*
Y163093D01*
Y163238D01*
Y163384D01*
Y163529D01*
Y163675D01*
Y163820D01*
Y163966D01*
Y164111D01*
Y164257D01*
Y164402D01*
Y164547D01*
Y164693D01*
Y164838D01*
Y164984D01*
Y165129D01*
Y165275D01*
Y165420D01*
Y165566D01*
Y165711D01*
Y165857D01*
Y166002D01*
Y166147D01*
Y166293D01*
Y166438D01*
Y166584D01*
Y166729D01*
Y166875D01*
Y167020D01*
Y167166D01*
Y167311D01*
Y167456D01*
Y167602D01*
Y167747D01*
Y167893D01*
Y168038D01*
Y168184D01*
Y168329D01*
Y168475D01*
Y168620D01*
Y168765D01*
Y168911D01*
Y169056D01*
Y169202D01*
Y169347D01*
Y169493D01*
Y169638D01*
Y169784D01*
Y169929D01*
Y170075D01*
Y170220D01*
Y170366D01*
Y170511D01*
Y170656D01*
Y170802D01*
Y170947D01*
Y171093D01*
Y171238D01*
Y171384D01*
Y171529D01*
Y171675D01*
Y171820D01*
Y171966D01*
Y172111D01*
Y172256D01*
Y172402D01*
Y172547D01*
D02*
G37*
%LPD*%
G36*
X66857Y170947D02*
X67148D01*
Y170802D01*
X67439D01*
Y170656D01*
X67584D01*
Y170511D01*
Y170366D01*
X67730D01*
Y170220D01*
Y170075D01*
X67875D01*
Y169929D01*
Y169784D01*
Y169638D01*
Y169493D01*
Y169347D01*
Y169202D01*
X67730D01*
Y169056D01*
Y168911D01*
X67584D01*
Y168765D01*
Y168620D01*
X67439D01*
Y168475D01*
X67148D01*
Y168329D01*
X66857D01*
Y168184D01*
X65984D01*
Y168329D01*
X65694D01*
Y168475D01*
X65403D01*
Y168620D01*
X65257D01*
Y168765D01*
Y168911D01*
X65112D01*
Y169056D01*
Y169202D01*
X64966D01*
Y169347D01*
Y169493D01*
Y169638D01*
Y169784D01*
Y169929D01*
Y170075D01*
X65112D01*
Y170220D01*
Y170366D01*
X65257D01*
Y170511D01*
Y170656D01*
X65403D01*
Y170802D01*
X65694D01*
Y170947D01*
X65984D01*
Y171093D01*
X66857D01*
Y170947D01*
D02*
G37*
G36*
X40530D02*
X40821D01*
Y170802D01*
X41112D01*
Y170656D01*
X41257D01*
Y170511D01*
Y170366D01*
X41403D01*
Y170220D01*
Y170075D01*
X41548D01*
Y169929D01*
Y169784D01*
Y169638D01*
Y169493D01*
Y169347D01*
Y169202D01*
X41403D01*
Y169056D01*
Y168911D01*
X41257D01*
Y168765D01*
Y168620D01*
X41112D01*
Y168475D01*
X40821D01*
Y168329D01*
X40530D01*
Y168184D01*
X39657D01*
Y168329D01*
X39366D01*
Y168475D01*
X39076D01*
Y168620D01*
X38930D01*
Y168765D01*
Y168911D01*
X38785D01*
Y169056D01*
Y169202D01*
X38639D01*
Y169347D01*
Y169493D01*
Y169638D01*
Y169784D01*
Y169929D01*
Y170075D01*
X38785D01*
Y170220D01*
Y170366D01*
X38930D01*
Y170511D01*
Y170656D01*
X39076D01*
Y170802D01*
X39366D01*
Y170947D01*
X39657D01*
Y171093D01*
X40530D01*
Y170947D01*
D02*
G37*
G36*
X60894Y168038D02*
X61475D01*
Y167893D01*
X61766D01*
Y167747D01*
X62057D01*
Y167602D01*
X62203D01*
Y167456D01*
X62348D01*
Y167311D01*
X62639D01*
Y167166D01*
X62784D01*
Y167020D01*
Y166875D01*
X62930D01*
Y166729D01*
X63075D01*
Y166584D01*
X63221D01*
Y166438D01*
Y166293D01*
X63366D01*
Y166147D01*
Y166002D01*
X63512D01*
Y165857D01*
Y165711D01*
Y165566D01*
Y165420D01*
X63657D01*
Y165275D01*
Y165129D01*
Y164984D01*
Y164838D01*
Y164693D01*
Y164547D01*
Y164402D01*
Y164257D01*
Y164111D01*
X63512D01*
Y163966D01*
Y163820D01*
Y163675D01*
Y163529D01*
X63366D01*
Y163384D01*
Y163238D01*
X63221D01*
Y163093D01*
Y162947D01*
X63075D01*
Y162802D01*
X62930D01*
Y162656D01*
Y162511D01*
X62784D01*
Y162366D01*
X62639D01*
Y162220D01*
X62494D01*
Y162075D01*
X62203D01*
Y161929D01*
X62057D01*
Y161784D01*
X61766D01*
Y161638D01*
X61475D01*
Y161493D01*
X60894D01*
Y161347D01*
X59584D01*
Y161493D01*
X59003D01*
Y161638D01*
X58712D01*
Y161784D01*
X58421D01*
Y161929D01*
X58275D01*
Y162075D01*
X58130D01*
Y162220D01*
X57839D01*
Y162366D01*
X57694D01*
Y162511D01*
Y162656D01*
X57548D01*
Y162802D01*
X57403D01*
Y162947D01*
X57257D01*
Y163093D01*
Y163238D01*
X57112D01*
Y163384D01*
Y163529D01*
X56966D01*
Y163675D01*
Y163820D01*
Y163966D01*
Y164111D01*
X56821D01*
Y164257D01*
Y164402D01*
Y164547D01*
Y164693D01*
Y164838D01*
Y164984D01*
Y165129D01*
Y165275D01*
Y165420D01*
X56966D01*
Y165566D01*
Y165711D01*
Y165857D01*
Y166002D01*
X57112D01*
Y166147D01*
Y166293D01*
X57257D01*
Y166438D01*
Y166584D01*
X57403D01*
Y166729D01*
X57548D01*
Y166875D01*
X57694D01*
Y167020D01*
Y167166D01*
X57839D01*
Y167311D01*
X58130D01*
Y167456D01*
X58275D01*
Y167602D01*
X58421D01*
Y167747D01*
X58712D01*
Y167893D01*
X59003D01*
Y168038D01*
X59584D01*
Y168184D01*
X60894D01*
Y168038D01*
D02*
G37*
G36*
X46639D02*
X47221D01*
Y167893D01*
X47512D01*
Y167747D01*
X47803D01*
Y167602D01*
X47948D01*
Y167456D01*
X48094D01*
Y167311D01*
X48385D01*
Y167166D01*
X48530D01*
Y167020D01*
Y166875D01*
X48676D01*
Y166729D01*
X48821D01*
Y166584D01*
X48966D01*
Y166438D01*
Y166293D01*
X49112D01*
Y166147D01*
Y166002D01*
X49257D01*
Y165857D01*
Y165711D01*
Y165566D01*
Y165420D01*
X49403D01*
Y165275D01*
Y165129D01*
Y164984D01*
Y164838D01*
Y164693D01*
Y164547D01*
Y164402D01*
Y164257D01*
Y164111D01*
X49257D01*
Y163966D01*
Y163820D01*
Y163675D01*
Y163529D01*
X49112D01*
Y163384D01*
Y163238D01*
X48966D01*
Y163093D01*
Y162947D01*
X48821D01*
Y162802D01*
X48676D01*
Y162656D01*
Y162511D01*
X48530D01*
Y162366D01*
X48385D01*
Y162220D01*
X48239D01*
Y162075D01*
X47948D01*
Y161929D01*
X47803D01*
Y161784D01*
X47512D01*
Y161638D01*
X47221D01*
Y161493D01*
X46639D01*
Y161347D01*
X45330D01*
Y161493D01*
X44748D01*
Y161638D01*
X44457D01*
Y161784D01*
X44166D01*
Y161929D01*
X44021D01*
Y162075D01*
X43876D01*
Y162220D01*
X43585D01*
Y162366D01*
X43439D01*
Y162511D01*
Y162656D01*
X43294D01*
Y162802D01*
X43148D01*
Y162947D01*
X43003D01*
Y163093D01*
Y163238D01*
X42857D01*
Y163384D01*
Y163529D01*
X42712D01*
Y163675D01*
Y163820D01*
Y163966D01*
Y164111D01*
X42566D01*
Y164257D01*
Y164402D01*
Y164547D01*
Y164693D01*
Y164838D01*
Y164984D01*
Y165129D01*
Y165275D01*
Y165420D01*
X42712D01*
Y165566D01*
Y165711D01*
Y165857D01*
Y166002D01*
X42857D01*
Y166147D01*
Y166293D01*
X43003D01*
Y166438D01*
Y166584D01*
X43148D01*
Y166729D01*
X43294D01*
Y166875D01*
X43439D01*
Y167020D01*
Y167166D01*
X43585D01*
Y167311D01*
X43876D01*
Y167456D01*
X44021D01*
Y167602D01*
X44166D01*
Y167747D01*
X44457D01*
Y167893D01*
X44748D01*
Y168038D01*
X45330D01*
Y168184D01*
X46639D01*
Y168038D01*
D02*
G37*
G36*
X53330Y158293D02*
X53621D01*
Y158148D01*
X53766D01*
Y158002D01*
X54057D01*
Y157857D01*
X54203D01*
Y157711D01*
X54348D01*
Y157566D01*
X54639D01*
Y157420D01*
X54785D01*
Y157275D01*
X54930D01*
Y157129D01*
X55221D01*
Y156984D01*
X55366D01*
Y156838D01*
X55512D01*
Y156693D01*
X55803D01*
Y156547D01*
X55948D01*
Y156402D01*
X56094D01*
Y156256D01*
X56384D01*
Y156111D01*
X56530D01*
Y155966D01*
X56675D01*
Y155820D01*
X56966D01*
Y155675D01*
X57112D01*
Y155529D01*
X57257D01*
Y155384D01*
X57548D01*
Y155238D01*
X57694D01*
Y155093D01*
X57839D01*
Y154947D01*
X58130D01*
Y154802D01*
X58275D01*
Y154657D01*
X58421D01*
Y154511D01*
X58712D01*
Y154366D01*
X58857D01*
Y154220D01*
X59148D01*
Y154075D01*
X59294D01*
Y153929D01*
X59439D01*
Y153784D01*
X59730D01*
Y153638D01*
X59875D01*
Y153493D01*
X60021D01*
Y153348D01*
X60312D01*
Y153202D01*
X60457D01*
Y153057D01*
X60603D01*
Y152911D01*
X60894D01*
Y152766D01*
X61039D01*
Y152620D01*
X61185D01*
Y152475D01*
Y152329D01*
Y152184D01*
X61039D01*
Y152038D01*
X45330D01*
Y152184D01*
X45185D01*
Y152329D01*
Y152475D01*
Y152620D01*
X45330D01*
Y152766D01*
X45476D01*
Y152911D01*
X45766D01*
Y153057D01*
X45912D01*
Y153202D01*
X46057D01*
Y153348D01*
X46348D01*
Y153493D01*
X46494D01*
Y153638D01*
X46639D01*
Y153784D01*
X46930D01*
Y153929D01*
X47076D01*
Y154075D01*
X47366D01*
Y154220D01*
X47512D01*
Y154366D01*
X47657D01*
Y154511D01*
X47948D01*
Y154657D01*
X48094D01*
Y154802D01*
X48239D01*
Y154947D01*
X48530D01*
Y155093D01*
X48676D01*
Y155238D01*
X48821D01*
Y155384D01*
X49112D01*
Y155529D01*
X49257D01*
Y155675D01*
X49403D01*
Y155820D01*
X49694D01*
Y155966D01*
X49839D01*
Y156111D01*
X49985D01*
Y156256D01*
X50275D01*
Y156402D01*
X50421D01*
Y156547D01*
X50566D01*
Y156693D01*
X50857D01*
Y156838D01*
X51003D01*
Y156984D01*
X51148D01*
Y157129D01*
X51439D01*
Y157275D01*
X51585D01*
Y157420D01*
X51730D01*
Y157566D01*
X52021D01*
Y157711D01*
X52166D01*
Y157857D01*
X52457D01*
Y158002D01*
X52603D01*
Y158148D01*
X52748D01*
Y158293D01*
X53039D01*
Y158438D01*
X53330D01*
Y158293D01*
D02*
G37*
G36*
X66857Y152329D02*
X67148D01*
Y152184D01*
X67439D01*
Y152038D01*
X67584D01*
Y151893D01*
Y151748D01*
X67730D01*
Y151602D01*
Y151457D01*
X67875D01*
Y151311D01*
Y151166D01*
Y151020D01*
Y150875D01*
Y150729D01*
Y150584D01*
X67730D01*
Y150438D01*
Y150293D01*
X67584D01*
Y150147D01*
Y150002D01*
X67439D01*
Y149857D01*
X67148D01*
Y149711D01*
X66857D01*
Y149566D01*
X65984D01*
Y149711D01*
X65694D01*
Y149857D01*
X65403D01*
Y150002D01*
X65257D01*
Y150147D01*
Y150293D01*
X65112D01*
Y150438D01*
Y150584D01*
X64966D01*
Y150729D01*
Y150875D01*
Y151020D01*
Y151166D01*
Y151311D01*
Y151457D01*
X65112D01*
Y151602D01*
Y151748D01*
X65257D01*
Y151893D01*
Y152038D01*
X65403D01*
Y152184D01*
X65694D01*
Y152329D01*
X65984D01*
Y152475D01*
X66857D01*
Y152329D01*
D02*
G37*
G36*
X40530D02*
X40821D01*
Y152184D01*
X41112D01*
Y152038D01*
X41257D01*
Y151893D01*
Y151748D01*
X41403D01*
Y151602D01*
Y151457D01*
X41548D01*
Y151311D01*
Y151166D01*
Y151020D01*
Y150875D01*
Y150729D01*
Y150584D01*
X41403D01*
Y150438D01*
Y150293D01*
X41257D01*
Y150147D01*
Y150002D01*
X41112D01*
Y149857D01*
X40821D01*
Y149711D01*
X40530D01*
Y149566D01*
X39657D01*
Y149711D01*
X39366D01*
Y149857D01*
X39076D01*
Y150002D01*
X38930D01*
Y150147D01*
Y150293D01*
X38785D01*
Y150438D01*
Y150584D01*
X38639D01*
Y150729D01*
Y150875D01*
Y151020D01*
Y151166D01*
Y151311D01*
Y151457D01*
X38785D01*
Y151602D01*
Y151748D01*
X38930D01*
Y151893D01*
Y152038D01*
X39076D01*
Y152184D01*
X39366D01*
Y152329D01*
X39657D01*
Y152475D01*
X40530D01*
Y152329D01*
D02*
G37*
%LPC*%
G36*
X66712Y170366D02*
X66130D01*
Y170220D01*
X65839D01*
Y170075D01*
Y169929D01*
X65694D01*
Y169784D01*
Y169638D01*
Y169493D01*
Y169347D01*
X65839D01*
Y169202D01*
Y169056D01*
X66130D01*
Y168911D01*
X66712D01*
Y169056D01*
X67003D01*
Y169202D01*
Y169347D01*
X67148D01*
Y169493D01*
Y169638D01*
Y169784D01*
Y169929D01*
X67003D01*
Y170075D01*
Y170220D01*
X66712D01*
Y170366D01*
D02*
G37*
G36*
X40385D02*
X39803D01*
Y170220D01*
X39512D01*
Y170075D01*
Y169929D01*
X39366D01*
Y169784D01*
Y169638D01*
Y169493D01*
Y169347D01*
X39512D01*
Y169202D01*
Y169056D01*
X39803D01*
Y168911D01*
X40385D01*
Y169056D01*
X40676D01*
Y169202D01*
Y169347D01*
X40821D01*
Y169493D01*
Y169638D01*
Y169784D01*
Y169929D01*
X40676D01*
Y170075D01*
Y170220D01*
X40385D01*
Y170366D01*
D02*
G37*
G36*
X60748Y167456D02*
X59730D01*
Y167311D01*
X59148D01*
Y167166D01*
X58857D01*
Y167020D01*
X58712D01*
Y166875D01*
X58566D01*
Y166729D01*
X58275D01*
Y166584D01*
Y166438D01*
X58130D01*
Y166293D01*
X57985D01*
Y166147D01*
X57839D01*
Y166002D01*
Y165857D01*
X57694D01*
Y165711D01*
Y165566D01*
Y165420D01*
Y165275D01*
X57548D01*
Y165129D01*
Y164984D01*
Y164838D01*
Y164693D01*
Y164547D01*
Y164402D01*
Y164257D01*
X57694D01*
Y164111D01*
Y163966D01*
Y163820D01*
Y163675D01*
X57839D01*
Y163529D01*
Y163384D01*
X57985D01*
Y163238D01*
X58130D01*
Y163093D01*
X58275D01*
Y162947D01*
Y162802D01*
X58566D01*
Y162656D01*
X58712D01*
Y162511D01*
X58857D01*
Y162366D01*
X59148D01*
Y162220D01*
X59584D01*
Y162075D01*
X60894D01*
Y162220D01*
X61330D01*
Y162366D01*
X61621D01*
Y162511D01*
X61766D01*
Y162656D01*
X62057D01*
Y162802D01*
X62203D01*
Y162947D01*
X62348D01*
Y163093D01*
Y163238D01*
X62494D01*
Y163384D01*
X62639D01*
Y163529D01*
Y163675D01*
X62784D01*
Y163820D01*
Y163966D01*
Y164111D01*
X62930D01*
Y164257D01*
Y164402D01*
Y164547D01*
Y164693D01*
Y164838D01*
Y164984D01*
Y165129D01*
Y165275D01*
Y165420D01*
X62784D01*
Y165566D01*
Y165711D01*
Y165857D01*
X62639D01*
Y166002D01*
Y166147D01*
X62494D01*
Y166293D01*
X62348D01*
Y166438D01*
X62203D01*
Y166584D01*
Y166729D01*
X61912D01*
Y166875D01*
X61766D01*
Y167020D01*
X61621D01*
Y167166D01*
X61330D01*
Y167311D01*
X60748D01*
Y167456D01*
D02*
G37*
%LPD*%
G36*
X60457Y166438D02*
X60748D01*
Y166293D01*
X61039D01*
Y166147D01*
Y166002D01*
X61185D01*
Y165857D01*
Y165711D01*
X61330D01*
Y165566D01*
Y165420D01*
Y165275D01*
Y165129D01*
Y164984D01*
X61185D01*
Y164838D01*
Y164693D01*
X61039D01*
Y164547D01*
Y164402D01*
X60748D01*
Y164257D01*
X60457D01*
Y164111D01*
X59875D01*
Y164257D01*
X59584D01*
Y164402D01*
X59294D01*
Y164547D01*
Y164693D01*
X59148D01*
Y164838D01*
Y164984D01*
X59003D01*
Y165129D01*
Y165275D01*
Y165420D01*
Y165566D01*
Y165711D01*
X59148D01*
Y165857D01*
Y166002D01*
X59294D01*
Y166147D01*
Y166293D01*
X59584D01*
Y166438D01*
X59875D01*
Y166584D01*
X60457D01*
Y166438D01*
D02*
G37*
%LPC*%
G36*
X60312Y165857D02*
X60021D01*
Y165711D01*
X59875D01*
Y165566D01*
X59730D01*
Y165420D01*
Y165275D01*
Y165129D01*
X59875D01*
Y164984D01*
X60021D01*
Y164838D01*
X60312D01*
Y164984D01*
X60457D01*
Y165129D01*
X60603D01*
Y165275D01*
Y165420D01*
Y165566D01*
X60457D01*
Y165711D01*
X60312D01*
Y165857D01*
D02*
G37*
G36*
X46494Y167456D02*
X45476D01*
Y167311D01*
X44894D01*
Y167166D01*
X44603D01*
Y167020D01*
X44457D01*
Y166875D01*
X44312D01*
Y166729D01*
X44021D01*
Y166584D01*
Y166438D01*
X43876D01*
Y166293D01*
X43730D01*
Y166147D01*
X43585D01*
Y166002D01*
Y165857D01*
X43439D01*
Y165711D01*
Y165566D01*
Y165420D01*
Y165275D01*
X43294D01*
Y165129D01*
Y164984D01*
Y164838D01*
Y164693D01*
Y164547D01*
Y164402D01*
Y164257D01*
X43439D01*
Y164111D01*
Y163966D01*
Y163820D01*
Y163675D01*
X43585D01*
Y163529D01*
Y163384D01*
X43730D01*
Y163238D01*
X43876D01*
Y163093D01*
X44021D01*
Y162947D01*
Y162802D01*
X44312D01*
Y162656D01*
X44457D01*
Y162511D01*
X44603D01*
Y162366D01*
X44894D01*
Y162220D01*
X45330D01*
Y162075D01*
X46639D01*
Y162220D01*
X47076D01*
Y162366D01*
X47366D01*
Y162511D01*
X47512D01*
Y162656D01*
X47803D01*
Y162802D01*
X47948D01*
Y162947D01*
X48094D01*
Y163093D01*
Y163238D01*
X48239D01*
Y163384D01*
X48385D01*
Y163529D01*
Y163675D01*
X48530D01*
Y163820D01*
Y163966D01*
Y164111D01*
X48676D01*
Y164257D01*
Y164402D01*
Y164547D01*
Y164693D01*
Y164838D01*
Y164984D01*
Y165129D01*
Y165275D01*
Y165420D01*
X48530D01*
Y165566D01*
Y165711D01*
Y165857D01*
X48385D01*
Y166002D01*
Y166147D01*
X48239D01*
Y166293D01*
X48094D01*
Y166438D01*
X47948D01*
Y166584D01*
Y166729D01*
X47657D01*
Y166875D01*
X47512D01*
Y167020D01*
X47366D01*
Y167166D01*
X47076D01*
Y167311D01*
X46494D01*
Y167456D01*
D02*
G37*
%LPD*%
G36*
Y165275D02*
X46785D01*
Y165129D01*
X46930D01*
Y164984D01*
X47076D01*
Y164838D01*
Y164693D01*
X47221D01*
Y164547D01*
Y164402D01*
Y164257D01*
Y164111D01*
Y163966D01*
X47076D01*
Y163820D01*
Y163675D01*
X46930D01*
Y163529D01*
X46785D01*
Y163384D01*
X46494D01*
Y163238D01*
X45621D01*
Y163384D01*
X45330D01*
Y163529D01*
X45185D01*
Y163675D01*
X45039D01*
Y163820D01*
Y163966D01*
X44894D01*
Y164111D01*
Y164257D01*
Y164402D01*
Y164547D01*
Y164693D01*
X45039D01*
Y164838D01*
Y164984D01*
X45185D01*
Y165129D01*
X45330D01*
Y165275D01*
X45621D01*
Y165420D01*
X46494D01*
Y165275D01*
D02*
G37*
%LPC*%
G36*
X46348Y164693D02*
X45766D01*
Y164547D01*
X45621D01*
Y164402D01*
Y164257D01*
Y164111D01*
X45766D01*
Y163966D01*
X46348D01*
Y164111D01*
X46494D01*
Y164257D01*
Y164402D01*
Y164547D01*
X46348D01*
Y164693D01*
D02*
G37*
G36*
X56530Y155238D02*
X56384D01*
Y155093D01*
Y154947D01*
Y154802D01*
Y154657D01*
Y154511D01*
X57257D01*
Y154657D01*
X57112D01*
Y154802D01*
X56821D01*
Y154947D01*
X56675D01*
Y155093D01*
X56530D01*
Y155238D01*
D02*
G37*
G36*
X53766Y157275D02*
X53621D01*
Y157129D01*
Y156984D01*
Y156838D01*
Y156693D01*
Y156547D01*
Y156402D01*
Y156256D01*
Y156111D01*
Y155966D01*
Y155820D01*
Y155675D01*
Y155529D01*
Y155384D01*
Y155238D01*
Y155093D01*
Y154947D01*
Y154802D01*
Y154657D01*
Y154511D01*
X55657D01*
Y154657D01*
Y154802D01*
Y154947D01*
Y155093D01*
Y155238D01*
Y155384D01*
Y155529D01*
Y155675D01*
Y155820D01*
X55512D01*
Y155966D01*
X55366D01*
Y156111D01*
X55076D01*
Y156256D01*
X54930D01*
Y156402D01*
X54785D01*
Y156547D01*
X54494D01*
Y156693D01*
X54348D01*
Y156838D01*
X54203D01*
Y156984D01*
X53912D01*
Y157129D01*
X53766D01*
Y157275D01*
D02*
G37*
G36*
X52894D02*
X52603D01*
Y157129D01*
X52457D01*
Y156984D01*
X52312D01*
Y156838D01*
X52021D01*
Y156693D01*
X51876D01*
Y156547D01*
X51585D01*
Y156402D01*
X51439D01*
Y156256D01*
X51294D01*
Y156111D01*
X51003D01*
Y155966D01*
X50857D01*
Y155820D01*
Y155675D01*
Y155529D01*
Y155384D01*
Y155238D01*
Y155093D01*
Y154947D01*
Y154802D01*
Y154657D01*
Y154511D01*
Y154366D01*
X52894D01*
Y154511D01*
Y154657D01*
Y154802D01*
Y154947D01*
Y155093D01*
Y155238D01*
Y155384D01*
Y155529D01*
Y155675D01*
Y155820D01*
Y155966D01*
Y156111D01*
Y156256D01*
Y156402D01*
Y156547D01*
Y156693D01*
Y156838D01*
Y156984D01*
Y157129D01*
Y157275D01*
D02*
G37*
G36*
X50130Y155238D02*
X49839D01*
Y155093D01*
X49694D01*
Y154947D01*
X49548D01*
Y154802D01*
X49257D01*
Y154657D01*
X49112D01*
Y154511D01*
X48966D01*
Y154366D01*
X50130D01*
Y154511D01*
Y154657D01*
Y154802D01*
Y154947D01*
Y155093D01*
Y155238D01*
D02*
G37*
G36*
X58421Y153784D02*
X56384D01*
Y153638D01*
Y153493D01*
Y153348D01*
Y153202D01*
Y153057D01*
Y152911D01*
Y152766D01*
X59584D01*
Y152911D01*
X59439D01*
Y153057D01*
X59294D01*
Y153202D01*
X59003D01*
Y153348D01*
X58857D01*
Y153493D01*
X58712D01*
Y153638D01*
X58421D01*
Y153784D01*
D02*
G37*
G36*
X55657D02*
X53621D01*
Y153638D01*
Y153493D01*
Y153348D01*
Y153202D01*
Y153057D01*
Y152911D01*
Y152766D01*
X55657D01*
Y152911D01*
Y153057D01*
Y153202D01*
Y153348D01*
Y153493D01*
Y153638D01*
Y153784D01*
D02*
G37*
G36*
X52894Y153638D02*
X50857D01*
Y153493D01*
Y153348D01*
Y153202D01*
Y153057D01*
Y152911D01*
Y152766D01*
X52894D01*
Y152911D01*
Y153057D01*
Y153202D01*
Y153348D01*
Y153493D01*
Y153638D01*
D02*
G37*
G36*
X50130D02*
X47803D01*
Y153493D01*
X47512D01*
Y153348D01*
X47366D01*
Y153202D01*
X47221D01*
Y153057D01*
X46930D01*
Y152911D01*
X46785D01*
Y152766D01*
X50130D01*
Y152911D01*
Y153057D01*
Y153202D01*
Y153348D01*
Y153493D01*
Y153638D01*
D02*
G37*
G36*
X66712Y151748D02*
X66130D01*
Y151602D01*
X65839D01*
Y151457D01*
Y151311D01*
X65694D01*
Y151166D01*
Y151020D01*
Y150875D01*
Y150729D01*
X65839D01*
Y150584D01*
Y150438D01*
X66130D01*
Y150293D01*
X66712D01*
Y150438D01*
X67003D01*
Y150584D01*
Y150729D01*
X67148D01*
Y150875D01*
Y151020D01*
Y151166D01*
Y151311D01*
X67003D01*
Y151457D01*
Y151602D01*
X66712D01*
Y151748D01*
D02*
G37*
G36*
X40385D02*
X39803D01*
Y151602D01*
X39512D01*
Y151457D01*
Y151311D01*
X39366D01*
Y151166D01*
Y151020D01*
Y150875D01*
Y150729D01*
X39512D01*
Y150584D01*
Y150438D01*
X39803D01*
Y150293D01*
X40385D01*
Y150438D01*
X40676D01*
Y150584D01*
Y150729D01*
X40821D01*
Y150875D01*
Y151020D01*
Y151166D01*
Y151311D01*
X40676D01*
Y151457D01*
Y151602D01*
X40385D01*
Y151748D01*
D02*
G37*
%LPD*%
D10*
X82402Y87362D02*
X81614D01*
X82402D01*
X140157Y151575D02*
X139370D01*
X140157D01*
X118110Y30315D02*
X117323D01*
X118110D01*
X33464Y26775D02*
X32677D01*
X33464D01*
X67323Y23228D02*
X66535D01*
X67323D01*
X76378Y135221D02*
X75591D01*
X76378D01*
X50787Y19783D02*
X50000D01*
X50787D01*
X67716Y60630D02*
Y85039D01*
X43307D02*
X67716D01*
X43307Y60630D02*
X67716D01*
X43307D02*
Y85039D01*
D11*
X70276Y89468D02*
X69537Y89895D01*
Y89042D01*
X70276Y89468D01*
D12*
X64961Y81102D02*
X64516Y82026D01*
X63517Y82254D01*
X62715Y81615D01*
Y80590D01*
X63517Y79951D01*
X64516Y80179D01*
X64961Y81102D01*
D13*
X113779Y15453D02*
X116929D01*
X138681Y57087D02*
Y60236D01*
X133071Y111516D02*
X136221D01*
X90650Y28346D02*
Y31496D01*
D14*
X132471Y55143D02*
X133671D01*
X132471Y51943D02*
X133671D01*
X106093Y5093D02*
X107293D01*
X106093Y8293D02*
X107293D01*
X119479Y100762D02*
X120679D01*
X119479Y103962D02*
X120679D01*
X84046Y33833D02*
X85246D01*
X84046Y37033D02*
X85246D01*
X127191Y19676D02*
Y20876D01*
X123991Y19676D02*
Y20876D01*
X91634Y87461D02*
X107382D01*
X91634Y47618D02*
X107382D01*
X132274Y128372D02*
X133474D01*
X132274Y125172D02*
X133474D01*
X123219Y140970D02*
X124419D01*
X123219Y137770D02*
X124419D01*
X127191Y32077D02*
Y33277D01*
X123991Y32077D02*
Y33277D01*
X123219Y135065D02*
X124419D01*
X123219Y131865D02*
X124419D01*
X131290Y71679D02*
X132490D01*
X131290Y68479D02*
X132490D01*
X133096Y13376D02*
Y14576D01*
X129896Y13376D02*
Y14576D01*
X123416Y84277D02*
X124616D01*
X123416Y81077D02*
X124616D01*
X120965Y152677D02*
X136516D01*
X120965Y174094D02*
X136516D01*
X104921Y40394D02*
X110827D01*
X104921Y28110D02*
X110827D01*
X22992Y13979D02*
Y19885D01*
X35275Y13979D02*
Y19885D01*
X54134Y33307D02*
X60039D01*
X54134Y21024D02*
X60039D01*
X85610Y135319D02*
X101358D01*
X85610Y95476D02*
X101358D01*
X123416Y77978D02*
X124616D01*
X123416Y74778D02*
X124616D01*
X73228Y492D02*
Y1673D01*
X43307Y492D02*
Y1673D01*
X73228Y10335D02*
Y11909D01*
X43307Y10335D02*
Y11909D01*
Y295D02*
X73228D01*
D15*
X61063Y114240D02*
Y143240D01*
X31063D02*
X61063D01*
X31063Y114240D02*
X61063D01*
X31063D02*
Y143240D01*
X138402Y110811D02*
X142337D01*
X138402Y108187D01*
X142337D01*
Y104251D02*
Y106875D01*
X140369D01*
Y105563D01*
Y106875D01*
X138402D01*
Y100316D02*
Y102939D01*
X141025Y100316D01*
X141681D01*
X142337Y100972D01*
Y102284D01*
X141681Y102939D01*
X121835Y17142D02*
X117899D01*
X121835Y19766D01*
X117899D01*
Y23701D02*
Y21078D01*
X119867D01*
Y22389D01*
Y21078D01*
X121835D01*
X118555Y25013D02*
X117899Y25669D01*
Y26981D01*
X118555Y27637D01*
X119211D01*
X119867Y26981D01*
Y26325D01*
Y26981D01*
X120523Y27637D01*
X121179D01*
X121835Y26981D01*
Y25669D01*
X121179Y25013D01*
X140764Y54150D02*
Y58085D01*
X143388Y54150D01*
Y58085D01*
X147323D02*
X144700D01*
Y56117D01*
X146011D01*
X144700D01*
Y54150D01*
X148635D02*
X149947D01*
X149291D01*
Y58085D01*
X148635Y57429D01*
X69898Y25670D02*
Y21735D01*
X71865D01*
X72522Y22391D01*
Y25014D01*
X71865Y25670D01*
X69898D01*
X73833D02*
Y21735D01*
X75801D01*
X76457Y22391D01*
Y23047D01*
X75801Y23703D01*
X73833D01*
X75801D01*
X76457Y24359D01*
Y25014D01*
X75801Y25670D01*
X73833D01*
X77769Y21079D02*
X80393D01*
X81705Y25670D02*
Y21735D01*
X84329D01*
X88264Y25670D02*
X85641D01*
Y21735D01*
X88264D01*
X85641Y23703D02*
X86953D01*
X89576Y25670D02*
Y21735D01*
X91544D01*
X92200Y22391D01*
Y25014D01*
X91544Y25670D01*
X89576D01*
X25016Y180921D02*
Y188793D01*
X28951D01*
X30263Y187481D01*
Y184857D01*
X28951Y183545D01*
X25016D01*
X27640D02*
X30263Y180921D01*
X34199D02*
X36823D01*
X38135Y182233D01*
Y184857D01*
X36823Y186169D01*
X34199D01*
X32887Y184857D01*
Y182233D01*
X34199Y180921D01*
X40759Y188793D02*
Y180921D01*
X44695D01*
X46006Y182233D01*
Y183545D01*
Y184857D01*
X44695Y186169D01*
X40759D01*
X49942Y180921D02*
X52566D01*
X53878Y182233D01*
Y184857D01*
X52566Y186169D01*
X49942D01*
X48630Y184857D01*
Y182233D01*
X49942Y180921D01*
X57814Y187481D02*
Y186169D01*
X56502D01*
X59126D01*
X57814D01*
Y182233D01*
X59126Y180921D01*
X63061Y188793D02*
Y180921D01*
Y184857D01*
X64373Y186169D01*
X66997D01*
X68309Y184857D01*
Y180921D01*
X70933Y186169D02*
Y180921D01*
Y183545D01*
X72245Y184857D01*
X73557Y186169D01*
X74868D01*
X82740Y180921D02*
X80116D01*
X78804Y182233D01*
Y184857D01*
X80116Y186169D01*
X82740D01*
X84052Y184857D01*
Y183545D01*
X78804D01*
X90611Y180921D02*
X87988D01*
X86676Y182233D01*
Y184857D01*
X87988Y186169D01*
X90611D01*
X91923Y184857D01*
Y183545D01*
X86676D01*
X114980Y108350D02*
Y112285D01*
X116947D01*
X117603Y111629D01*
Y110318D01*
X116947Y109661D01*
X114980D01*
X116291D02*
X117603Y108350D01*
X118915D02*
X120227D01*
X119571D01*
Y112285D01*
X118915Y111629D01*
X122195D02*
X122851Y112285D01*
X124163D01*
X124819Y111629D01*
Y110973D01*
X124163Y110318D01*
X123507D01*
X124163D01*
X124819Y109661D01*
Y109006D01*
X124163Y108350D01*
X122851D01*
X122195Y109006D01*
X101380Y10631D02*
Y14566D01*
X103347D01*
X104003Y13910D01*
Y12598D01*
X103347Y11942D01*
X101380D01*
X102691D02*
X104003Y10631D01*
X105315D02*
X106627D01*
X105971D01*
Y14566D01*
X105315Y13910D01*
X111219Y10631D02*
X108595D01*
X111219Y13254D01*
Y13910D01*
X110563Y14566D01*
X109251D01*
X108595Y13910D01*
X117390Y50788D02*
Y54724D01*
X119358D01*
X120014Y54068D01*
Y52756D01*
X119358Y52100D01*
X117390D01*
X118702D02*
X120014Y50788D01*
X121326D02*
X122637D01*
X121982D01*
Y54724D01*
X121326Y54068D01*
X124605Y50788D02*
X125917D01*
X125261D01*
Y54724D01*
X124605Y54068D01*
X129398Y116535D02*
Y112599D01*
X131366D01*
X132022Y113255D01*
Y115879D01*
X131366Y116535D01*
X129398D01*
X135958Y115879D02*
X135302Y116535D01*
X133990D01*
X133334Y115879D01*
Y115223D01*
X133990Y114567D01*
X135302D01*
X135958Y113911D01*
Y113255D01*
X135302Y112599D01*
X133990D01*
X133334Y113255D01*
X139237Y112599D02*
Y116535D01*
X137269Y114567D01*
X139893D01*
X117717Y4201D02*
X121653D01*
Y6169D01*
X120997Y6825D01*
X118373D01*
X117717Y6169D01*
Y4201D01*
X118373Y10761D02*
X117717Y10105D01*
Y8793D01*
X118373Y8137D01*
X119029D01*
X119685Y8793D01*
Y10105D01*
X120341Y10761D01*
X120997D01*
X121653Y10105D01*
Y8793D01*
X120997Y8137D01*
X118373Y12073D02*
X117717Y12729D01*
Y14040D01*
X118373Y14696D01*
X119029D01*
X119685Y14040D01*
Y13385D01*
Y14040D01*
X120341Y14696D01*
X120997D01*
X121653Y14040D01*
Y12729D01*
X120997Y12073D01*
X115225Y61023D02*
Y57087D01*
X117193D01*
X117849Y57743D01*
Y60367D01*
X117193Y61023D01*
X115225D01*
X121784Y60367D02*
X121128Y61023D01*
X119817D01*
X119160Y60367D01*
Y59711D01*
X119817Y59055D01*
X121128D01*
X121784Y58399D01*
Y57743D01*
X121128Y57087D01*
X119817D01*
X119160Y57743D01*
X125720Y57087D02*
X123096D01*
X125720Y59711D01*
Y60367D01*
X125064Y61023D01*
X123752D01*
X123096Y60367D01*
X67521Y33465D02*
Y37401D01*
X69489D01*
X70145Y36745D01*
Y35433D01*
X69489Y34777D01*
X67521D01*
X68833D02*
X70145Y33465D01*
X71457D02*
X72769D01*
X72113D01*
Y37401D01*
X71457Y36745D01*
X74737D02*
X75393Y37401D01*
X76705D01*
X77361Y36745D01*
Y34121D01*
X76705Y33465D01*
X75393D01*
X74737Y34121D01*
Y36745D01*
X69424Y31889D02*
Y27953D01*
X71392D01*
X72048Y28609D01*
Y31233D01*
X71392Y31889D01*
X69424D01*
X75984Y31233D02*
X75328Y31889D01*
X74016D01*
X73360Y31233D01*
Y30577D01*
X74016Y29921D01*
X75328D01*
X75984Y29265D01*
Y28609D01*
X75328Y27953D01*
X74016D01*
X73360Y28609D01*
X77296Y27953D02*
X78607D01*
X77952D01*
Y31889D01*
X77296Y31233D01*
X133071Y195669D02*
X131759D01*
X132415D01*
Y192389D01*
X131759Y191733D01*
X131103D01*
X130447Y192389D01*
X134383Y191733D02*
X135695D01*
X135039D01*
Y195669D01*
X134383Y195013D01*
X59448Y42256D02*
X56168D01*
X55512Y41600D01*
Y40288D01*
X56168Y39632D01*
X59448D01*
Y38320D02*
Y35697D01*
X58792D01*
X56168Y38320D01*
X55512D01*
X103742Y46456D02*
Y43176D01*
X104398Y42520D01*
X105710D01*
X106366Y43176D01*
Y46456D01*
X107677Y42520D02*
X108989D01*
X108333D01*
Y46456D01*
X107677Y45800D01*
X110957D02*
X111613Y46456D01*
X112925D01*
X113581Y45800D01*
Y43176D01*
X112925Y42520D01*
X111613D01*
X110957Y43176D01*
Y45800D01*
X107350Y174015D02*
Y170735D01*
X108006Y170079D01*
X109318D01*
X109974Y170735D01*
Y174015D01*
X111286Y170735D02*
X111942Y170079D01*
X113254D01*
X113910Y170735D01*
Y173359D01*
X113254Y174015D01*
X111942D01*
X111286Y173359D01*
Y172703D01*
X111942Y172047D01*
X113910D01*
X34909Y98818D02*
Y95539D01*
X35565Y94883D01*
X36877D01*
X37533Y95539D01*
Y98818D01*
X38845Y98162D02*
X39501Y98818D01*
X40813D01*
X41469Y98162D01*
Y97506D01*
X40813Y96850D01*
X41469Y96194D01*
Y95539D01*
X40813Y94883D01*
X39501D01*
X38845Y95539D01*
Y96194D01*
X39501Y96850D01*
X38845Y97506D01*
Y98162D01*
X39501Y96850D02*
X40813D01*
X130578Y149999D02*
Y146720D01*
X131234Y146064D01*
X132546D01*
X133202Y146720D01*
Y149999D01*
X137138D02*
X135826Y149343D01*
X134514Y148031D01*
Y146720D01*
X135170Y146064D01*
X136482D01*
X137138Y146720D01*
Y147376D01*
X136482Y148031D01*
X134514D01*
X130185Y38188D02*
Y34909D01*
X130841Y34253D01*
X132153D01*
X132809Y34909D01*
Y38188D01*
X136744D02*
X134121D01*
Y36220D01*
X135432Y36876D01*
X136088D01*
X136744Y36220D01*
Y34909D01*
X136088Y34253D01*
X134776D01*
X134121Y34909D01*
X80972Y141338D02*
Y138058D01*
X81628Y137402D01*
X82940D01*
X83596Y138058D01*
Y141338D01*
X86876Y137402D02*
Y141338D01*
X84908Y139370D01*
X87532D01*
X14830Y28346D02*
Y25066D01*
X15486Y24410D01*
X16798D01*
X17454Y25066D01*
Y28346D01*
X18766Y27690D02*
X19422Y28346D01*
X20734D01*
X21390Y27690D01*
Y27034D01*
X20734Y26378D01*
X20078D01*
X20734D01*
X21390Y25722D01*
Y25066D01*
X20734Y24410D01*
X19422D01*
X18766Y25066D01*
X130972Y96062D02*
Y92783D01*
X131628Y92127D01*
X132940D01*
X133596Y92783D01*
Y96062D01*
X137532Y92127D02*
X134908D01*
X137532Y94750D01*
Y95406D01*
X136876Y96062D01*
X135564D01*
X134908Y95406D01*
X88715Y45275D02*
Y41995D01*
X89371Y41339D01*
X90683D01*
X91339Y41995D01*
Y45275D01*
X92651Y41339D02*
X93962D01*
X93306D01*
Y45275D01*
X92651Y44619D01*
X118374Y125198D02*
Y129133D01*
X120342D01*
X120998Y128477D01*
Y127165D01*
X120342Y126509D01*
X118374D01*
X119686D02*
X120998Y125198D01*
X122310Y125853D02*
X122966Y125198D01*
X124277D01*
X124933Y125853D01*
Y128477D01*
X124277Y129133D01*
X122966D01*
X122310Y128477D01*
Y127821D01*
X122966Y127165D01*
X124933D01*
X120342Y146064D02*
Y149999D01*
X122310D01*
X122966Y149343D01*
Y148031D01*
X122310Y147376D01*
X120342D01*
X121654D02*
X122966Y146064D01*
X124278Y149343D02*
X124934Y149999D01*
X126246D01*
X126902Y149343D01*
Y148687D01*
X126246Y148031D01*
X126902Y147376D01*
Y146720D01*
X126246Y146064D01*
X124934D01*
X124278Y146720D01*
Y147376D01*
X124934Y148031D01*
X124278Y148687D01*
Y149343D01*
X124934Y148031D02*
X126246D01*
X129397Y118505D02*
Y122440D01*
X131365D01*
X132021Y121784D01*
Y120472D01*
X131365Y119817D01*
X129397D01*
X130709D02*
X132021Y118505D01*
X133333Y122440D02*
X135957D01*
Y121784D01*
X133333Y119160D01*
Y118505D01*
X127558Y6169D02*
X123623D01*
Y8137D01*
X124279Y8793D01*
X125591D01*
X126247Y8137D01*
Y6169D01*
Y7481D02*
X127558Y8793D01*
X123623Y12729D02*
X124279Y11417D01*
X125591Y10105D01*
X126902D01*
X127558Y10761D01*
Y12073D01*
X126902Y12729D01*
X126247D01*
X125591Y12073D01*
Y10105D01*
X123623Y46981D02*
X127558D01*
Y45013D01*
X126902Y44357D01*
X125591D01*
X124935Y45013D01*
Y46981D01*
Y45669D02*
X123623Y44357D01*
X127558Y40421D02*
Y43045D01*
X125591D01*
X126247Y41733D01*
Y41077D01*
X125591Y40421D01*
X124279D01*
X123623Y41077D01*
Y42389D01*
X124279Y43045D01*
X129397Y2363D02*
Y6299D01*
X131365D01*
X132021Y5643D01*
Y4331D01*
X131365Y3675D01*
X129397D01*
X130709D02*
X132021Y2363D01*
X135301D02*
Y6299D01*
X133333Y4331D01*
X135957D01*
X128610Y61812D02*
Y65747D01*
X130578D01*
X131234Y65091D01*
Y63779D01*
X130578Y63124D01*
X128610D01*
X129922D02*
X131234Y61812D01*
X132546Y65091D02*
X133202Y65747D01*
X134514D01*
X135169Y65091D01*
Y64435D01*
X134514Y63779D01*
X133858D01*
X134514D01*
X135169Y63124D01*
Y62468D01*
X134514Y61812D01*
X133202D01*
X132546Y62468D01*
X120736Y92127D02*
Y96062D01*
X122704D01*
X123360Y95406D01*
Y94095D01*
X122704Y93439D01*
X120736D01*
X122048D02*
X123360Y92127D01*
X127295D02*
X124672D01*
X127295Y94750D01*
Y95406D01*
X126640Y96062D01*
X125328D01*
X124672Y95406D01*
X118636Y68111D02*
Y72047D01*
X120604D01*
X121260Y71391D01*
Y70079D01*
X120604Y69423D01*
X118636D01*
X119948D02*
X121260Y68111D01*
X122572D02*
X123884D01*
X123228D01*
Y72047D01*
X122572Y71391D01*
X80708Y13319D02*
Y14631D01*
Y13975D01*
X77428D01*
X76772Y14631D01*
Y15287D01*
X77428Y15943D01*
X76772Y12008D02*
Y10696D01*
Y11352D01*
X80708D01*
X80052Y12008D01*
X80708Y6104D02*
X80052Y7416D01*
X78740Y8728D01*
X77428D01*
X76772Y8072D01*
Y6760D01*
X77428Y6104D01*
X78084D01*
X78740Y6760D01*
Y8728D01*
X146523Y115354D02*
X145211D01*
X145867D01*
Y112074D01*
X145211Y111418D01*
X144555D01*
X143899Y112074D01*
X147835Y111418D02*
X149147D01*
X148491D01*
Y115354D01*
X147835Y114698D01*
X151115D02*
X151771Y115354D01*
X153083D01*
X153739Y114698D01*
Y114042D01*
X153083Y113386D01*
X152427D01*
X153083D01*
X153739Y112730D01*
Y112074D01*
X153083Y111418D01*
X151771D01*
X151115Y112074D01*
X143306Y151115D02*
Y152427D01*
Y151771D01*
X140027D01*
X139371Y152427D01*
Y153083D01*
X140027Y153739D01*
X139371Y149803D02*
Y148491D01*
Y149147D01*
X143306D01*
X142650Y149803D01*
X139371Y143899D02*
Y146523D01*
X141995Y143899D01*
X142650D01*
X143306Y144555D01*
Y145867D01*
X142650Y146523D01*
X103872Y155511D02*
X102560D01*
X103216D01*
Y152231D01*
X102560Y151575D01*
X101904D01*
X101248Y152231D01*
X105184Y151575D02*
X106496D01*
X105840D01*
Y155511D01*
X105184Y154855D01*
X108464Y151575D02*
X109775D01*
X109120D01*
Y155511D01*
X108464Y154855D01*
X147310Y178346D02*
X145999D01*
X146654D01*
Y175066D01*
X145999Y174410D01*
X145343D01*
X144687Y175066D01*
X148622Y174410D02*
X149934D01*
X149278D01*
Y178346D01*
X148622Y177690D01*
X151902D02*
X152558Y178346D01*
X153870D01*
X154526Y177690D01*
Y175066D01*
X153870Y174410D01*
X152558D01*
X151902Y175066D01*
Y177690D01*
X148163Y5905D02*
X146851D01*
X147507D01*
Y2625D01*
X146851Y1969D01*
X146195D01*
X145539Y2625D01*
X149475D02*
X150131Y1969D01*
X151443D01*
X152099Y2625D01*
Y5249D01*
X151443Y5905D01*
X150131D01*
X149475Y5249D01*
Y4593D01*
X150131Y3937D01*
X152099D01*
X140289Y50787D02*
X138977D01*
X139633D01*
Y47507D01*
X138977Y46851D01*
X138321D01*
X137665Y47507D01*
X141601Y50131D02*
X142257Y50787D01*
X143569D01*
X144225Y50131D01*
Y49475D01*
X143569Y48819D01*
X144225Y48163D01*
Y47507D01*
X143569Y46851D01*
X142257D01*
X141601Y47507D01*
Y48163D01*
X142257Y48819D01*
X141601Y49475D01*
Y50131D01*
X142257Y48819D02*
X143569D01*
X12730Y37007D02*
X11418D01*
X12074D01*
Y33727D01*
X11418Y33072D01*
X10762D01*
X10106Y33727D01*
X14042Y37007D02*
X16666D01*
Y36351D01*
X14042Y33727D01*
Y33072D01*
X29921Y92782D02*
Y94094D01*
Y93438D01*
X26641D01*
X25985Y94094D01*
Y94750D01*
X26641Y95406D01*
X29921Y88846D02*
X29265Y90158D01*
X27953Y91470D01*
X26641D01*
X25985Y90814D01*
Y89502D01*
X26641Y88846D01*
X27297D01*
X27953Y89502D01*
Y91470D01*
X151969Y54856D02*
Y53544D01*
Y54200D01*
X155249D01*
X155905Y53544D01*
Y52888D01*
X155249Y52232D01*
X151969Y58792D02*
Y56168D01*
X153937D01*
X153281Y57480D01*
Y58136D01*
X153937Y58792D01*
X155249D01*
X155905Y58136D01*
Y56824D01*
X155249Y56168D01*
X29265Y149212D02*
X27953D01*
X28609D01*
Y145932D01*
X27953Y145276D01*
X27297D01*
X26641Y145932D01*
X32545Y145276D02*
Y149212D01*
X30577Y147244D01*
X33201D01*
X13124Y149606D02*
X11812D01*
X12468D01*
Y146326D01*
X11812Y145670D01*
X11156D01*
X10500Y146326D01*
X14435Y148950D02*
X15091Y149606D01*
X16403D01*
X17059Y148950D01*
Y148294D01*
X16403Y147638D01*
X15747D01*
X16403D01*
X17059Y146982D01*
Y146326D01*
X16403Y145670D01*
X15091D01*
X14435Y146326D01*
X149738Y104330D02*
X148426D01*
X149082D01*
Y101050D01*
X148426Y100394D01*
X147770D01*
X147114Y101050D01*
X153674Y100394D02*
X151050D01*
X153674Y103018D01*
Y103674D01*
X153017Y104330D01*
X151706D01*
X151050Y103674D01*
X90027Y11943D02*
X89371Y11287D01*
Y9975D01*
X90027Y9319D01*
X92651D01*
X93306Y9975D01*
Y11287D01*
X92651Y11943D01*
X93306Y15879D02*
Y13255D01*
X90683Y15879D01*
X90027D01*
X89371Y15223D01*
Y13911D01*
X90027Y13255D01*
X89371Y19815D02*
X90027Y18503D01*
X91339Y17191D01*
X92651D01*
X93306Y17847D01*
Y19159D01*
X92651Y19815D01*
X91995D01*
X91339Y19159D01*
Y17191D01*
X31628Y111548D02*
X30972Y112204D01*
X29660D01*
X29004Y111548D01*
Y108924D01*
X29660Y108268D01*
X30972D01*
X31628Y108924D01*
X35564Y108268D02*
X32940D01*
X35564Y110892D01*
Y111548D01*
X34908Y112204D01*
X33596D01*
X32940Y111548D01*
X39500Y112204D02*
X36876D01*
Y110236D01*
X38188Y110892D01*
X38844D01*
X39500Y110236D01*
Y108924D01*
X38844Y108268D01*
X37532D01*
X36876Y108924D01*
X106562Y19030D02*
X105906Y18374D01*
Y17062D01*
X106562Y16406D01*
X109186D01*
X109842Y17062D01*
Y18374D01*
X109186Y19030D01*
X109842Y22965D02*
Y20342D01*
X107218Y22965D01*
X106562D01*
X105906Y22309D01*
Y20998D01*
X106562Y20342D01*
X109842Y26245D02*
X105906D01*
X107874Y24277D01*
Y26901D01*
X27297Y50918D02*
X26641Y51574D01*
X25330D01*
X24674Y50918D01*
Y48294D01*
X25330Y47638D01*
X26641D01*
X27297Y48294D01*
X31233Y47638D02*
X28609D01*
X31233Y50262D01*
Y50918D01*
X30577Y51574D01*
X29265D01*
X28609Y50918D01*
X32545D02*
X33201Y51574D01*
X34513D01*
X35169Y50918D01*
Y50262D01*
X34513Y49606D01*
X33857D01*
X34513D01*
X35169Y48950D01*
Y48294D01*
X34513Y47638D01*
X33201D01*
X32545Y48294D01*
X33595Y76246D02*
X34251Y76902D01*
Y78214D01*
X33595Y78870D01*
X30972D01*
X30316Y78214D01*
Y76902D01*
X30972Y76246D01*
X30316Y72310D02*
Y74934D01*
X32939Y72310D01*
X33595D01*
X34251Y72966D01*
Y74278D01*
X33595Y74934D01*
X30316Y68374D02*
Y70998D01*
X32939Y68374D01*
X33595D01*
X34251Y69030D01*
Y70342D01*
X33595Y70998D01*
X110499Y111812D02*
X109843Y111156D01*
Y109844D01*
X110499Y109188D01*
X113123D01*
X113779Y109844D01*
Y111156D01*
X113123Y111812D01*
X113779Y115747D02*
Y113124D01*
X111155Y115747D01*
X110499D01*
X109843Y115092D01*
Y113779D01*
X110499Y113124D01*
X113779Y117059D02*
Y118371D01*
Y117715D01*
X109843D01*
X110499Y117059D01*
X66667Y105249D02*
X66012Y105905D01*
X64700D01*
X64044Y105249D01*
Y102625D01*
X64700Y101969D01*
X66012D01*
X66667Y102625D01*
X70603Y101969D02*
X67979D01*
X70603Y104593D01*
Y105249D01*
X69947Y105905D01*
X68635D01*
X67979Y105249D01*
X71915D02*
X72571Y105905D01*
X73883D01*
X74539Y105249D01*
Y102625D01*
X73883Y101969D01*
X72571D01*
X71915Y102625D01*
Y105249D01*
X38649Y37926D02*
X37993Y38582D01*
X36681D01*
X36025Y37926D01*
Y35302D01*
X36681Y34646D01*
X37993D01*
X38649Y35302D01*
X39961Y34646D02*
X41273D01*
X40617D01*
Y38582D01*
X39961Y37926D01*
X43241Y35302D02*
X43897Y34646D01*
X45209D01*
X45865Y35302D01*
Y37926D01*
X45209Y38582D01*
X43897D01*
X43241Y37926D01*
Y37270D01*
X43897Y36614D01*
X45865D01*
X67979Y128413D02*
X67323Y127757D01*
Y126445D01*
X67979Y125789D01*
X70603D01*
X71259Y126445D01*
Y127757D01*
X70603Y128413D01*
X71259Y129725D02*
Y131037D01*
Y130381D01*
X67323D01*
X67979Y129725D01*
Y133004D02*
X67323Y133660D01*
Y134972D01*
X67979Y135628D01*
X68635D01*
X69291Y134972D01*
X69947Y135628D01*
X70603D01*
X71259Y134972D01*
Y133660D01*
X70603Y133004D01*
X69947D01*
X69291Y133660D01*
X68635Y133004D01*
X67979D01*
X69291Y133660D02*
Y134972D01*
X18635Y6824D02*
X17979Y7480D01*
X16668D01*
X16012Y6824D01*
Y4200D01*
X16668Y3544D01*
X17979D01*
X18635Y4200D01*
X19947Y6824D02*
X20603Y7480D01*
X21915D01*
X22571Y6824D01*
Y6168D01*
X21915Y5512D01*
X22571Y4856D01*
Y4200D01*
X21915Y3544D01*
X20603D01*
X19947Y4200D01*
Y4856D01*
X20603Y5512D01*
X19947Y6168D01*
Y6824D01*
X20603Y5512D02*
X21915D01*
X28478Y35170D02*
X27822Y35826D01*
X26510D01*
X25854Y35170D01*
Y32546D01*
X26510Y31890D01*
X27822D01*
X28478Y32546D01*
X29790Y35826D02*
X32414D01*
Y35170D01*
X29790Y32546D01*
Y31890D01*
X80972Y72179D02*
X80316Y71523D01*
Y70211D01*
X80972Y69555D01*
X83595D01*
X84251Y70211D01*
Y71523D01*
X83595Y72179D01*
X80316Y76114D02*
X80972Y74803D01*
X82284Y73491D01*
X83595D01*
X84251Y74147D01*
Y75459D01*
X83595Y76114D01*
X82939D01*
X82284Y75459D01*
Y73491D01*
X113517Y96194D02*
X112861Y96850D01*
X111549D01*
X110893Y96194D01*
Y93570D01*
X111549Y92914D01*
X112861D01*
X113517Y93570D01*
X114829Y96194D02*
X115485Y96850D01*
X116797D01*
X117453Y96194D01*
Y95538D01*
X116797Y94882D01*
X116141D01*
X116797D01*
X117453Y94226D01*
Y93570D01*
X116797Y92914D01*
X115485D01*
X114829Y93570D01*
X37664Y16535D02*
X37009Y15879D01*
Y14568D01*
X37664Y13912D01*
X40288D01*
X40944Y14568D01*
Y15879D01*
X40288Y16535D01*
X40944Y17847D02*
Y19159D01*
Y18503D01*
X37009D01*
X37664Y17847D01*
M02*
